solid exported
	facet normal -0.6141741249424134 -0.7891705419307167 3.4664494977950336e-16
		outer loop
			vertex -0.031891298245397125 -0.01233378219604454 0
			vertex -0.031891298245397125 -0.012333782196045012 -1.0742
			vertex -0.00573455109497598 -0.03269034194946298 -1.0742
		endloop
	endfacet
	facet normal -0.6141741249424134 -0.7891705419307167 3.4664494977950336e-16
		outer loop
			vertex -0.031891298245397125 -0.01233378219604454 0
			vertex -0.00573455109497598 -0.03269034194946298 -1.0742
			vertex -0.00573455109497598 -0.032690341949462506 0
		endloop
	endfacet
	facet normal 0.23992018543530746 -0.9707926166904484 4.264228578979537e-16
		outer loop
			vertex -0.00573455109497598 -0.032690341949462506 0
			vertex -0.00573455109497598 -0.03269034194946298 -1.0742
			vertex 0.0390315735349984 -0.021626911163330164 -1.0742
		endloop
	endfacet
	facet normal 0.23992018543530746 -0.9707926166904484 4.264228578979537e-16
		outer loop
			vertex -0.00573455109497598 -0.032690341949462506 0
			vertex 0.0390315735349984 -0.021626911163330164 -1.0742
			vertex 0.0390315735349984 -0.021626911163329692 0
		endloop
	endfacet
	facet normal 0.881281990033286 -0.47259078920665737 2.0758657563421807e-16
		outer loop
			vertex 0.0390315735349984 -0.021626911163329692 0
			vertex 0.0390315735349984 -0.021626911163330164 -1.0742
			vertex 0.06188696637252282 0.02099356842041009 -1.0742
		endloop
	endfacet
	facet normal 0.881281990033286 -0.47259078920665737 2.0758657563421807e-16
		outer loop
			vertex 0.0390315735349984 -0.021626911163329692 0
			vertex 0.06188696637252282 0.02099356842041009 -1.0742
			vertex 0.06188696637252282 0.02099356842041056 0
		endloop
	endfacet
	facet normal 0.9760831255962925 0.21739763551191718 -9.549240429051309e-17
		outer loop
			vertex 0.06188696637252282 0.02099356842041056 0
			vertex 0.06188696637252282 0.02099356842041009 -1.0742
			vertex 0.054979769183191765 0.05200585889816279 -1.0742
		endloop
	endfacet
	facet normal 0.9760831255962925 0.21739763551191724 -9.549240429051312e-17
		outer loop
			vertex 0.06188696637252282 0.02099356842041056 0
			vertex 0.054979769183191765 0.05200585889816279 -1.0742
			vertex 0.054979769183191765 0.05200585889816326 0
		endloop
	endfacet
	facet normal 0.8465244230128995 0.5323498861112658 -2.3383589443758657e-16
		outer loop
			vertex 0.054979769183191765 0.05200585889816326 0
			vertex 0.054979769183191765 0.05200585889816279 -1.0742
			vertex 0.04468942074874351 0.06836921596527094 -1.0742
		endloop
	endfacet
	facet normal 0.8465244230128995 0.5323498861112658 -2.3383589443758657e-16
		outer loop
			vertex 0.054979769183191765 0.05200585889816326 0
			vertex 0.04468942074874351 0.06836921596527094 -1.0742
			vertex 0.04468942074874351 0.06836921596527142 0
		endloop
	endfacet
	facet normal 0.9570011748619828 0.29008404180992947 -1.2742007305420486e-16
		outer loop
			vertex 0.04468942074874351 0.06836921596527142 0
			vertex 0.04468942074874351 0.06836921596527094 -1.0742
			vertex 0.0362381180296273 0.09625046920776364 -1.0742
		endloop
	endfacet
	facet normal 0.9570011748619828 0.29008404180992947 -1.2742007305420486e-16
		outer loop
			vertex 0.04468942074874351 0.06836921596527142 0
			vertex 0.0362381180296273 0.09625046920776364 -1.0742
			vertex 0.0362381180296273 0.09625046920776412 0
		endloop
	endfacet
	facet normal 0.6534501318419367 0.7569695668887594 -3.3250059848509027e-16
		outer loop
			vertex 0.0362381180296273 0.09625046920776412 0
			vertex 0.0362381180296273 0.09625046920776364 -1.0742
			vertex 0.021540472460779645 0.10893813705444333 -1.0742
		endloop
	endfacet
	facet normal 0.6534501318419367 0.7569695668887593 -3.3250059848509027e-16
		outer loop
			vertex 0.0362381180296273 0.09625046920776412 0
			vertex 0.021540472460779645 0.10893813705444333 -1.0742
			vertex 0.021540472460779645 0.1089381370544438 0
		endloop
	endfacet
	facet normal 0.3184409402827772 0.9479427026734373 -4.163859813598174e-16
		outer loop
			vertex 0.021540472460779645 0.1089381370544438 0
			vertex 0.021540472460779645 0.10893813705444333 -1.0742
			vertex -0.013781550469008003 0.12080381011962887 -1.0742
		endloop
	endfacet
	facet normal 0.3184409402827772 0.9479427026734373 -4.163859813598174e-16
		outer loop
			vertex 0.021540472460779645 0.1089381370544438 0
			vertex -0.013781550469008003 0.12080381011962887 -1.0742
			vertex -0.013781550469008003 0.12080381011962935 0
		endloop
	endfacet
	facet normal -0.40424673482782164 0.9146499753353985 -4.017620753940897e-16
		outer loop
			vertex -0.013781550469008003 0.12080381011962935 0
			vertex -0.013781550469008003 0.12080381011962887 -1.0742
			vertex -0.04371382250687174 0.10757468032836912 -1.0742
		endloop
	endfacet
	facet normal -0.4042467348278217 0.9146499753353985 -4.017620753940897e-16
		outer loop
			vertex -0.013781550469008003 0.12080381011962935 0
			vertex -0.04371382250687174 0.10757468032836912 -1.0742
			vertex -0.04371382250687174 0.10757468032836959 0
		endloop
	endfacet
	facet normal -0.9695417996365107 0.2449259046274946 -1.0758425891263323e-16
		outer loop
			vertex -0.04371382250687174 0.10757468032836959 0
			vertex -0.04371382250687174 0.10757468032836912 -1.0742
			vertex -0.04865030455490642 0.08803356361389156 -1.0742
		endloop
	endfacet
	facet normal -0.9695417996365107 0.2449259046274946 -1.0758425891263323e-16
		outer loop
			vertex -0.04371382250687174 0.10757468032836959 0
			vertex -0.04865030455490642 0.08803356361389156 -1.0742
			vertex -0.04865030455490642 0.08803356361389203 0
		endloop
	endfacet
	facet normal -0.7250888245645061 0.6886553539265217 -3.024934255569349e-16
		outer loop
			vertex -0.04865030455490642 0.08803356361389203 0
			vertex -0.04865030455490642 0.08803356361389156 -1.0742
			vertex -0.06309117617508464 0.07282869434356684 -1.0742
		endloop
	endfacet
	facet normal -0.7250888245645059 0.688655353926522 -3.1139029101449195e-16
		outer loop
			vertex -0.04865030455490642 0.08803356361389203 0
			vertex -0.06309117617508464 0.07282869434356684 -1.0742
			vertex -0.06309117617508464 0.07282869434356733 0
		endloop
	endfacet
	facet normal -0.9966783634058318 0.08143856530337999 -3.6824194286781034e-17
		outer loop
			vertex -0.06309117617508464 0.07282869434356733 0
			vertex -0.06309117617508464 0.07282869434356684 -1.0742
			vertex -0.06448647303482584 0.05575248253345484 -1.0742
		endloop
	endfacet
	facet normal -0.9966783634058318 0.08143856530337996 -3.629813436839843e-17
		outer loop
			vertex -0.06309117617508464 0.07282869434356733 0
			vertex -0.06448647303482584 0.05575248253345484 -1.0742
			vertex -0.06448647303482584 0.05575248253345532 0
		endloop
	endfacet
	facet normal -0.9755922750612794 -0.21958987417628573 9.787381112495748e-17
		outer loop
			vertex -0.06448647303482584 0.05575248253345532 0
			vertex -0.06448647303482584 0.05575248253345484 -1.0742
			vertex -0.06162038607498698 0.0430190525054931 -1.0742
		endloop
	endfacet
	facet normal -0.9755922750612795 -0.21958987417628567 9.645535009416096e-17
		outer loop
			vertex -0.06448647303482584 0.05575248253345532 0
			vertex -0.06162038607498698 0.0430190525054931 -1.0742
			vertex -0.06162038607498698 0.04301905250549357 0
		endloop
	endfacet
	facet normal -0.6264801577192007 -0.7794373688655977 3.423696314432424e-16
		outer loop
			vertex -0.06162038607498698 0.04301905250549357 0
			vertex -0.06162038607498698 0.0430190525054931 -1.0742
			vertex -0.04699405016800456 0.03126299667358392 -1.0742
		endloop
	endfacet
	facet normal -0.6264801577192007 -0.7794373688655977 3.423696314432424e-16
		outer loop
			vertex -0.06162038607498698 0.04301905250549357 0
			vertex -0.04699405016800456 0.03126299667358392 -1.0742
			vertex -0.04699405016800456 0.03126299667358439 0
		endloop
	endfacet
	facet normal -0.7606686687081183 -0.6491403364803479 2.8513636455380425e-16
		outer loop
			vertex -0.04699405016800456 0.03126299667358439 0
			vertex -0.04699405016800456 0.03126299667358392 -1.0742
			vertex -0.03596438536545329 0.018338333129882745 -1.0742
		endloop
	endfacet
	facet normal -0.7606686687081183 -0.6491403364803479 2.8513636455380425e-16
		outer loop
			vertex -0.04699405016800456 0.03126299667358439 0
			vertex -0.03596438536545329 0.018338333129882745 -1.0742
			vertex -0.03596438536545329 0.018338333129883217 0
		endloop
	endfacet
	facet normal -0.9912977416132254 -0.1316388524430361 5.78226643920445e-17
		outer loop
			vertex -0.03596438536545329 0.018338333129883217 0
			vertex -0.03596438536545329 0.018338333129882745 -1.0742
			vertex -0.031891298245397125 -0.012333782196045012 -1.0742
		endloop
	endfacet
	facet normal -0.9912977416132254 -0.1316388524430361 5.78226643920445e-17
		outer loop
			vertex -0.03596438536545329 0.018338333129883217 0
			vertex -0.031891298245397125 -0.012333782196045012 -1.0742
			vertex -0.031891298245397125 -0.01233378219604454 0
		endloop
	endfacet
	facet normal 0 0 1
		outer loop
			vertex -0.031891298245397125 -0.01233378219604454 0
			vertex -0.00573455109497598 -0.032690341949462506 0
			vertex -0.014291734646764313 0.05770593643188519 0
		endloop
	endfacet
	facet normal 0 0 1
		outer loop
			vertex -0.00573455109497598 -0.032690341949462506 0
			vertex 0.0390315735349984 -0.021626911163329692 0
			vertex -0.014291734646764313 0.05770593643188519 0
		endloop
	endfacet
	facet normal 0 0 1
		outer loop
			vertex 0.0390315735349984 -0.021626911163329692 0
			vertex 0.06188696637252282 0.02099356842041056 0
			vertex -0.014291734646764313 0.05770593643188519 0
		endloop
	endfacet
	facet normal 0 0 1
		outer loop
			vertex 0.06188696637252282 0.02099356842041056 0
			vertex 0.054979769183191765 0.05200585889816326 0
			vertex -0.014291734646764313 0.05770593643188519 0
		endloop
	endfacet
	facet normal 0 0 1
		outer loop
			vertex 0.054979769183191765 0.05200585889816326 0
			vertex 0.04468942074874351 0.06836921596527142 0
			vertex -0.014291734646764313 0.05770593643188519 0
		endloop
	endfacet
	facet normal 0 0 1
		outer loop
			vertex 0.04468942074874351 0.06836921596527142 0
			vertex 0.0362381180296273 0.09625046920776412 0
			vertex -0.014291734646764313 0.05770593643188519 0
		endloop
	endfacet
	facet normal 0 0 1
		outer loop
			vertex 0.0362381180296273 0.09625046920776412 0
			vertex 0.021540472460779645 0.1089381370544438 0
			vertex -0.014291734646764313 0.05770593643188519 0
		endloop
	endfacet
	facet normal 0 0 1
		outer loop
			vertex 0.021540472460779645 0.1089381370544438 0
			vertex -0.013781550469008003 0.12080381011962935 0
			vertex -0.014291734646764313 0.05770593643188519 0
		endloop
	endfacet
	facet normal 0 0 1
		outer loop
			vertex -0.013781550469008003 0.12080381011962935 0
			vertex -0.04371382250687174 0.10757468032836959 0
			vertex -0.014291734646764313 0.05770593643188519 0
		endloop
	endfacet
	facet normal 0 0 1
		outer loop
			vertex -0.04371382250687174 0.10757468032836959 0
			vertex -0.04865030455490642 0.08803356361389203 0
			vertex -0.014291734646764313 0.05770593643188519 0
		endloop
	endfacet
	facet normal 0 0 1
		outer loop
			vertex -0.04865030455490642 0.08803356361389203 0
			vertex -0.06309117617508464 0.07282869434356733 0
			vertex -0.014291734646764313 0.05770593643188519 0
		endloop
	endfacet
	facet normal 0 0 1
		outer loop
			vertex -0.06309117617508464 0.07282869434356733 0
			vertex -0.06448647303482584 0.05575248253345532 0
			vertex -0.014291734646764313 0.05770593643188519 0
		endloop
	endfacet
	facet normal 0 0 1
		outer loop
			vertex -0.06448647303482584 0.05575248253345532 0
			vertex -0.06162038607498698 0.04301905250549357 0
			vertex -0.014291734646764313 0.05770593643188519 0
		endloop
	endfacet
	facet normal 0 0 1
		outer loop
			vertex -0.06162038607498698 0.04301905250549357 0
			vertex -0.04699405016800456 0.03126299667358439 0
			vertex -0.014291734646764313 0.05770593643188519 0
		endloop
	endfacet
	facet normal 0 0 1
		outer loop
			vertex -0.04699405016800456 0.03126299667358439 0
			vertex -0.03596438536545329 0.018338333129883217 0
			vertex -0.014291734646764313 0.05770593643188519 0
		endloop
	endfacet
	facet normal 0 0 1
		outer loop
			vertex -0.03596438536545329 0.018338333129883217 0
			vertex -0.031891298245397125 -0.01233378219604454 0
			vertex -0.014291734646764313 0.05770593643188519 0
		endloop
	endfacet
	facet normal 0 0 -1
		outer loop
			vertex -0.00573455109497598 -0.03269034194946298 -1.0742
			vertex -0.031891298245397125 -0.012333782196045012 -1.0742
			vertex -0.014291734646764313 0.057705936431884715 -1.0742
		endloop
	endfacet
	facet normal 0 0 -1
		outer loop
			vertex 0.0390315735349984 -0.021626911163330164 -1.0742
			vertex -0.00573455109497598 -0.03269034194946298 -1.0742
			vertex -0.014291734646764313 0.057705936431884715 -1.0742
		endloop
	endfacet
	facet normal 0 0 -1
		outer loop
			vertex 0.06188696637252282 0.02099356842041009 -1.0742
			vertex 0.0390315735349984 -0.021626911163330164 -1.0742
			vertex -0.014291734646764313 0.057705936431884715 -1.0742
		endloop
	endfacet
	facet normal 0 0 -1
		outer loop
			vertex 0.054979769183191765 0.05200585889816279 -1.0742
			vertex 0.06188696637252282 0.02099356842041009 -1.0742
			vertex -0.014291734646764313 0.057705936431884715 -1.0742
		endloop
	endfacet
	facet normal 0 0 -1
		outer loop
			vertex 0.04468942074874351 0.06836921596527094 -1.0742
			vertex 0.054979769183191765 0.05200585889816279 -1.0742
			vertex -0.014291734646764313 0.057705936431884715 -1.0742
		endloop
	endfacet
	facet normal 0 0 -1
		outer loop
			vertex 0.0362381180296273 0.09625046920776364 -1.0742
			vertex 0.04468942074874351 0.06836921596527094 -1.0742
			vertex -0.014291734646764313 0.057705936431884715 -1.0742
		endloop
	endfacet
	facet normal 0 0 -1
		outer loop
			vertex 0.021540472460779645 0.10893813705444333 -1.0742
			vertex 0.0362381180296273 0.09625046920776364 -1.0742
			vertex -0.014291734646764313 0.057705936431884715 -1.0742
		endloop
	endfacet
	facet normal 0 0 -1
		outer loop
			vertex -0.013781550469008003 0.12080381011962887 -1.0742
			vertex 0.021540472460779645 0.10893813705444333 -1.0742
			vertex -0.014291734646764313 0.057705936431884715 -1.0742
		endloop
	endfacet
	facet normal 0 0 -1
		outer loop
			vertex -0.04371382250687174 0.10757468032836912 -1.0742
			vertex -0.013781550469008003 0.12080381011962887 -1.0742
			vertex -0.014291734646764313 0.057705936431884715 -1.0742
		endloop
	endfacet
	facet normal 0 0 -1
		outer loop
			vertex -0.04865030455490642 0.08803356361389156 -1.0742
			vertex -0.04371382250687174 0.10757468032836912 -1.0742
			vertex -0.014291734646764313 0.057705936431884715 -1.0742
		endloop
	endfacet
	facet normal 0 0 -1
		outer loop
			vertex -0.06309117617508464 0.07282869434356684 -1.0742
			vertex -0.04865030455490642 0.08803356361389156 -1.0742
			vertex -0.014291734646764313 0.057705936431884715 -1.0742
		endloop
	endfacet
	facet normal 0 0 -1
		outer loop
			vertex -0.06448647303482584 0.05575248253345484 -1.0742
			vertex -0.06309117617508464 0.07282869434356684 -1.0742
			vertex -0.014291734646764313 0.057705936431884715 -1.0742
		endloop
	endfacet
	facet normal 0 0 -1
		outer loop
			vertex -0.06162038607498698 0.0430190525054931 -1.0742
			vertex -0.06448647303482584 0.05575248253345484 -1.0742
			vertex -0.014291734646764313 0.057705936431884715 -1.0742
		endloop
	endfacet
	facet normal 0 0 -1
		outer loop
			vertex -0.04699405016800456 0.03126299667358392 -1.0742
			vertex -0.06162038607498698 0.0430190525054931 -1.0742
			vertex -0.014291734646764313 0.057705936431884715 -1.0742
		endloop
	endfacet
	facet normal 0 0 -1
		outer loop
			vertex -0.03596438536545329 0.018338333129882745 -1.0742
			vertex -0.04699405016800456 0.03126299667358392 -1.0742
			vertex -0.014291734646764313 0.057705936431884715 -1.0742
		endloop
	endfacet
	facet normal 0 0 -1
		outer loop
			vertex -0.031891298245397125 -0.012333782196045012 -1.0742
			vertex -0.03596438536545329 0.018338333129882745 -1.0742
			vertex -0.014291734646764313 0.057705936431884715 -1.0742
		endloop
	endfacet
	facet normal -0.2509446478009806 -0.9680014378811851 3.264862563968749e-16
		outer loop
			vertex 0.028489419604334328 0.01738321588549172 1.9141566909297586e-7
			vertex 0.028489419604334328 0.017383215885491025 -2.0573174275294326
			vertex 0.09142962184050986 0.0010666007808157187 -2.0564757728321825
		endloop
	endfacet
	facet normal -0.2509446478009806 -0.9680014378811851 3.264862412085098e-16
		outer loop
			vertex 0.028489419604334328 0.01738321588549172 1.9141566909297586e-7
			vertex 0.09142962184050986 0.0010666007808157187 -2.0564757728321825
			vertex 0.09142962184050986 0.0010666007808164126 0.0008419418207537002
		endloop
	endfacet
	facet normal 0.1882173683123928 -0.9821273961485635 3.3125062567913567e-16
		outer loop
			vertex 0.09142962184050986 0.0010666007808164126 0.0008419418207537002
			vertex 0.09142962184050986 0.0010666007808157187 -2.0564757728321825
			vertex 0.14219724240401696 0.010795835476250295 -2.0564757728321825
		endloop
	endfacet
	facet normal 0.18821736831239277 -0.9821273961485635 3.3125062567913567e-16
		outer loop
			vertex 0.09142962184050986 0.0010666007808164126 0.0008419418207537002
			vertex 0.14219724240401696 0.010795835476250295 -2.0564757728321825
			vertex 0.14219724240401696 0.010795835476250988 0.0008419418207537002
		endloop
	endfacet
	facet normal 0.9484844948038181 -0.3168235520234347 1.0685782745619874e-16
		outer loop
			vertex 0.14219724240401696 0.010795835476250988 0.0008419418207537002
			vertex 0.14219724240401696 0.010795835476250295 -2.0564757728321825
			vertex 0.16011972203353356 0.06445091865572421 -2.0573174275294326
		endloop
	endfacet
	facet normal 0.948484494803818 -0.3168235520234348 1.0258351913020666e-16
		outer loop
			vertex 0.14219724240401696 0.010795835476250988 0.0008419418207537002
			vertex 0.16011972203353356 0.06445091865572421 -2.0573174275294326
			vertex 0.16011972203353356 0.06445091865572487 1.9141566909297586e-7
		endloop
	endfacet
	facet normal 0.9809709656607749 0.19415448624888146 -6.286480385414766e-17
		outer loop
			vertex 0.16011972203353356 0.06445091865572487 1.9141566909297586e-7
			vertex 0.16011972203353356 0.06445091865572421 -2.0573174275294326
			vertex 0.1514225803861947 0.10839346979174105 -2.0573174275294326
		endloop
	endfacet
	facet normal 0.9809709656607749 0.1941544862488813 -6.548417068140376e-17
		outer loop
			vertex 0.16011972203353356 0.06445091865572487 1.9141566909297586e-7
			vertex 0.1514225803861947 0.10839346979174105 -2.0573174275294326
			vertex 0.1514225803861947 0.10839346979174175 1.9141566909297586e-7
		endloop
	endfacet
	facet normal 0.9873604713458738 -0.1584906925458216 5.345553307885138e-17
		outer loop
			vertex 0.1514225803861947 0.10839346979174175 1.9141566909297586e-7
			vertex 0.1514225803861947 0.10839346979174105 -2.0573174275294326
			vertex 0.15855546727279138 0.15282971046480626 -2.0573174275294326
		endloop
	endfacet
	facet normal 0.9873604713458738 -0.1584906925458216 5.345553307885138e-17
		outer loop
			vertex 0.1514225803861947 0.10839346979174175 1.9141566909297586e-7
			vertex 0.15855546727279138 0.15282971046480626 -2.0573174275294326
			vertex 0.15855546727279138 0.15282971046480695 1.9141566909297586e-7
		endloop
	endfacet
	facet normal 0.9120925523771672 0.4099843605530637 -1.3827898784037338e-16
		outer loop
			vertex 0.15855546727279138 0.15282971046480695 1.9141566909297586e-7
			vertex 0.15855546727279138 0.15282971046480626 -2.0573174275294326
			vertex 0.12416849198440026 0.22933044336351843 -2.0573174275294326
		endloop
	endfacet
	facet normal 0.9120925523771672 0.4099843605530636 -1.438101473539883e-16
		outer loop
			vertex 0.15855546727279138 0.15282971046480695 1.9141566909297586e-7
			vertex 0.12416849198440026 0.22933044336351843 -2.0573174275294326
			vertex 0.12416849198440026 0.22933044336351915 1.9141566909297586e-7
		endloop
	endfacet
	facet normal 0.38056900407148 0.9247525253493727 -3.2437529265034867e-16
		outer loop
			vertex 0.12416849198440026 0.22933044336351915 1.9141566909297586e-7
			vertex 0.12416849198440026 0.22933044336351843 -2.0573174275294326
			vertex 0.09822369256118249 0.24000766370806192 -2.0573174275294326
		endloop
	endfacet
	facet normal 0.38056900407147826 0.9247525253493735 -2.9942334706186057e-16
		outer loop
			vertex 0.12416849198440026 0.22933044336351915 1.9141566909297586e-7
			vertex 0.09822369256118249 0.24000766370806192 -2.0573174275294326
			vertex 0.09822369256118249 0.2400076637080626 1.9141566909297586e-7
		endloop
	endfacet
	facet normal -0.19576309457750937 0.9806512177127182 -3.175226472584084e-16
		outer loop
			vertex 0.09822369256118249 0.2400076637080626 1.9141566909297586e-7
			vertex 0.09822369256118249 0.24000766370806192 -2.0573174275294326
			vertex 0.04202956517288396 0.22878987691912148 -2.0573174275294326
		endloop
	endfacet
	facet normal -0.19576309457750893 0.9806512177127185 -3.3075275756084213e-16
		outer loop
			vertex 0.09822369256118249 0.2400076637080626 1.9141566909297586e-7
			vertex 0.04202956517288396 0.22878987691912148 -2.0573174275294326
			vertex 0.04202956517288396 0.22878987691912217 1.9141566909297586e-7
		endloop
	endfacet
	facet normal -0.4372322855348015 0.8993486134341976 -3.0333112173733326e-16
		outer loop
			vertex 0.04202956517288396 0.22878987691912217 1.9141566909297586e-7
			vertex 0.04202956517288396 0.22878987691912148 -2.0573174275294326
			vertex -0.0055899585237174304 0.2056389064601371 -2.0573174275294326
		endloop
	endfacet
	facet normal -0.43723228553480187 0.8993486134341975 -2.9119787686783987e-16
		outer loop
			vertex 0.04202956517288396 0.22878987691912217 1.9141566909297586e-7
			vertex -0.0055899585237174304 0.2056389064601371 -2.0573174275294326
			vertex -0.0055899585237174304 0.20563890646013777 1.9141566909297586e-7
		endloop
	endfacet
	facet normal -0.9746286264998164 0.22382814927323536 -7.247276626439472e-17
		outer loop
			vertex -0.0055899585237174304 0.20563890646013777 1.9141566909297586e-7
			vertex -0.0055899585237174304 0.2056389064601371 -2.0573174275294326
			vertex -0.013443452691045316 0.17144195554766148 -2.0573174275294326
		endloop
	endfacet
	facet normal -0.9746286264998162 0.22382814927323547 -7.549246485874455e-17
		outer loop
			vertex -0.0055899585237174304 0.20563890646013777 1.9141566909297586e-7
			vertex -0.013443452691045316 0.17144195554766148 -2.0573174275294326
			vertex -0.013443452691045316 0.17144195554766217 1.9141566909297586e-7
		endloop
	endfacet
	facet normal -0.7569070649932605 0.65352252827526 -2.2041922189148604e-16
		outer loop
			vertex -0.013443452691045316 0.17144195554766217 1.9141566909297586e-7
			vertex -0.013443452691045316 0.17144195554766148 -2.0573174275294326
			vertex -0.03641756663223795 0.14483343265566317 -2.0573174275294326
		endloop
	endfacet
	facet normal -0.7569070649932605 0.65352252827526 -2.2041922189148604e-16
		outer loop
			vertex -0.013443452691045316 0.17144195554766217 1.9141566909297586e-7
			vertex -0.03641756663223795 0.14483343265566317 -2.0573174275294326
			vertex -0.03641756663223795 0.14483343265566387 1.9141566909297586e-7
		endloop
	endfacet
	facet normal -0.997252456151112 0.07407792316591 -2.4984904845835436e-17
		outer loop
			vertex -0.03641756663223795 0.14483343265566387 1.9141566909297586e-7
			vertex -0.03641756663223795 0.14483343265566317 -2.0573174275294326
			vertex -0.03863736376663735 0.11495006052765339 -2.0573174275294326
		endloop
	endfacet
	facet normal -0.997252456151112 0.07407792316590996 -2.4485206748918717e-17
		outer loop
			vertex -0.03641756663223795 0.14483343265566387 1.9141566909297586e-7
			vertex -0.03863736376663735 0.11495006052765339 -2.0573174275294326
			vertex -0.03863736376663735 0.11495006052765407 1.9141566909297586e-7
		endloop
	endfacet
	facet normal -0.979700241715864 -0.20046804329338314 6.626132694887059e-17
		outer loop
			vertex -0.03863736376663735 0.11495006052765407 1.9141566909297586e-7
			vertex -0.03863736376663735 0.11495006052765339 -2.0573174275294326
			vertex -0.034077673291173484 0.09266655943903414 -2.0573174275294326
		endloop
	endfacet
	facet normal -0.9797002417158641 -0.2004680432933832 6.62613269488706e-17
		outer loop
			vertex -0.03863736376663735 0.11495006052765407 1.9141566909297586e-7
			vertex -0.034077673291173484 0.09266655943903414 -2.0573174275294326
			vertex -0.034077673291173484 0.09266655943903482 1.9141566909297586e-7
		endloop
	endfacet
	facet normal -0.9497659000735242 -0.3129612357106365 1.0344405233404855e-16
		outer loop
			vertex -0.034077673291173484 0.09266655943903482 1.9141566909297586e-7
			vertex -0.034077673291173484 0.09266655943903414 -2.0573174275294326
			vertex -0.023402849530187165 0.060270906429619464 -2.0573174275294326
		endloop
	endfacet
	facet normal -0.9497659000735242 -0.3129612357106365 1.0344405233404855e-16
		outer loop
			vertex -0.034077673291173484 0.09266655943903482 1.9141566909297586e-7
			vertex -0.023402849530187165 0.060270906429619464 -2.0573174275294326
			vertex -0.023402849530187165 0.060270906429620144 1.9141566909297586e-7
		endloop
	endfacet
	facet normal -0.7901083153975936 -0.6129672502993754 2.0260597506604044e-16
		outer loop
			vertex -0.023402849530187165 0.060270906429620144 1.9141566909297586e-7
			vertex -0.023402849530187165 0.060270906429619464 -2.0573174275294326
			vertex -0.005855655526128324 0.03765275857958283 -2.0573174275294326
		endloop
	endfacet
	facet normal -0.7901083153975933 -0.6129672502993756 2.067407908837148e-16
		outer loop
			vertex -0.023402849530187165 0.060270906429620144 1.9141566909297586e-7
			vertex -0.005855655526128324 0.03765275857958283 -2.0573174275294326
			vertex -0.005855655526128324 0.03765275857958352 1.9141566909297586e-7
		endloop
	endfacet
	facet normal -0.5082594990698532 -0.8612039721258037 2.904657471056194e-16
		outer loop
			vertex -0.005855655526128324 0.03765275857958352 1.9141566909297586e-7
			vertex -0.005855655526128324 0.03765275857958283 -2.0573174275294326
			vertex 0.028489419604334328 0.017383215885491025 -2.0573174275294326
		endloop
	endfacet
	facet normal -0.5082594990698532 -0.8612039721258037 2.904657471056194e-16
		outer loop
			vertex -0.005855655526128324 0.03765275857958352 1.9141566909297586e-7
			vertex 0.028489419604334328 0.017383215885491025 -2.0573174275294326
			vertex 0.028489419604334328 0.01738321588549172 1.9141566909297586e-7
		endloop
	endfacet
	facet normal -0.012949541581184876 0.0016321974752329573 0.9999148190242203
		outer loop
			vertex 0.028489419604334328 0.01738321588549172 1.9141566909297586e-7
			vertex 0.09142962184050986 0.0010666007808164126 0.0008419418207537002
			vertex 0.04121790852645347 0.11836860464129009 1.9141566909297586e-7
		endloop
	endfacet
	facet normal -0.001270922732531505 0.006631736726525032 0.9999772021518282
		outer loop
			vertex 0.09142962184050986 0.0010666007808164126 0.0008419418207537002
			vertex 0.14219724240401696 0.010795835476250988 0.0008419418207537002
			vertex 0.04121790852645347 0.11836860464129009 1.9141566909297586e-7
		endloop
	endfacet
	facet normal 0.006177511560007568 0.0136229386335774 0.9998881206884658
		outer loop
			vertex 0.14219724240401696 0.010795835476250988 0.0008419418207537002
			vertex 0.16011972203353356 0.06445091865572487 1.9141566909297586e-7
			vertex 0.04121790852645347 0.11836860464129009 1.9141566909297586e-7
		endloop
	endfacet
	facet normal 0 0 1
		outer loop
			vertex 0.16011972203353356 0.06445091865572487 1.9141566909297586e-7
			vertex 0.1514225803861947 0.10839346979174175 1.9141566909297586e-7
			vertex 0.04121790852645347 0.11836860464129009 1.9141566909297586e-7
		endloop
	endfacet
	facet normal 0 0 1
		outer loop
			vertex 0.1514225803861947 0.10839346979174175 1.9141566909297586e-7
			vertex 0.15855546727279138 0.15282971046480695 1.9141566909297586e-7
			vertex 0.04121790852645347 0.11836860464129009 1.9141566909297586e-7
		endloop
	endfacet
	facet normal 0 0 1
		outer loop
			vertex 0.15855546727279138 0.15282971046480695 1.9141566909297586e-7
			vertex 0.12416849198440026 0.22933044336351915 1.9141566909297586e-7
			vertex 0.04121790852645347 0.11836860464129009 1.9141566909297586e-7
		endloop
	endfacet
	facet normal 0 0 1
		outer loop
			vertex 0.12416849198440026 0.22933044336351915 1.9141566909297586e-7
			vertex 0.09822369256118249 0.2400076637080626 1.9141566909297586e-7
			vertex 0.04121790852645347 0.11836860464129009 1.9141566909297586e-7
		endloop
	endfacet
	facet normal 0 0 1
		outer loop
			vertex 0.09822369256118249 0.2400076637080626 1.9141566909297586e-7
			vertex 0.04202956517288396 0.22878987691912217 1.9141566909297586e-7
			vertex 0.04121790852645347 0.11836860464129009 1.9141566909297586e-7
		endloop
	endfacet
	facet normal 0 0 1
		outer loop
			vertex 0.04202956517288396 0.22878987691912217 1.9141566909297586e-7
			vertex -0.0055899585237174304 0.20563890646013777 1.9141566909297586e-7
			vertex 0.04121790852645347 0.11836860464129009 1.9141566909297586e-7
		endloop
	endfacet
	facet normal 0 0 1
		outer loop
			vertex -0.0055899585237174304 0.20563890646013777 1.9141566909297586e-7
			vertex -0.013443452691045316 0.17144195554766217 1.9141566909297586e-7
			vertex 0.04121790852645347 0.11836860464129009 1.9141566909297586e-7
		endloop
	endfacet
	facet normal 0 0 1
		outer loop
			vertex -0.013443452691045316 0.17144195554766217 1.9141566909297586e-7
			vertex -0.03641756663223795 0.14483343265566387 1.9141566909297586e-7
			vertex 0.04121790852645347 0.11836860464129009 1.9141566909297586e-7
		endloop
	endfacet
	facet normal 0 0 1
		outer loop
			vertex -0.03641756663223795 0.14483343265566387 1.9141566909297586e-7
			vertex -0.03863736376663735 0.11495006052765407 1.9141566909297586e-7
			vertex 0.04121790852645347 0.11836860464129009 1.9141566909297586e-7
		endloop
	endfacet
	facet normal 0 0 1
		outer loop
			vertex -0.03863736376663735 0.11495006052765407 1.9141566909297586e-7
			vertex -0.034077673291173484 0.09266655943903482 1.9141566909297586e-7
			vertex 0.04121790852645347 0.11836860464129009 1.9141566909297586e-7
		endloop
	endfacet
	facet normal 0 0 1
		outer loop
			vertex -0.034077673291173484 0.09266655943903482 1.9141566909297586e-7
			vertex -0.023402849530187165 0.060270906429620144 1.9141566909297586e-7
			vertex 0.04121790852645347 0.11836860464129009 1.9141566909297586e-7
		endloop
	endfacet
	facet normal 0 0 1
		outer loop
			vertex -0.023402849530187165 0.060270906429620144 1.9141566909297586e-7
			vertex -0.005855655526128324 0.03765275857958352 1.9141566909297586e-7
			vertex 0.04121790852645347 0.11836860464129009 1.9141566909297586e-7
		endloop
	endfacet
	facet normal 0 0 1
		outer loop
			vertex -0.005855655526128324 0.03765275857958352 1.9141566909297586e-7
			vertex 0.028489419604334328 0.01738321588549172 1.9141566909297586e-7
			vertex 0.04121790852645347 0.11836860464129009 1.9141566909297586e-7
		endloop
	endfacet
	facet normal 0.012948069456575622 -0.001632011924412075 -0.9999148383909633
		outer loop
			vertex 0.09142962184050986 0.0010666007808157187 -2.0564757728321825
			vertex 0.028489419604334328 0.017383215885491025 -2.0573174275294326
			vertex 0.04121790852645347 0.1183686046412894 -2.0573174275294326
		endloop
	endfacet
	facet normal 0.0012707782339761782 -0.00663098272602464 -0.9999772073356309
		outer loop
			vertex 0.14219724240401696 0.010795835476250295 -2.0564757728321825
			vertex 0.09142962184050986 0.0010666007808157187 -2.0564757728321825
			vertex 0.04121790852645347 0.1183686046412894 -2.0573174275294326
		endloop
	endfacet
	facet normal -0.006176809328103102 -0.013621390038799698 -0.9998881461243229
		outer loop
			vertex 0.16011972203353356 0.06445091865572421 -2.0573174275294326
			vertex 0.14219724240401696 0.010795835476250295 -2.0564757728321825
			vertex 0.04121790852645347 0.1183686046412894 -2.0573174275294326
		endloop
	endfacet
	facet normal 0 0 -1
		outer loop
			vertex 0.1514225803861947 0.10839346979174105 -2.0573174275294326
			vertex 0.16011972203353356 0.06445091865572421 -2.0573174275294326
			vertex 0.04121790852645347 0.1183686046412894 -2.0573174275294326
		endloop
	endfacet
	facet normal 0 0 -1
		outer loop
			vertex 0.15855546727279138 0.15282971046480626 -2.0573174275294326
			vertex 0.1514225803861947 0.10839346979174105 -2.0573174275294326
			vertex 0.04121790852645347 0.1183686046412894 -2.0573174275294326
		endloop
	endfacet
	facet normal 0 0 -1
		outer loop
			vertex 0.12416849198440026 0.22933044336351843 -2.0573174275294326
			vertex 0.15855546727279138 0.15282971046480626 -2.0573174275294326
			vertex 0.04121790852645347 0.1183686046412894 -2.0573174275294326
		endloop
	endfacet
	facet normal 0 0 -1
		outer loop
			vertex 0.09822369256118249 0.24000766370806192 -2.0573174275294326
			vertex 0.12416849198440026 0.22933044336351843 -2.0573174275294326
			vertex 0.04121790852645347 0.1183686046412894 -2.0573174275294326
		endloop
	endfacet
	facet normal 0 0 -1
		outer loop
			vertex 0.04202956517288396 0.22878987691912148 -2.0573174275294326
			vertex 0.09822369256118249 0.24000766370806192 -2.0573174275294326
			vertex 0.04121790852645347 0.1183686046412894 -2.0573174275294326
		endloop
	endfacet
	facet normal 0 0 -1
		outer loop
			vertex -0.0055899585237174304 0.2056389064601371 -2.0573174275294326
			vertex 0.04202956517288396 0.22878987691912148 -2.0573174275294326
			vertex 0.04121790852645347 0.1183686046412894 -2.0573174275294326
		endloop
	endfacet
	facet normal 0 0 -1
		outer loop
			vertex -0.013443452691045316 0.17144195554766148 -2.0573174275294326
			vertex -0.0055899585237174304 0.2056389064601371 -2.0573174275294326
			vertex 0.04121790852645347 0.1183686046412894 -2.0573174275294326
		endloop
	endfacet
	facet normal 0 0 -1
		outer loop
			vertex -0.03641756663223795 0.14483343265566317 -2.0573174275294326
			vertex -0.013443452691045316 0.17144195554766148 -2.0573174275294326
			vertex 0.04121790852645347 0.1183686046412894 -2.0573174275294326
		endloop
	endfacet
	facet normal 0 0 -1
		outer loop
			vertex -0.03863736376663735 0.11495006052765339 -2.0573174275294326
			vertex -0.03641756663223795 0.14483343265566317 -2.0573174275294326
			vertex 0.04121790852645347 0.1183686046412894 -2.0573174275294326
		endloop
	endfacet
	facet normal 0 0 -1
		outer loop
			vertex -0.034077673291173484 0.09266655943903414 -2.0573174275294326
			vertex -0.03863736376663735 0.11495006052765339 -2.0573174275294326
			vertex 0.04121790852645347 0.1183686046412894 -2.0573174275294326
		endloop
	endfacet
	facet normal 0 0 -1
		outer loop
			vertex -0.023402849530187165 0.060270906429619464 -2.0573174275294326
			vertex -0.034077673291173484 0.09266655943903414 -2.0573174275294326
			vertex 0.04121790852645347 0.1183686046412894 -2.0573174275294326
		endloop
	endfacet
	facet normal 0 0 -1
		outer loop
			vertex -0.005855655526128324 0.03765275857958283 -2.0573174275294326
			vertex -0.023402849530187165 0.060270906429619464 -2.0573174275294326
			vertex 0.04121790852645347 0.1183686046412894 -2.0573174275294326
		endloop
	endfacet
	facet normal 0 0 -1
		outer loop
			vertex 0.028489419604334328 0.017383215885491025 -2.0573174275294326
			vertex -0.005855655526128324 0.03765275857958283 -2.0573174275294326
			vertex 0.04121790852645347 0.1183686046412894 -2.0573174275294326
		endloop
	endfacet
	facet normal 0.4284980140552906 -0.9035427228142962 3.466483044576595e-16
		outer loop
			vertex 0.14895715015477146 0.07220385854754005 -0.1337121206337091
			vertex 0.14895715015477146 0.07220385854753969 -1.0742000000000003
			vertex 0.16856030796116794 0.08150050161394595 -1.0742000000000003
		endloop
	endfacet
	facet normal 0.4284980140552907 -0.9035427228142962 3.466483044576595e-16
		outer loop
			vertex 0.14895715015477146 0.07220385854754005 -0.1337121206337091
			vertex 0.16856030796116794 0.08150050161394595 -1.0742000000000003
			vertex 0.16856030796116794 0.08150050161394631 -0.1337121206337091
		endloop
	endfacet
	facet normal 0.7237748866594456 -0.6900361682122952 2.647355367770638e-16
		outer loop
			vertex 0.16856030796116794 0.08150050161394631 -0.1337121206337091
			vertex 0.16856030796116794 0.08150050161394595 -1.0742000000000003
			vertex 0.17478617313450778 0.08803077505144595 -1.0742000000000003
		endloop
	endfacet
	facet normal 0.7237748866594463 -0.6900361682122944 2.7491767280695057e-16
		outer loop
			vertex 0.16856030796116794 0.08150050161394631 -0.1337121206337091
			vertex 0.17478617313450778 0.08803077505144595 -1.0742000000000003
			vertex 0.17478617313450778 0.08803077505144632 -0.1337121206337091
		endloop
	endfacet
	facet normal 0.37299479438705163 -0.9278334351380969 3.6965860702850556e-16
		outer loop
			vertex 0.17478617313450778 0.08803077505144632 -0.1337121206337091
			vertex 0.17478617313450778 0.08803077505144595 -1.0742000000000003
			vertex 0.20120192173069917 0.09865006979021548 -1.0742000000000003
		endloop
	endfacet
	facet normal 0.37299479438705124 -0.9278334351380971 3.5596754750893133e-16
		outer loop
			vertex 0.17478617313450778 0.08803077505144632 -0.1337121206337091
			vertex 0.20120192173069917 0.09865006979021548 -1.0742000000000003
			vertex 0.20120192173069917 0.09865006979021584 -0.1337121206337091
		endloop
	endfacet
	facet normal 0.9676350979947396 -0.2523535558075435 9.681659763920816e-17
		outer loop
			vertex 0.20120192173069917 0.09865006979021584 -0.1337121206337091
			vertex 0.20120192173069917 0.09865006979021548 -1.0742000000000003
			vertex 0.20515516269749604 0.11380854337725163 -1.0742000000000003
		endloop
	endfacet
	facet normal 0.9676350979947395 -0.25235355580754343 9.681659763920814e-17
		outer loop
			vertex 0.20120192173069917 0.09865006979021584 -0.1337121206337091
			vertex 0.20515516269749604 0.11380854337725163 -1.0742000000000003
			vertex 0.20515516269749604 0.11380854337725199 -0.1337121206337091
		endloop
	endfacet
	facet normal 0.8681430713848066 0.4963140211665945 -1.904131476816989e-16
		outer loop
			vertex 0.20515516269749604 0.11380854337725199 -0.1337121206337091
			vertex 0.20515516269749604 0.11380854337725163 -1.0742000000000003
			vertex 0.19767126987523043 0.12689922674211981 -1.0742000000000003
		endloop
	endfacet
	facet normal 0.8681430713848066 0.4963140211665945 -1.904131476816989e-16
		outer loop
			vertex 0.20515516269749604 0.11380854337725199 -0.1337121206337091
			vertex 0.19767126987523043 0.12689922674211981 -1.0742000000000003
			vertex 0.19767126987523043 0.12689922674212017 -0.1337121206337091
		endloop
	endfacet
	facet normal 0.9640668800522665 0.26565965216097276 -1.0192154245631616e-16
		outer loop
			vertex 0.19767126987523043 0.12689922674212017 -0.1337121206337091
			vertex 0.19767126987523043 0.12689922674211981 -1.0742000000000003
			vertex 0.19152487094944917 0.14920423086199286 -1.0742000000000003
		endloop
	endfacet
	facet normal 0.9640668800522665 0.26565965216097276 -1.0192154245631616e-16
		outer loop
			vertex 0.19767126987523043 0.12689922674212017 -0.1337121206337091
			vertex 0.19152487094944917 0.14920423086199286 -1.0742000000000003
			vertex 0.19152487094944917 0.14920423086199322 -0.1337121206337091
		endloop
	endfacet
	facet normal 0.6885849943383119 0.7251556423086751 -2.782092838855964e-16
		outer loop
			vertex 0.19152487094944917 0.14920423086199322 -0.1337121206337091
			vertex 0.19152487094944917 0.14920423086199286 -1.0742000000000003
			vertex 0.18083567417210544 0.1593543559840632 -1.0742000000000003
		endloop
	endfacet
	facet normal 0.6885849943383119 0.725155642308675 -2.7820928388559633e-16
		outer loop
			vertex 0.19152487094944917 0.14920423086199322 -0.1337121206337091
			vertex 0.18083567417210544 0.1593543559840632 -1.0742000000000003
			vertex 0.18083567417210544 0.15935435598406356 -0.1337121206337091
		endloop
	endfacet
	facet normal 0.460024602341541 0.8879061691645729 -3.4064926902372365e-16
		outer loop
			vertex 0.18083567417210544 0.15935435598406356 -0.1337121206337091
			vertex 0.18083567417210544 0.1593543559840632 -1.0742000000000003
			vertex 0.13929065006321872 0.18087885244402416 -1.0742000000000003
		endloop
	endfacet
	facet normal 0.4600246023415405 0.8879061691645731 -3.1444547909882195e-16
		outer loop
			vertex 0.18083567417210544 0.15935435598406356 -0.1337121206337091
			vertex 0.13929065006321872 0.18087885244402416 -1.0742000000000003
			vertex 0.13929065006321872 0.1808788524440245 -0.1337121206337091
		endloop
	endfacet
	facet normal -0.9674811598562626 0.2529430871227383 -8.95779452573016e-17
		outer loop
			vertex 0.13929065006321872 0.1808788524440245 -0.1337121206337091
			vertex 0.13929065006321872 0.18087885244402416 -1.0742000000000003
			vertex 0.13337800510472264 0.15826359670671944 -1.0742000000000003
		endloop
	endfacet
	facet normal -0.9674811598562624 0.2529430871227385 -9.704277402874347e-17
		outer loop
			vertex 0.13929065006321872 0.1808788524440245 -0.1337121206337091
			vertex 0.13337800510472264 0.15826359670671944 -1.0742000000000003
			vertex 0.13337800510472264 0.1582635967067198 -0.1337121206337091
		endloop
	endfacet
	facet normal -0.9746286217338676 0.22382817002589697 -8.587270271810357e-17
		outer loop
			vertex 0.13337800510472264 0.1582635967067198 -0.1337121206337091
			vertex 0.13337800510472264 0.15826359670671944 -1.0742000000000003
			vertex 0.12978783634251562 0.1426307063868952 -1.0742000000000003
		endloop
	endfacet
	facet normal -0.9746286217338676 0.22382817002589697 -8.587270271810357e-17
		outer loop
			vertex 0.13337800510472264 0.1582635967067198 -0.1337121206337091
			vertex 0.12978783634251562 0.1426307063868952 -1.0742000000000003
			vertex 0.12978783634251562 0.14263070638689557 -0.1337121206337091
		endloop
	endfacet
	facet normal -0.756907044717317 0.6535225517587728 -2.5072692056707823e-16
		outer loop
			vertex 0.12978783634251562 0.14263070638689557 -0.1337121206337091
			vertex 0.12978783634251562 0.1426307063868952 -1.0742000000000003
			vertex 0.11928538425511326 0.13046681097063542 -1.0742000000000003
		endloop
	endfacet
	facet normal -0.756907044717317 0.6535225517587728 -2.5072692056707823e-16
		outer loop
			vertex 0.12978783634251562 0.14263070638689557 -0.1337121206337091
			vertex 0.11928538425511326 0.13046681097063542 -1.0742000000000003
			vertex 0.11928538425511326 0.13046681097063578 -0.1337121206337091
		endloop
	endfacet
	facet normal -0.9972524558454854 0.0740779272803205 -2.8420336129184525e-17
		outer loop
			vertex 0.11928538425511326 0.13046681097063578 -0.1337121206337091
			vertex 0.11928538425511326 0.13046681097063542 -1.0742000000000003
			vertex 0.11827061985081638 0.11680584161791326 -1.0742000000000003
		endloop
	endfacet
	facet normal -0.9972524558454853 0.0740779272803205 -2.8420336129184525e-17
		outer loop
			vertex 0.11928538425511326 0.13046681097063578 -0.1337121206337091
			vertex 0.11827061985081638 0.11680584161791326 -1.0742000000000003
			vertex 0.11827061985081638 0.11680584161791362 -0.1337121206337091
		endloop
	endfacet
	facet normal -0.9797002358183591 -0.2004680721148675 7.691049414914849e-17
		outer loop
			vertex 0.11827061985081638 0.11680584161791362 -0.1337121206337091
			vertex 0.11827061985081638 0.11680584161791326 -1.0742000000000003
			vertex 0.12035504978245701 0.10661909978899478 -1.0742000000000003
		endloop
	endfacet
	facet normal -0.9797002358183591 -0.2004680721148675 7.691049414914849e-17
		outer loop
			vertex 0.11827061985081638 0.11680584161791362 -0.1337121206337091
			vertex 0.12035504978245701 0.10661909978899478 -1.0742000000000003
			vertex 0.12035504978245701 0.10661909978899514 -0.1337121206337091
		endloop
	endfacet
	facet normal -0.9497659096582345 -0.31296120662322713 1.2006900049956156e-16
		outer loop
			vertex 0.12035504978245701 0.10661909978899514 -0.1337121206337091
			vertex 0.12035504978245701 0.10661909978899478 -1.0742000000000003
			vertex 0.12523496921605076 0.09180965688738345 -1.0742000000000003
		endloop
	endfacet
	facet normal -0.9497659096582345 -0.3129612066232274 1.24687038980314e-16
		outer loop
			vertex 0.12035504978245701 0.10661909978899514 -0.1337121206337091
			vertex 0.12523496921605076 0.09180965688738345 -1.0742000000000003
			vertex 0.12523496921605076 0.09180965688738382 -0.1337121206337091
		endloop
	endfacet
	facet normal -0.7901083153975934 -0.6129672502993754 2.4421260467514343e-16
		outer loop
			vertex 0.12523496921605076 0.09180965688738382 -0.1337121206337091
			vertex 0.12523496921605076 0.09180965688738345 -1.0742000000000003
			vertex 0.13325654361790623 0.08146993215593813 -1.0742000000000003
		endloop
	endfacet
	facet normal -0.790108315397594 -0.6129672502993749 2.3516769339087867e-16
		outer loop
			vertex 0.12523496921605076 0.09180965688738382 -0.1337121206337091
			vertex 0.13325654361790623 0.08146993215593813 -1.0742000000000003
			vertex 0.13325654361790623 0.0814699321559385 -0.1337121206337091
		endloop
	endfacet
	facet normal -0.5082593566006973 -0.8612040562072645 3.3040488107352567e-16
		outer loop
			vertex 0.13325654361790623 0.0814699321559385 -0.1337121206337091
			vertex 0.13325654361790623 0.08146993215593813 -1.0742000000000003
			vertex 0.14895715015477146 0.07220385854753969 -1.0742000000000003
		endloop
	endfacet
	facet normal -0.5082593566006973 -0.8612040562072645 3.3040488107352567e-16
		outer loop
			vertex 0.13325654361790623 0.0814699321559385 -0.1337121206337091
			vertex 0.14895715015477146 0.07220385854753969 -1.0742000000000003
			vertex 0.14895715015477146 0.07220385854754005 -0.1337121206337091
		endloop
	endfacet
	facet normal 0 0 1
		outer loop
			vertex 0.14895715015477146 0.07220385854754005 -0.1337121206337091
			vertex 0.16856030796116794 0.08150050161394631 -0.1337121206337091
			vertex 0.15477588718480076 0.11836860464129008 -0.1337121206337091
		endloop
	endfacet
	facet normal 0 0 1
		outer loop
			vertex 0.16856030796116794 0.08150050161394631 -0.1337121206337091
			vertex 0.17478617313450778 0.08803077505144632 -0.1337121206337091
			vertex 0.15477588718480076 0.11836860464129008 -0.1337121206337091
		endloop
	endfacet
	facet normal 0 0 1
		outer loop
			vertex 0.17478617313450778 0.08803077505144632 -0.1337121206337091
			vertex 0.20120192173069917 0.09865006979021584 -0.1337121206337091
			vertex 0.15477588718480076 0.11836860464129008 -0.1337121206337091
		endloop
	endfacet
	facet normal 0 0 1
		outer loop
			vertex 0.20120192173069917 0.09865006979021584 -0.1337121206337091
			vertex 0.20515516269749604 0.11380854337725199 -0.1337121206337091
			vertex 0.15477588718480076 0.11836860464129008 -0.1337121206337091
		endloop
	endfacet
	facet normal 0 0 1
		outer loop
			vertex 0.20515516269749604 0.11380854337725199 -0.1337121206337091
			vertex 0.19767126987523043 0.12689922674212017 -0.1337121206337091
			vertex 0.15477588718480076 0.11836860464129008 -0.1337121206337091
		endloop
	endfacet
	facet normal 0 0 1
		outer loop
			vertex 0.19767126987523043 0.12689922674212017 -0.1337121206337091
			vertex 0.19152487094944917 0.14920423086199322 -0.1337121206337091
			vertex 0.15477588718480076 0.11836860464129008 -0.1337121206337091
		endloop
	endfacet
	facet normal 0 0 1
		outer loop
			vertex 0.19152487094944917 0.14920423086199322 -0.1337121206337091
			vertex 0.18083567417210544 0.15935435598406356 -0.1337121206337091
			vertex 0.15477588718480076 0.11836860464129008 -0.1337121206337091
		endloop
	endfacet
	facet normal 0 0 1
		outer loop
			vertex 0.18083567417210544 0.15935435598406356 -0.1337121206337091
			vertex 0.13929065006321872 0.1808788524440245 -0.1337121206337091
			vertex 0.15477588718480076 0.11836860464129008 -0.1337121206337091
		endloop
	endfacet
	facet normal 0 0 1
		outer loop
			vertex 0.13929065006321872 0.1808788524440245 -0.1337121206337091
			vertex 0.13337800510472264 0.1582635967067198 -0.1337121206337091
			vertex 0.15477588718480076 0.11836860464129008 -0.1337121206337091
		endloop
	endfacet
	facet normal 0 0 1
		outer loop
			vertex 0.13337800510472264 0.1582635967067198 -0.1337121206337091
			vertex 0.12978783634251562 0.14263070638689557 -0.1337121206337091
			vertex 0.15477588718480076 0.11836860464129008 -0.1337121206337091
		endloop
	endfacet
	facet normal 0 0 1
		outer loop
			vertex 0.12978783634251562 0.14263070638689557 -0.1337121206337091
			vertex 0.11928538425511326 0.13046681097063578 -0.1337121206337091
			vertex 0.15477588718480076 0.11836860464129008 -0.1337121206337091
		endloop
	endfacet
	facet normal 0 0 1
		outer loop
			vertex 0.11928538425511326 0.13046681097063578 -0.1337121206337091
			vertex 0.11827061985081638 0.11680584161791362 -0.1337121206337091
			vertex 0.15477588718480076 0.11836860464129008 -0.1337121206337091
		endloop
	endfacet
	facet normal 0 0 1
		outer loop
			vertex 0.11827061985081638 0.11680584161791362 -0.1337121206337091
			vertex 0.12035504978245701 0.10661909978899514 -0.1337121206337091
			vertex 0.15477588718480076 0.11836860464129008 -0.1337121206337091
		endloop
	endfacet
	facet normal 0 0 1
		outer loop
			vertex 0.12035504978245701 0.10661909978899514 -0.1337121206337091
			vertex 0.12523496921605076 0.09180965688738382 -0.1337121206337091
			vertex 0.15477588718480076 0.11836860464129008 -0.1337121206337091
		endloop
	endfacet
	facet normal 0 0 1
		outer loop
			vertex 0.12523496921605076 0.09180965688738382 -0.1337121206337091
			vertex 0.13325654361790623 0.0814699321559385 -0.1337121206337091
			vertex 0.15477588718480076 0.11836860464129008 -0.1337121206337091
		endloop
	endfacet
	facet normal 0 0 1
		outer loop
			vertex 0.13325654361790623 0.0814699321559385 -0.1337121206337091
			vertex 0.14895715015477146 0.07220385854754005 -0.1337121206337091
			vertex 0.15477588718480076 0.11836860464129008 -0.1337121206337091
		endloop
	endfacet
	facet normal 0 0 -1
		outer loop
			vertex 0.16856030796116794 0.08150050161394595 -1.0742000000000003
			vertex 0.14895715015477146 0.07220385854753969 -1.0742000000000003
			vertex 0.15477588718480076 0.11836860464128972 -1.0742000000000003
		endloop
	endfacet
	facet normal 0 0 -1
		outer loop
			vertex 0.17478617313450778 0.08803077505144595 -1.0742000000000003
			vertex 0.16856030796116794 0.08150050161394595 -1.0742000000000003
			vertex 0.15477588718480076 0.11836860464128972 -1.0742000000000003
		endloop
	endfacet
	facet normal 0 0 -1
		outer loop
			vertex 0.20120192173069917 0.09865006979021548 -1.0742000000000003
			vertex 0.17478617313450778 0.08803077505144595 -1.0742000000000003
			vertex 0.15477588718480076 0.11836860464128972 -1.0742000000000003
		endloop
	endfacet
	facet normal 0 0 -1
		outer loop
			vertex 0.20515516269749604 0.11380854337725163 -1.0742000000000003
			vertex 0.20120192173069917 0.09865006979021548 -1.0742000000000003
			vertex 0.15477588718480076 0.11836860464128972 -1.0742000000000003
		endloop
	endfacet
	facet normal 0 0 -1
		outer loop
			vertex 0.19767126987523043 0.12689922674211981 -1.0742000000000003
			vertex 0.20515516269749604 0.11380854337725163 -1.0742000000000003
			vertex 0.15477588718480076 0.11836860464128972 -1.0742000000000003
		endloop
	endfacet
	facet normal 0 0 -1
		outer loop
			vertex 0.19152487094944917 0.14920423086199286 -1.0742000000000003
			vertex 0.19767126987523043 0.12689922674211981 -1.0742000000000003
			vertex 0.15477588718480076 0.11836860464128972 -1.0742000000000003
		endloop
	endfacet
	facet normal 0 0 -1
		outer loop
			vertex 0.18083567417210544 0.1593543559840632 -1.0742000000000003
			vertex 0.19152487094944917 0.14920423086199286 -1.0742000000000003
			vertex 0.15477588718480076 0.11836860464128972 -1.0742000000000003
		endloop
	endfacet
	facet normal 0 0 -1
		outer loop
			vertex 0.13929065006321872 0.18087885244402416 -1.0742000000000003
			vertex 0.18083567417210544 0.1593543559840632 -1.0742000000000003
			vertex 0.15477588718480076 0.11836860464128972 -1.0742000000000003
		endloop
	endfacet
	facet normal 0 0 -1
		outer loop
			vertex 0.13337800510472264 0.15826359670671944 -1.0742000000000003
			vertex 0.13929065006321872 0.18087885244402416 -1.0742000000000003
			vertex 0.15477588718480076 0.11836860464128972 -1.0742000000000003
		endloop
	endfacet
	facet normal 0 0 -1
		outer loop
			vertex 0.12978783634251562 0.1426307063868952 -1.0742000000000003
			vertex 0.13337800510472264 0.15826359670671944 -1.0742000000000003
			vertex 0.15477588718480076 0.11836860464128972 -1.0742000000000003
		endloop
	endfacet
	facet normal 0 0 -1
		outer loop
			vertex 0.11928538425511326 0.13046681097063542 -1.0742000000000003
			vertex 0.12978783634251562 0.1426307063868952 -1.0742000000000003
			vertex 0.15477588718480076 0.11836860464128972 -1.0742000000000003
		endloop
	endfacet
	facet normal 0 0 -1
		outer loop
			vertex 0.11827061985081638 0.11680584161791326 -1.0742000000000003
			vertex 0.11928538425511326 0.13046681097063542 -1.0742000000000003
			vertex 0.15477588718480076 0.11836860464128972 -1.0742000000000003
		endloop
	endfacet
	facet normal 0 0 -1
		outer loop
			vertex 0.12035504978245701 0.10661909978899478 -1.0742000000000003
			vertex 0.11827061985081638 0.11680584161791326 -1.0742000000000003
			vertex 0.15477588718480076 0.11836860464128972 -1.0742000000000003
		endloop
	endfacet
	facet normal 0 0 -1
		outer loop
			vertex 0.12523496921605076 0.09180965688738345 -1.0742000000000003
			vertex 0.12035504978245701 0.10661909978899478 -1.0742000000000003
			vertex 0.15477588718480076 0.11836860464128972 -1.0742000000000003
		endloop
	endfacet
	facet normal 0 0 -1
		outer loop
			vertex 0.13325654361790623 0.08146993215593813 -1.0742000000000003
			vertex 0.12523496921605076 0.09180965688738345 -1.0742000000000003
			vertex 0.15477588718480076 0.11836860464128972 -1.0742000000000003
		endloop
	endfacet
	facet normal 0 0 -1
		outer loop
			vertex 0.14895715015477146 0.07220385854753969 -1.0742000000000003
			vertex 0.13325654361790623 0.08146993215593813 -1.0742000000000003
			vertex 0.15477588718480076 0.11836860464128972 -1.0742000000000003
		endloop
	endfacet
endsolid exported
