solid exported
	facet normal 0.06380661927212351 -0.9979622815202299 4.1257147743482096e-16
		outer loop
			vertex -0.8393781387521618 -0.23400631280119805 -0.06385087921917743
			vertex -0.8393781387521618 -0.2340063128011985 -1.1380508792191775
			vertex -0.8124237962438458 -0.23228293557341528 -1.1380508792191775
		endloop
	endfacet
	facet normal 0.06380661927212247 -0.9979622815202299 3.867857600951446e-16
		outer loop
			vertex -0.8393781387521618 -0.23400631280119805 -0.06385087921917743
			vertex -0.8124237962438458 -0.23228293557341528 -1.1380508792191775
			vertex -0.8124237962438458 -0.23228293557341487 -0.06385087921917743
		endloop
	endfacet
	facet normal -0.03609951609522141 -0.9993482000472563 3.8732290820267555e-16
		outer loop
			vertex -0.8124237962438458 -0.23228293557341487 -0.06385087921917743
			vertex -0.8124237962438458 -0.23228293557341528 -1.1380508792191775
			vertex -0.7772564717962139 -0.2335532869833274 -1.1380508792191775
		endloop
	endfacet
	facet normal -0.03609951609522142 -0.9993482000472563 3.8732290820267555e-16
		outer loop
			vertex -0.8124237962438458 -0.23228293557341487 -0.06385087921917743
			vertex -0.7772564717962139 -0.2335532869833274 -1.1380508792191775
			vertex -0.7772564717962139 -0.23355328698332697 -0.06385087921917743
		endloop
	endfacet
	facet normal 0.6814891171138977 -0.7318282471012719 2.836387206768644e-16
		outer loop
			vertex -0.7772564717962139 -0.23355328698332697 -0.06385087921917743
			vertex -0.7772564717962139 -0.2335532869833274 -1.1380508792191775
			vertex -0.7551986737920635 -0.21301274438078832 -1.1380508792191775
		endloop
	endfacet
	facet normal 0.6814891171138977 -0.7318282471012719 2.836387206768644e-16
		outer loop
			vertex -0.7772564717962139 -0.23355328698332697 -0.06385087921917743
			vertex -0.7551986737920635 -0.21301274438078832 -1.1380508792191775
			vertex -0.7551986737920635 -0.2130127443807879 -0.06385087921917743
		endloop
	endfacet
	facet normal 0.9760831263055968 0.21739763232724643 -8.425800255144639e-17
		outer loop
			vertex -0.7551986737920635 -0.2130127443807879 -0.06385087921917743
			vertex -0.7551986737920635 -0.21301274438078832 -1.1380508792191775
			vertex -0.7621058709813946 -0.18200045342619847 -1.1380508792191775
		endloop
	endfacet
	facet normal 0.9760831263055968 0.21739763232724643 -8.425800255144639e-17
		outer loop
			vertex -0.7551986737920635 -0.2130127443807879 -0.06385087921917743
			vertex -0.7621058709813946 -0.18200045342619847 -1.1380508792191775
			vertex -0.7621058709813946 -0.18200045342619806 -0.06385087921917743
		endloop
	endfacet
	facet normal 0.8465243880585226 0.5323499416945063 -2.0632581075233912e-16
		outer loop
			vertex -0.7621058709813946 -0.18200045342619806 -0.06385087921917743
			vertex -0.7621058709813946 -0.18200045342619847 -1.1380508792191775
			vertex -0.7723962194158428 -0.16563709874327612 -1.1380508792191775
		endloop
	endfacet
	facet normal 0.8465243880585226 0.5323499416945063 -2.0632581075233912e-16
		outer loop
			vertex -0.7621058709813946 -0.18200045342619806 -0.06385087921917743
			vertex -0.7723962194158428 -0.16563709874327612 -1.1380508792191775
			vertex -0.7723962194158428 -0.1656370987432757 -0.06385087921917743
		endloop
	endfacet
	facet normal 0.9570011803710478 0.2900840236352588 -1.124294691802408e-16
		outer loop
			vertex -0.7723962194158428 -0.1656370987432757 -0.06385087921917743
			vertex -0.7723962194158428 -0.16563709874327612 -1.1380508792191775
			vertex -0.780847522134959 -0.1377558435934348 -1.1380508792191775
		endloop
	endfacet
	facet normal 0.9570011803710478 0.29008402363525915 -1.0493417123489153e-16
		outer loop
			vertex -0.7723962194158428 -0.1656370987432757 -0.06385087921917743
			vertex -0.780847522134959 -0.1377558435934348 -1.1380508792191775
			vertex -0.780847522134959 -0.1377558435934344 -0.06385087921917743
		endloop
	endfacet
	facet normal 0.6534500192654596 0.7569696640698161 -2.738240574358388e-16
		outer loop
			vertex -0.780847522134959 -0.1377558435934344 -0.06385087921917743
			vertex -0.780847522134959 -0.1377558435934348 -1.1380508792191775
			vertex -0.7955451677038067 -0.1250681795614524 -1.1380508792191775
		endloop
	endfacet
	facet normal 0.6534500192654606 0.7569696640698155 -2.9338291868125557e-16
		outer loop
			vertex -0.780847522134959 -0.1377558435934344 -0.06385087921917743
			vertex -0.7955451677038067 -0.1250681795614524 -1.1380508792191775
			vertex -0.7955451677038067 -0.12506817956145197 -0.06385087921917743
		endloop
	endfacet
	facet normal 0.31844094028277675 0.9479427026734374 -3.673993953174859e-16
		outer loop
			vertex -0.7955451677038067 -0.12506817956145197 -0.06385087921917743
			vertex -0.7955451677038067 -0.1250681795614524 -1.1380508792191775
			vertex -0.8308671906335944 -0.11320250649626684 -1.1380508792191775
		endloop
	endfacet
	facet normal 0.31844094028277675 0.9479427026734374 -3.673993953174859e-16
		outer loop
			vertex -0.7955451677038067 -0.12506817956145197 -0.06385087921917743
			vertex -0.8308671906335944 -0.11320250649626684 -1.1380508792191775
			vertex -0.8308671906335944 -0.11320250649626643 -0.06385087921917743
		endloop
	endfacet
	facet normal -0.4042466373097274 0.9146500184353454 -3.5449596558162274e-16
		outer loop
			vertex -0.8308671906335944 -0.11320250649626643 -0.06385087921917743
			vertex -0.8308671906335944 -0.11320250649626684 -1.1380508792191775
			vertex -0.8607994626714581 -0.12643163247282935 -1.1380508792191775
		endloop
	endfacet
	facet normal -0.4042466373097274 0.9146500184353454 -3.5449596558162274e-16
		outer loop
			vertex -0.8308671906335944 -0.11320250649626643 -0.06385087921917743
			vertex -0.8607994626714581 -0.12643163247282935 -1.1380508792191775
			vertex -0.8607994626714581 -0.12643163247282893 -0.06385087921917743
		endloop
	endfacet
	facet normal -0.9695417996365109 0.2449259046274936 -9.492728727585246e-17
		outer loop
			vertex -0.8607994626714581 -0.12643163247282893 -0.06385087921917743
			vertex -0.8607994626714581 -0.12643163247282935 -1.1380508792191775
			vertex -0.8657359447194928 -0.14597274918730688 -1.1380508792191775
		endloop
	endfacet
	facet normal -0.9695417996365109 0.24492590462749364 -9.492728727585249e-17
		outer loop
			vertex -0.8607994626714581 -0.12643163247282893 -0.06385087921917743
			vertex -0.8657359447194928 -0.14597274918730688 -1.1380508792191775
			vertex -0.8657359447194928 -0.14597274918730646 -0.06385087921917743
		endloop
	endfacet
	facet normal -0.7250888245645079 0.68865535392652 -2.6690596372670663e-16
		outer loop
			vertex -0.8657359447194928 -0.14597274918730646 -0.06385087921917743
			vertex -0.8657359447194928 -0.14597274918730688 -1.1380508792191775
			vertex -0.8801768163396709 -0.1611776184576316 -1.1380508792191775
		endloop
	endfacet
	facet normal -0.7250888245645079 0.68865535392652 -2.6690596372670663e-16
		outer loop
			vertex -0.8657359447194928 -0.14597274918730646 -0.06385087921917743
			vertex -0.8801768163396709 -0.1611776184576316 -1.1380508792191775
			vertex -0.8801768163396709 -0.16117761845763118 -0.06385087921917743
		endloop
	endfacet
	facet normal -0.9966783434803415 0.081438809159286 -3.1563689615537165e-17
		outer loop
			vertex -0.8801768163396709 -0.16117761845763118 -0.06385087921917743
			vertex -0.8801768163396709 -0.1611776184576316 -1.1380508792191775
			vertex -0.8815721173955792 -0.1782538301485343 -1.1380508792191775
		endloop
	endfacet
	facet normal -0.9966783434803415 0.081438809159286 -3.1563689615537165e-17
		outer loop
			vertex -0.8801768163396709 -0.16117761845763118 -0.06385087921917743
			vertex -0.8815721173955792 -0.1782538301485343 -1.1380508792191775
			vertex -0.8815721173955792 -0.17825383014853388 -0.06385087921917743
		endloop
	endfacet
	facet normal -0.9755922031041843 -0.219590193866493 8.51077857518906e-17
		outer loop
			vertex -0.8815721173955792 -0.17825383014853388 -0.06385087921917743
			vertex -0.8815721173955792 -0.1782538301485343 -1.1380508792191775
			vertex -0.8787060262395733 -0.190987259342031 -1.1380508792191775
		endloop
	endfacet
	facet normal -0.9755922031041844 -0.21959019386649306 8.510778575189063e-17
		outer loop
			vertex -0.8815721173955792 -0.17825383014853388 -0.06385087921917743
			vertex -0.8787060262395733 -0.190987259342031 -1.1380508792191775
			vertex -0.8787060262395733 -0.1909872593420306 -0.06385087921917743
		endloop
	endfacet
	facet normal -0.9401464608295969 -0.3407706445537576 1.3207436314231646e-16
		outer loop
			vertex -0.8787060262395733 -0.1909872593420306 -0.06385087921917743
			vertex -0.8787060262395733 -0.190987259342031 -1.1380508792191775
			vertex -0.8719961370183819 -0.20949906106169652 -1.1380508792191775
		endloop
	endfacet
	facet normal -0.9401464608295969 -0.3407706445537576 1.3207436314231646e-16
		outer loop
			vertex -0.8787060262395733 -0.1909872593420306 -0.06385087921917743
			vertex -0.8719961370183819 -0.20949906106169652 -1.1380508792191775
			vertex -0.8719961370183819 -0.2094990610616961 -0.06385087921917743
		endloop
	endfacet
	facet normal -0.7606685404706691 -0.6491404867501503 2.5159096814131383e-16
		outer loop
			vertex -0.8719961370183819 -0.2094990610616961 -0.06385087921917743
			vertex -0.8719961370183819 -0.20949906106169652 -1.1380508792191775
			vertex -0.8609664743139142 -0.22242371697600316 -1.1380508792191775
		endloop
	endfacet
	facet normal -0.7606685404706691 -0.6491404867501503 2.5159096814131383e-16
		outer loop
			vertex -0.8719961370183819 -0.2094990610616961 -0.06385087921917743
			vertex -0.8609664743139142 -0.22242371697600316 -1.1380508792191775
			vertex -0.8609664743139142 -0.22242371697600274 -0.06385087921917743
		endloop
	endfacet
	facet normal -0.472773679772585 -0.8811838898404176 3.4152531305724814e-16
		outer loop
			vertex -0.8609664743139142 -0.22242371697600274 -0.06385087921917743
			vertex -0.8609664743139142 -0.22242371697600316 -1.1380508792191775
			vertex -0.8393781387521618 -0.2340063128011985 -1.1380508792191775
		endloop
	endfacet
	facet normal -0.47277367977258417 -0.8811838898404181 3.642936672610649e-16
		outer loop
			vertex -0.8609664743139142 -0.22242371697600274 -0.06385087921917743
			vertex -0.8393781387521618 -0.2340063128011985 -1.1380508792191775
			vertex -0.8393781387521618 -0.23400631280119805 -0.06385087921917743
		endloop
	endfacet
	facet normal 0 0 1
		outer loop
			vertex -0.8393781387521618 -0.23400631280119805 -0.06385087921917743
			vertex -0.8124237962438458 -0.23228293557341487 -0.06385087921917743
			vertex -0.8313773748113507 -0.17630037636931328 -0.06385087921917743
		endloop
	endfacet
	facet normal 0 0 1
		outer loop
			vertex -0.8124237962438458 -0.23228293557341487 -0.06385087921917743
			vertex -0.7772564717962139 -0.23355328698332697 -0.06385087921917743
			vertex -0.8313773748113507 -0.17630037636931328 -0.06385087921917743
		endloop
	endfacet
	facet normal 0 0 1
		outer loop
			vertex -0.7772564717962139 -0.23355328698332697 -0.06385087921917743
			vertex -0.7551986737920635 -0.2130127443807879 -0.06385087921917743
			vertex -0.8313773748113507 -0.17630037636931328 -0.06385087921917743
		endloop
	endfacet
	facet normal 0 0 1
		outer loop
			vertex -0.7551986737920635 -0.2130127443807879 -0.06385087921917743
			vertex -0.7621058709813946 -0.18200045342619806 -0.06385087921917743
			vertex -0.8313773748113507 -0.17630037636931328 -0.06385087921917743
		endloop
	endfacet
	facet normal 0 0 1
		outer loop
			vertex -0.7621058709813946 -0.18200045342619806 -0.06385087921917743
			vertex -0.7723962194158428 -0.1656370987432757 -0.06385087921917743
			vertex -0.8313773748113507 -0.17630037636931328 -0.06385087921917743
		endloop
	endfacet
	facet normal 0 0 1
		outer loop
			vertex -0.7723962194158428 -0.1656370987432757 -0.06385087921917743
			vertex -0.780847522134959 -0.1377558435934344 -0.06385087921917743
			vertex -0.8313773748113507 -0.17630037636931328 -0.06385087921917743
		endloop
	endfacet
	facet normal 0 0 1
		outer loop
			vertex -0.780847522134959 -0.1377558435934344 -0.06385087921917743
			vertex -0.7955451677038067 -0.12506817956145197 -0.06385087921917743
			vertex -0.8313773748113507 -0.17630037636931328 -0.06385087921917743
		endloop
	endfacet
	facet normal 0 0 1
		outer loop
			vertex -0.7955451677038067 -0.12506817956145197 -0.06385087921917743
			vertex -0.8308671906335944 -0.11320250649626643 -0.06385087921917743
			vertex -0.8313773748113507 -0.17630037636931328 -0.06385087921917743
		endloop
	endfacet
	facet normal 0 0 1
		outer loop
			vertex -0.8308671906335944 -0.11320250649626643 -0.06385087921917743
			vertex -0.8607994626714581 -0.12643163247282893 -0.06385087921917743
			vertex -0.8313773748113507 -0.17630037636931328 -0.06385087921917743
		endloop
	endfacet
	facet normal 0 0 1
		outer loop
			vertex -0.8607994626714581 -0.12643163247282893 -0.06385087921917743
			vertex -0.8657359447194928 -0.14597274918730646 -0.06385087921917743
			vertex -0.8313773748113507 -0.17630037636931328 -0.06385087921917743
		endloop
	endfacet
	facet normal 0 0 1
		outer loop
			vertex -0.8657359447194928 -0.14597274918730646 -0.06385087921917743
			vertex -0.8801768163396709 -0.16117761845763118 -0.06385087921917743
			vertex -0.8313773748113507 -0.17630037636931328 -0.06385087921917743
		endloop
	endfacet
	facet normal 0 0 1
		outer loop
			vertex -0.8801768163396709 -0.16117761845763118 -0.06385087921917743
			vertex -0.8815721173955792 -0.17825383014853388 -0.06385087921917743
			vertex -0.8313773748113507 -0.17630037636931328 -0.06385087921917743
		endloop
	endfacet
	facet normal 0 0 1
		outer loop
			vertex -0.8815721173955792 -0.17825383014853388 -0.06385087921917743
			vertex -0.8787060262395733 -0.1909872593420306 -0.06385087921917743
			vertex -0.8313773748113507 -0.17630037636931328 -0.06385087921917743
		endloop
	endfacet
	facet normal 0 0 1
		outer loop
			vertex -0.8787060262395733 -0.1909872593420306 -0.06385087921917743
			vertex -0.8719961370183819 -0.2094990610616961 -0.06385087921917743
			vertex -0.8313773748113507 -0.17630037636931328 -0.06385087921917743
		endloop
	endfacet
	facet normal 0 0 1
		outer loop
			vertex -0.8719961370183819 -0.2094990610616961 -0.06385087921917743
			vertex -0.8609664743139142 -0.22242371697600274 -0.06385087921917743
			vertex -0.8313773748113507 -0.17630037636931328 -0.06385087921917743
		endloop
	endfacet
	facet normal 0 0 1
		outer loop
			vertex -0.8609664743139142 -0.22242371697600274 -0.06385087921917743
			vertex -0.8393781387521618 -0.23400631280119805 -0.06385087921917743
			vertex -0.8313773748113507 -0.17630037636931328 -0.06385087921917743
		endloop
	endfacet
	facet normal 0 0 -1
		outer loop
			vertex -0.8124237962438458 -0.23228293557341528 -1.1380508792191775
			vertex -0.8393781387521618 -0.2340063128011985 -1.1380508792191775
			vertex -0.8313773748113507 -0.17630037636931373 -1.1380508792191775
		endloop
	endfacet
	facet normal 0 0 -1
		outer loop
			vertex -0.7772564717962139 -0.2335532869833274 -1.1380508792191775
			vertex -0.8124237962438458 -0.23228293557341528 -1.1380508792191775
			vertex -0.8313773748113507 -0.17630037636931373 -1.1380508792191775
		endloop
	endfacet
	facet normal 0 0 -1
		outer loop
			vertex -0.7551986737920635 -0.21301274438078832 -1.1380508792191775
			vertex -0.7772564717962139 -0.2335532869833274 -1.1380508792191775
			vertex -0.8313773748113507 -0.17630037636931373 -1.1380508792191775
		endloop
	endfacet
	facet normal 0 0 -1
		outer loop
			vertex -0.7621058709813946 -0.18200045342619847 -1.1380508792191775
			vertex -0.7551986737920635 -0.21301274438078832 -1.1380508792191775
			vertex -0.8313773748113507 -0.17630037636931373 -1.1380508792191775
		endloop
	endfacet
	facet normal 0 0 -1
		outer loop
			vertex -0.7723962194158428 -0.16563709874327612 -1.1380508792191775
			vertex -0.7621058709813946 -0.18200045342619847 -1.1380508792191775
			vertex -0.8313773748113507 -0.17630037636931373 -1.1380508792191775
		endloop
	endfacet
	facet normal 0 0 -1
		outer loop
			vertex -0.780847522134959 -0.1377558435934348 -1.1380508792191775
			vertex -0.7723962194158428 -0.16563709874327612 -1.1380508792191775
			vertex -0.8313773748113507 -0.17630037636931373 -1.1380508792191775
		endloop
	endfacet
	facet normal 0 0 -1
		outer loop
			vertex -0.7955451677038067 -0.1250681795614524 -1.1380508792191775
			vertex -0.780847522134959 -0.1377558435934348 -1.1380508792191775
			vertex -0.8313773748113507 -0.17630037636931373 -1.1380508792191775
		endloop
	endfacet
	facet normal 0 0 -1
		outer loop
			vertex -0.8308671906335944 -0.11320250649626684 -1.1380508792191775
			vertex -0.7955451677038067 -0.1250681795614524 -1.1380508792191775
			vertex -0.8313773748113507 -0.17630037636931373 -1.1380508792191775
		endloop
	endfacet
	facet normal 0 0 -1
		outer loop
			vertex -0.8607994626714581 -0.12643163247282935 -1.1380508792191775
			vertex -0.8308671906335944 -0.11320250649626684 -1.1380508792191775
			vertex -0.8313773748113507 -0.17630037636931373 -1.1380508792191775
		endloop
	endfacet
	facet normal 0 0 -1
		outer loop
			vertex -0.8657359447194928 -0.14597274918730688 -1.1380508792191775
			vertex -0.8607994626714581 -0.12643163247282935 -1.1380508792191775
			vertex -0.8313773748113507 -0.17630037636931373 -1.1380508792191775
		endloop
	endfacet
	facet normal 0 0 -1
		outer loop
			vertex -0.8801768163396709 -0.1611776184576316 -1.1380508792191775
			vertex -0.8657359447194928 -0.14597274918730688 -1.1380508792191775
			vertex -0.8313773748113507 -0.17630037636931373 -1.1380508792191775
		endloop
	endfacet
	facet normal 0 0 -1
		outer loop
			vertex -0.8815721173955792 -0.1782538301485343 -1.1380508792191775
			vertex -0.8801768163396709 -0.1611776184576316 -1.1380508792191775
			vertex -0.8313773748113507 -0.17630037636931373 -1.1380508792191775
		endloop
	endfacet
	facet normal 0 0 -1
		outer loop
			vertex -0.8787060262395733 -0.190987259342031 -1.1380508792191775
			vertex -0.8815721173955792 -0.1782538301485343 -1.1380508792191775
			vertex -0.8313773748113507 -0.17630037636931373 -1.1380508792191775
		endloop
	endfacet
	facet normal 0 0 -1
		outer loop
			vertex -0.8719961370183819 -0.20949906106169652 -1.1380508792191775
			vertex -0.8787060262395733 -0.190987259342031 -1.1380508792191775
			vertex -0.8313773748113507 -0.17630037636931373 -1.1380508792191775
		endloop
	endfacet
	facet normal 0 0 -1
		outer loop
			vertex -0.8609664743139142 -0.22242371697600316 -1.1380508792191775
			vertex -0.8719961370183819 -0.20949906106169652 -1.1380508792191775
			vertex -0.8313773748113507 -0.17630037636931373 -1.1380508792191775
		endloop
	endfacet
	facet normal 0 0 -1
		outer loop
			vertex -0.8393781387521618 -0.2340063128011985 -1.1380508792191775
			vertex -0.8609664743139142 -0.22242371697600316 -1.1380508792191775
			vertex -0.8313773748113507 -0.17630037636931373 -1.1380508792191775
		endloop
	endfacet
	facet normal 0.07015729642286864 -0.9975359410861514 2.607325006321144e-16
		outer loop
			vertex -0.5160353567635738 -0.1677620876369161 -0.25885801537233294
			vertex -0.5160353567635738 -0.16776208763691638 -1.3207580153723328
			vertex -0.4939015322492999 -0.1662054025858205 -1.3207580153723328
		endloop
	endfacet
	facet normal 0.07015729642286987 -0.9975359410861515 2.8680575069532586e-16
		outer loop
			vertex -0.5160353567635738 -0.1677620876369161 -0.25885801537233294
			vertex -0.4939015322492999 -0.1662054025858205 -1.3207580153723328
			vertex -0.4939015322492999 -0.1662054025858202 -0.25885801537233294
		endloop
	endfacet
	facet normal -0.03970403523898686 -0.9992114839140618 2.8728749305546353e-16
		outer loop
			vertex -0.4939015322492999 -0.1662054025858202 -0.25885801537233294
			vertex -0.4939015322492999 -0.1662054025858205 -1.3207580153723328
			vertex -0.4650235365155784 -0.1673528803507394 -1.3207580153723328
		endloop
	endfacet
	facet normal -0.03970403523898686 -0.9992114839140618 2.8728749305546353e-16
		outer loop
			vertex -0.4939015322492999 -0.1662054025858202 -0.25885801537233294
			vertex -0.4650235365155784 -0.1673528803507394 -1.3207580153723328
			vertex -0.4650235365155784 -0.16735288035073909 -0.25885801537233294
		endloop
	endfacet
	facet normal 0.715555720332174 -0.6985556607027844 2.0084467377905572e-16
		outer loop
			vertex -0.4650235365155784 -0.16735288035073909 -0.25885801537233294
			vertex -0.4650235365155784 -0.1673528803507394 -1.3207580153723328
			vertex -0.44691055787235834 -0.1487991040240666 -1.3207580153723328
		endloop
	endfacet
	facet normal 0.715555720332174 -0.6985556607027845 2.0084467377905577e-16
		outer loop
			vertex -0.4650235365155784 -0.16735288035073909 -0.25885801537233294
			vertex -0.44691055787235834 -0.1487991040240666 -1.3207580153723328
			vertex -0.44691055787235834 -0.1487991040240663 -0.25885801537233294
		endloop
	endfacet
	facet normal 0.9801110585765374 0.19844977413940118 -5.705712857362927e-17
		outer loop
			vertex -0.44691055787235834 -0.1487991040240663 -0.25885801537233294
			vertex -0.44691055787235834 -0.1487991040240666 -1.3207580153723328
			vertex -0.4525824710502432 -0.12078645017732585 -1.3207580153723328
		endloop
	endfacet
	facet normal 0.9801110585765375 0.19844977413940124 -5.705712857362929e-17
		outer loop
			vertex -0.44691055787235834 -0.1487991040240663 -0.25885801537233294
			vertex -0.4525824710502432 -0.12078645017732585 -1.3207580153723328
			vertex -0.4525824710502432 -0.12078645017732555 -0.25885801537233294
		endloop
	endfacet
	facet normal 0.8681431648185262 0.4963138577340687 -1.4269728306021926e-16
		outer loop
			vertex -0.4525824710502432 -0.12078645017732555 -0.25885801537233294
			vertex -0.4525824710502432 -0.12078645017732585 -1.3207580153723328
			vertex -0.46103249228034887 -0.1060058268697689 -1.3207580153723328
		endloop
	endfacet
	facet normal 0.8681431648185259 0.49631385773406916 -1.362110429211185e-16
		outer loop
			vertex -0.4525824710502432 -0.12078645017732555 -0.25885801537233294
			vertex -0.46103249228034887 -0.1060058268697689 -1.3207580153723328
			vertex -0.46103249228034887 -0.1060058268697686 -0.25885801537233294
		endloop
	endfacet
	facet normal 0.9640668462700787 0.265659774754976 -7.290909656798961e-17
		outer loop
			vertex -0.46103249228034887 -0.1060058268697686 -0.25885801537233294
			vertex -0.46103249228034887 -0.1060058268697689 -1.3207580153723328
			vertex -0.4679723629614539 -0.0808213620887312 -1.3207580153723328
		endloop
	endfacet
	facet normal 0.9640668462700787 0.265659774754976 -7.290909656798961e-17
		outer loop
			vertex -0.46103249228034887 -0.1060058268697686 -0.25885801537233294
			vertex -0.4679723629614539 -0.0808213620887312 -1.3207580153723328
			vertex -0.4679723629614539 -0.0808213620887309 -0.25885801537233294
		endloop
	endfacet
	facet normal 0.688585212073436 0.725155435554186 -1.9901555561577323e-16
		outer loop
			vertex -0.4679723629614539 -0.0808213620887309 -0.25885801537233294
			vertex -0.4679723629614539 -0.0808213620887312 -1.3207580153723328
			vertex -0.48004147975380385 -0.06936090142260086 -1.3207580153723328
		endloop
	endfacet
	facet normal 0.688585212073436 0.725155435554186 -1.9901555561577323e-16
		outer loop
			vertex -0.4679723629614539 -0.0808213620887309 -0.25885801537233294
			vertex -0.48004147975380385 -0.06936090142260086 -1.3207580153723328
			vertex -0.48004147975380385 -0.06936090142260057 -0.25885801537233294
		endloop
	endfacet
	facet normal 0.34661390860657604 0.9380078882186824 -2.574319268573834e-16
		outer loop
			vertex -0.48004147975380385 -0.06936090142260057 -0.25885801537233294
			vertex -0.48004147975380385 -0.06936090142260086 -1.3207580153723328
			vertex -0.5090465076737345 -0.058642925355616875 -1.3207580153723328
		endloop
	endfacet
	facet normal 0.346613908606576 0.9380078882186824 -2.574319268573834e-16
		outer loop
			vertex -0.48004147975380385 -0.06936090142260057 -0.25885801537233294
			vertex -0.5090465076737345 -0.058642925355616875 -1.3207580153723328
			vertex -0.5090465076737345 -0.05864292535561658 -0.25885801537233294
		endloop
	endfacet
	facet normal -0.43723228553480226 0.8993486134341974 -2.468220676827675e-16
		outer loop
			vertex -0.5090465076737345 -0.05864292535561658 -0.25885801537233294
			vertex -0.5090465076737345 -0.058642925355616875 -1.3207580153723328
			vertex -0.5336256884270837 -0.07059247552651532 -1.3207580153723328
		endloop
	endfacet
	facet normal -0.43723228553480226 0.8993486134341974 -2.468220676827675e-16
		outer loop
			vertex -0.5090465076737345 -0.05864292535561658 -0.25885801537233294
			vertex -0.5336256884270837 -0.07059247552651532 -1.3207580153723328
			vertex -0.5336256884270837 -0.07059247552651503 -0.25885801537233294
		endloop
	endfacet
	facet normal -0.974628631265764 0.22382812852057551 -6.142859472041075e-17
		outer loop
			vertex -0.5336256884270837 -0.07059247552651503 -0.25885801537233294
			vertex -0.5336256884270837 -0.07059247552651532 -1.3207580153723328
			vertex -0.5376793294066532 -0.0882434945725753 -1.3207580153723328
		endloop
	endfacet
	facet normal -0.974628631265764 0.22382812852057551 -6.142859472041075e-17
		outer loop
			vertex -0.5336256884270837 -0.07059247552651503 -0.25885801537233294
			vertex -0.5376793294066532 -0.0882434945725753 -1.3207580153723328
			vertex -0.5376793294066532 -0.08824349457257501 -0.25885801537233294
		endloop
	endfacet
	facet normal -0.7569070447173166 0.6535225517587729 -1.7935624194323716e-16
		outer loop
			vertex -0.5376793294066532 -0.08824349457257501 -0.25885801537233294
			vertex -0.5376793294066532 -0.0882434945725753 -1.3207580153723328
			vertex -0.5495375937355111 -0.10197768597037377 -1.3207580153723328
		endloop
	endfacet
	facet normal -0.7569070447173166 0.6535225517587729 -1.7935624194323716e-16
		outer loop
			vertex -0.5376793294066532 -0.08824349457257501 -0.25885801537233294
			vertex -0.5495375937355111 -0.10197768597037377 -1.3207580153723328
			vertex -0.5495375937355111 -0.10197768597037347 -0.25885801537233294
		endloop
	endfacet
	facet normal -0.9972524558454853 0.07407792728032234 -2.0330344549222613e-17
		outer loop
			vertex -0.5495375937355111 -0.10197768597037347 -0.25885801537233294
			vertex -0.5495375937355111 -0.10197768597037377 -1.3207580153723328
			vertex -0.5506833589756214 -0.11740221580634608 -1.3207580153723328
		endloop
	endfacet
	facet normal -0.9972524558454853 0.07407792728032234 -2.0330344549222613e-17
		outer loop
			vertex -0.5495375937355111 -0.10197768597037347 -0.25885801537233294
			vertex -0.5506833589756214 -0.11740221580634608 -1.3207580153723328
			vertex -0.5506833589756214 -0.11740221580634579 -0.25885801537233294
		endloop
	endfacet
	facet normal -0.9797002417158646 -0.20046804329338078 5.501752736466646e-17
		outer loop
			vertex -0.5506833589756214 -0.11740221580634579 -0.25885801537233294
			vertex -0.5506833589756214 -0.11740221580634608 -1.3207580153723328
			vertex -0.5483298399213401 -0.12890401503819596 -1.3207580153723328
		endloop
	endfacet
	facet normal -0.9797002417158646 -0.20046804329338103 5.763740962012684e-17
		outer loop
			vertex -0.5506833589756214 -0.11740221580634579 -0.25885801537233294
			vertex -0.5483298399213401 -0.12890401503819596 -1.3207580153723328
			vertex -0.5483298399213401 -0.12890401503819565 -0.25885801537233294
		endloop
	endfacet
	facet normal -0.9497659000735231 -0.31296123571063994 8.998080013918512e-17
		outer loop
			vertex -0.5483298399213401 -0.12890401503819565 -0.25885801537233294
			vertex -0.5483298399213401 -0.12890401503819596 -1.3207580153723328
			vertex -0.5428199481298319 -0.1456252786949766 -1.3207580153723328
		endloop
	endfacet
	facet normal -0.9497659000735231 -0.3129612357106399 8.998080013918509e-17
		outer loop
			vertex -0.5483298399213401 -0.12890401503819565 -0.25885801537233294
			vertex -0.5428199481298319 -0.1456252786949766 -1.3207580153723328
			vertex -0.5428199481298319 -0.1456252786949763 -0.25885801537233294
		endloop
	endfacet
	facet normal -0.7901083718680942 -0.6129671775094889 1.7623676927949505e-16
		outer loop
			vertex -0.5428199481298319 -0.1456252786949763 -0.25885801537233294
			vertex -0.5428199481298319 -0.1456252786949766 -1.3207580153723328
			vertex -0.533762831686461 -0.15729980840791669 -1.3207580153723328
		endloop
	endfacet
	facet normal -0.7901083718680949 -0.612967177509488 1.602152447995407e-16
		outer loop
			vertex -0.5428199481298319 -0.1456252786949763 -0.25885801537233294
			vertex -0.533762831686461 -0.15729980840791669 -1.3207580153723328
			vertex -0.533762831686461 -0.1572998084079164 -0.25885801537233294
		endloop
	endfacet
	facet normal -0.5082594532755784 -0.8612039991523556 2.2509852828849445e-16
		outer loop
			vertex -0.533762831686461 -0.1572998084079164 -0.25885801537233294
			vertex -0.533762831686461 -0.15729980840791669 -1.3207580153723328
			vertex -0.5160353567635738 -0.16776208763691638 -1.3207580153723328
		endloop
	endfacet
	facet normal -0.5082594532755784 -0.8612039991523556 2.2509852828849445e-16
		outer loop
			vertex -0.533762831686461 -0.1572998084079164 -0.25885801537233294
			vertex -0.5160353567635738 -0.16776208763691638 -1.3207580153723328
			vertex -0.5160353567635738 -0.1677620876369161 -0.25885801537233294
		endloop
	endfacet
	facet normal 0 0 1
		outer loop
			vertex -0.5160353567635738 -0.1677620876369161 -0.25885801537233294
			vertex -0.4939015322492999 -0.1662054025858202 -0.25885801537233294
			vertex -0.5094654504491679 -0.11563770815990843 -0.25885801537233294
		endloop
	endfacet
	facet normal 0 0 1
		outer loop
			vertex -0.4939015322492999 -0.1662054025858202 -0.25885801537233294
			vertex -0.4650235365155784 -0.16735288035073909 -0.25885801537233294
			vertex -0.5094654504491679 -0.11563770815990843 -0.25885801537233294
		endloop
	endfacet
	facet normal 0 0 1
		outer loop
			vertex -0.4650235365155784 -0.16735288035073909 -0.25885801537233294
			vertex -0.44691055787235834 -0.1487991040240663 -0.25885801537233294
			vertex -0.5094654504491679 -0.11563770815990843 -0.25885801537233294
		endloop
	endfacet
	facet normal 0 0 1
		outer loop
			vertex -0.44691055787235834 -0.1487991040240663 -0.25885801537233294
			vertex -0.4525824710502432 -0.12078645017732555 -0.25885801537233294
			vertex -0.5094654504491679 -0.11563770815990843 -0.25885801537233294
		endloop
	endfacet
	facet normal 0 0 1
		outer loop
			vertex -0.4525824710502432 -0.12078645017732555 -0.25885801537233294
			vertex -0.46103249228034887 -0.1060058268697686 -0.25885801537233294
			vertex -0.5094654504491679 -0.11563770815990843 -0.25885801537233294
		endloop
	endfacet
	facet normal 0 0 1
		outer loop
			vertex -0.46103249228034887 -0.1060058268697686 -0.25885801537233294
			vertex -0.4679723629614539 -0.0808213620887309 -0.25885801537233294
			vertex -0.5094654504491679 -0.11563770815990843 -0.25885801537233294
		endloop
	endfacet
	facet normal 0 0 1
		outer loop
			vertex -0.4679723629614539 -0.0808213620887309 -0.25885801537233294
			vertex -0.48004147975380385 -0.06936090142260057 -0.25885801537233294
			vertex -0.5094654504491679 -0.11563770815990843 -0.25885801537233294
		endloop
	endfacet
	facet normal 0 0 1
		outer loop
			vertex -0.48004147975380385 -0.06936090142260057 -0.25885801537233294
			vertex -0.5090465076737345 -0.05864292535561658 -0.25885801537233294
			vertex -0.5094654504491679 -0.11563770815990843 -0.25885801537233294
		endloop
	endfacet
	facet normal 0 0 1
		outer loop
			vertex -0.5090465076737345 -0.05864292535561658 -0.25885801537233294
			vertex -0.5336256884270837 -0.07059247552651503 -0.25885801537233294
			vertex -0.5094654504491679 -0.11563770815990843 -0.25885801537233294
		endloop
	endfacet
	facet normal 0 0 1
		outer loop
			vertex -0.5336256884270837 -0.07059247552651503 -0.25885801537233294
			vertex -0.5376793294066532 -0.08824349457257501 -0.25885801537233294
			vertex -0.5094654504491679 -0.11563770815990843 -0.25885801537233294
		endloop
	endfacet
	facet normal 0 0 1
		outer loop
			vertex -0.5376793294066532 -0.08824349457257501 -0.25885801537233294
			vertex -0.5495375937355111 -0.10197768597037347 -0.25885801537233294
			vertex -0.5094654504491679 -0.11563770815990843 -0.25885801537233294
		endloop
	endfacet
	facet normal 0 0 1
		outer loop
			vertex -0.5495375937355111 -0.10197768597037347 -0.25885801537233294
			vertex -0.5506833589756214 -0.11740221580634579 -0.25885801537233294
			vertex -0.5094654504491679 -0.11563770815990843 -0.25885801537233294
		endloop
	endfacet
	facet normal 0 0 1
		outer loop
			vertex -0.5506833589756214 -0.11740221580634579 -0.25885801537233294
			vertex -0.5483298399213401 -0.12890401503819565 -0.25885801537233294
			vertex -0.5094654504491679 -0.11563770815990843 -0.25885801537233294
		endloop
	endfacet
	facet normal 0 0 1
		outer loop
			vertex -0.5483298399213401 -0.12890401503819565 -0.25885801537233294
			vertex -0.5428199481298319 -0.1456252786949763 -0.25885801537233294
			vertex -0.5094654504491679 -0.11563770815990843 -0.25885801537233294
		endloop
	endfacet
	facet normal 0 0 1
		outer loop
			vertex -0.5428199481298319 -0.1456252786949763 -0.25885801537233294
			vertex -0.533762831686461 -0.1572998084079164 -0.25885801537233294
			vertex -0.5094654504491679 -0.11563770815990843 -0.25885801537233294
		endloop
	endfacet
	facet normal 0 0 1
		outer loop
			vertex -0.533762831686461 -0.1572998084079164 -0.25885801537233294
			vertex -0.5160353567635738 -0.1677620876369161 -0.25885801537233294
			vertex -0.5094654504491679 -0.11563770815990843 -0.25885801537233294
		endloop
	endfacet
	facet normal 0 0 -1
		outer loop
			vertex -0.4939015322492999 -0.1662054025858205 -1.3207580153723328
			vertex -0.5160353567635738 -0.16776208763691638 -1.3207580153723328
			vertex -0.5094654504491679 -0.11563770815990873 -1.3207580153723328
		endloop
	endfacet
	facet normal 0 0 -1
		outer loop
			vertex -0.4650235365155784 -0.1673528803507394 -1.3207580153723328
			vertex -0.4939015322492999 -0.1662054025858205 -1.3207580153723328
			vertex -0.5094654504491679 -0.11563770815990873 -1.3207580153723328
		endloop
	endfacet
	facet normal 0 0 -1
		outer loop
			vertex -0.44691055787235834 -0.1487991040240666 -1.3207580153723328
			vertex -0.4650235365155784 -0.1673528803507394 -1.3207580153723328
			vertex -0.5094654504491679 -0.11563770815990873 -1.3207580153723328
		endloop
	endfacet
	facet normal 0 0 -1
		outer loop
			vertex -0.4525824710502432 -0.12078645017732585 -1.3207580153723328
			vertex -0.44691055787235834 -0.1487991040240666 -1.3207580153723328
			vertex -0.5094654504491679 -0.11563770815990873 -1.3207580153723328
		endloop
	endfacet
	facet normal 0 0 -1
		outer loop
			vertex -0.46103249228034887 -0.1060058268697689 -1.3207580153723328
			vertex -0.4525824710502432 -0.12078645017732585 -1.3207580153723328
			vertex -0.5094654504491679 -0.11563770815990873 -1.3207580153723328
		endloop
	endfacet
	facet normal 0 0 -1
		outer loop
			vertex -0.4679723629614539 -0.0808213620887312 -1.3207580153723328
			vertex -0.46103249228034887 -0.1060058268697689 -1.3207580153723328
			vertex -0.5094654504491679 -0.11563770815990873 -1.3207580153723328
		endloop
	endfacet
	facet normal 0 0 -1
		outer loop
			vertex -0.48004147975380385 -0.06936090142260086 -1.3207580153723328
			vertex -0.4679723629614539 -0.0808213620887312 -1.3207580153723328
			vertex -0.5094654504491679 -0.11563770815990873 -1.3207580153723328
		endloop
	endfacet
	facet normal 0 0 -1
		outer loop
			vertex -0.5090465076737345 -0.058642925355616875 -1.3207580153723328
			vertex -0.48004147975380385 -0.06936090142260086 -1.3207580153723328
			vertex -0.5094654504491679 -0.11563770815990873 -1.3207580153723328
		endloop
	endfacet
	facet normal 0 0 -1
		outer loop
			vertex -0.5336256884270837 -0.07059247552651532 -1.3207580153723328
			vertex -0.5090465076737345 -0.058642925355616875 -1.3207580153723328
			vertex -0.5094654504491679 -0.11563770815990873 -1.3207580153723328
		endloop
	endfacet
	facet normal 0 0 -1
		outer loop
			vertex -0.5376793294066532 -0.0882434945725753 -1.3207580153723328
			vertex -0.5336256884270837 -0.07059247552651532 -1.3207580153723328
			vertex -0.5094654504491679 -0.11563770815990873 -1.3207580153723328
		endloop
	endfacet
	facet normal 0 0 -1
		outer loop
			vertex -0.5495375937355111 -0.10197768597037377 -1.3207580153723328
			vertex -0.5376793294066532 -0.0882434945725753 -1.3207580153723328
			vertex -0.5094654504491679 -0.11563770815990873 -1.3207580153723328
		endloop
	endfacet
	facet normal 0 0 -1
		outer loop
			vertex -0.5506833589756214 -0.11740221580634608 -1.3207580153723328
			vertex -0.5495375937355111 -0.10197768597037377 -1.3207580153723328
			vertex -0.5094654504491679 -0.11563770815990873 -1.3207580153723328
		endloop
	endfacet
	facet normal 0 0 -1
		outer loop
			vertex -0.5483298399213401 -0.12890401503819596 -1.3207580153723328
			vertex -0.5506833589756214 -0.11740221580634608 -1.3207580153723328
			vertex -0.5094654504491679 -0.11563770815990873 -1.3207580153723328
		endloop
	endfacet
	facet normal 0 0 -1
		outer loop
			vertex -0.5428199481298319 -0.1456252786949766 -1.3207580153723328
			vertex -0.5483298399213401 -0.12890401503819596 -1.3207580153723328
			vertex -0.5094654504491679 -0.11563770815990873 -1.3207580153723328
		endloop
	endfacet
	facet normal 0 0 -1
		outer loop
			vertex -0.533762831686461 -0.15729980840791669 -1.3207580153723328
			vertex -0.5428199481298319 -0.1456252786949766 -1.3207580153723328
			vertex -0.5094654504491679 -0.11563770815990873 -1.3207580153723328
		endloop
	endfacet
	facet normal 0 0 -1
		outer loop
			vertex -0.5160353567635738 -0.16776208763691638 -1.3207580153723328
			vertex -0.533762831686461 -0.15729980840791669 -1.3207580153723328
			vertex -0.5094654504491679 -0.11563770815990873 -1.3207580153723328
		endloop
	endfacet
	facet normal 0.275785587368388 -0.9612191788556205 2.0775787899596728e-16
		outer loop
			vertex -0.7362874305440776 0.024616298675537628 -0.06385087921917763
			vertex -0.7362874305440776 0.024616298675537156 -2.2469028983507457
			vertex -0.7115879693700664 0.03170287742614752 -2.2469028983507457
		endloop
	endfacet
	facet normal 0.275785587368388 -0.9612191788556205 2.0775787899596728e-16
		outer loop
			vertex -0.7362874305440776 0.024616298675537628 -0.06385087921917763
			vertex -0.7115879693700664 0.03170287742614752 -2.2469028983507457
			vertex -0.7115879693700664 0.03170287742614799 -0.06385087921917763
		endloop
	endfacet
	facet normal 0.28983804319044587 -0.9570757068902822 2.0686230911332843e-16
		outer loop
			vertex -0.7115879693700664 0.03170287742614799 -0.06385087921917763
			vertex -0.7115879693700664 0.03170287742614752 -2.2469028983507457
			vertex -0.6879441478444926 0.038863104057312074 -2.2469028983507457
		endloop
	endfacet
	facet normal 0.28983804319044637 -0.957075706890282 2.1294649467548509e-16
		outer loop
			vertex -0.7115879693700664 0.03170287742614799 -0.06385087921917763
			vertex -0.6879441478444926 0.038863104057312074 -2.2469028983507457
			vertex -0.6879441478444926 0.03886310405731256 -0.06385087921917763
		endloop
	endfacet
	facet normal 0.775747293406431 -0.6310436884817063 1.4040534148117623e-16
		outer loop
			vertex -0.6879441478444926 0.03886310405731256 -0.06385087921917763
			vertex -0.6879441478444926 0.038863104057312074 -2.2469028983507457
			vertex -0.6652217319204204 0.06679596033096323 -2.2469028983507457
		endloop
	endfacet
	facet normal 0.775747293406431 -0.6310436884817061 1.4441692266635265e-16
		outer loop
			vertex -0.6879441478444926 0.03886310405731256 -0.06385087921917763
			vertex -0.6652217319204204 0.06679596033096323 -2.2469028983507457
			vertex -0.6652217319204204 0.06679596033096373 -0.06385087921917763
		endloop
	endfacet
	facet normal 0.998152422140388 0.06075970848577749 -1.3905107176862347e-17
		outer loop
			vertex -0.6652217319204204 0.06679596033096373 -0.06385087921917763
			vertex -0.6652217319204204 0.06679596033096323 -2.2469028983507457
			vertex -0.667261594362437 0.10030654963552967 -2.2469028983507457
		endloop
	endfacet
	facet normal 0.9981524221403881 0.06075970848577752 -1.3518854199727287e-17
		outer loop
			vertex -0.6652217319204204 0.06679596033096373 -0.06385087921917763
			vertex -0.667261594362437 0.10030654963552967 -2.2469028983507457
			vertex -0.667261594362437 0.10030654963553015 -0.06385087921917763
		endloop
	endfacet
	facet normal 0.9150208665356072 -0.40340651185178794 8.975674756934428e-17
		outer loop
			vertex -0.667261594362437 0.10030654963553015 -0.06385087921917763
			vertex -0.667261594362437 0.10030654963552967 -2.2469028983507457
			vertex -0.652111912508189 0.13466959190368674 -2.2469028983507457
		endloop
	endfacet
	facet normal 0.9150208665356072 -0.4034065118517881 8.719226906736306e-17
		outer loop
			vertex -0.667261594362437 0.10030654963553015 -0.06385087921917763
			vertex -0.652111912508189 0.13466959190368674 -2.2469028983507457
			vertex -0.652111912508189 0.1346695919036872 -0.06385087921917763
		endloop
	endfacet
	facet normal 0.9998153015537657 -0.01921881315150675 4.153953588327839e-18
		outer loop
			vertex -0.652111912508189 0.1346695919036872 -0.06385087921917763
			vertex -0.652111912508189 0.13466959190368674 -2.2469028983507457
			vertex -0.6514629844381206 0.16842860755920439 -2.2469028983507457
		endloop
	endfacet
	facet normal 0.9998153015537657 -0.01921881315150675 4.153953588327839e-18
		outer loop
			vertex -0.652111912508189 0.1346695919036872 -0.06385087921917763
			vertex -0.6514629844381206 0.16842860755920439 -2.2469028983507457
			vertex -0.6514629844381206 0.16842860755920486 -0.06385087921917763
		endloop
	endfacet
	facet normal 0.9924201822177117 -0.12289093508865563 2.6561642322042293e-17
		outer loop
			vertex -0.6514629844381206 0.16842860755920486 -0.06385087921917763
			vertex -0.6514629844381206 0.16842860755920439 -2.2469028983507457
			vertex -0.6464599994375103 0.20883080062866244 -2.2469028983507457
		endloop
	endfacet
	facet normal 0.9924201822177117 -0.12289093508865563 2.6561642322042293e-17
		outer loop
			vertex -0.6514629844381206 0.16842860755920486 -0.06385087921917763
			vertex -0.6464599994375103 0.20883080062866244 -2.2469028983507457
			vertex -0.6464599994375103 0.2088308006286629 -0.06385087921917763
		endloop
	endfacet
	facet normal 0.25082913648658617 0.9680313756740501 -2.0923026697306214e-16
		outer loop
			vertex -0.6464599994375103 0.2088308006286629 -0.06385087921917763
			vertex -0.6464599994375103 0.20883080062866244 -2.2469028983507457
			vertex -0.7353134428187006 0.2318538482666019 -2.2469028983507457
		endloop
	endfacet
	facet normal 0.25082913648658645 0.9680313756740498 -2.215379297361834e-16
		outer loop
			vertex -0.6464599994375103 0.2088308006286629 -0.06385087921917763
			vertex -0.7353134428187006 0.2318538482666019 -2.2469028983507457
			vertex -0.7353134428187006 0.2318538482666024 -0.06385087921917763
		endloop
	endfacet
	facet normal -0.3621328675336818 0.9321264861872733 -2.1332094929092844e-16
		outer loop
			vertex -0.7353134428187006 0.2318538482666024 -0.06385087921917763
			vertex -0.7353134428187006 0.2318538482666019 -2.2469028983507457
			vertex -0.766645876379191 0.21968113975524936 -2.2469028983507457
		endloop
	endfacet
	facet normal -0.3621328675336825 0.932126486187273 -2.0146978544143233e-16
		outer loop
			vertex -0.7353134428187006 0.2318538482666024 -0.06385087921917763
			vertex -0.766645876379191 0.21968113975524936 -2.2469028983507457
			vertex -0.766645876379191 0.21968113975524983 -0.06385087921917763
		endloop
	endfacet
	facet normal -0.847455415202359 0.5308665738622065 -1.1474148231912706e-16
		outer loop
			vertex -0.766645876379191 0.21968113975524983 -0.06385087921917763
			vertex -0.766645876379191 0.21968113975524936 -2.2469028983507457
			vertex -0.8018810640050761 0.16343301258087187 -2.2469028983507457
		endloop
	endfacet
	facet normal -0.8474554152023591 0.5308665738622063 -1.0799198335917838e-16
		outer loop
			vertex -0.766645876379191 0.21968113975524983 -0.06385087921917763
			vertex -0.8018810640050761 0.16343301258087187 -2.2469028983507457
			vertex -0.8018810640050761 0.1634330125808723 -0.06385087921917763
		endloop
	endfacet
	facet normal -0.9313178393639667 0.36420747120622465 -7.408921395001993e-17
		outer loop
			vertex -0.8018810640050761 0.1634330125808723 -0.06385087921917763
			vertex -0.8018810640050761 0.16343301258087187 -2.2469028983507457
			vertex -0.8143679145528666 0.1315027871131899 -2.2469028983507457
		endloop
	endfacet
	facet normal -0.9313178393639665 0.36420747120622493 -7.871978982189622e-17
		outer loop
			vertex -0.8018810640050761 0.1634330125808723 -0.06385087921917763
			vertex -0.8143679145528666 0.1315027871131899 -2.2469028983507457
			vertex -0.8143679145528666 0.13150278711319038 -0.06385087921917763
		endloop
	endfacet
	facet normal -0.6603345639944684 0.7509715464611394 -1.6231496323745615e-16
		outer loop
			vertex -0.8143679145528666 0.13150278711319038 -0.06385087921917763
			vertex -0.8143679145528666 0.1315027871131899 -2.2469028983507457
			vertex -0.8551500789358012 0.09564274306297317 -2.2469028983507457
		endloop
	endfacet
	facet normal -0.6603345639944684 0.7509715464611394 -1.6231496323745615e-16
		outer loop
			vertex -0.8143679145528666 0.13150278711319038 -0.06385087921917763
			vertex -0.8551500789358012 0.09564274306297317 -2.2469028983507457
			vertex -0.8551500789358012 0.09564274306297364 -0.06385087921917763
		endloop
	endfacet
	facet normal -0.9500190675996648 0.3121918820165949 -6.747714223175039e-17
		outer loop
			vertex -0.8551500789358012 0.09564274306297364 -0.06385087921917763
			vertex -0.8551500789358012 0.09564274306297317 -2.2469028983507457
			vertex -0.8639373481466166 0.0689025432586671 -2.2469028983507457
		endloop
	endfacet
	facet normal -0.9500190675996648 0.31219188201659503 -6.946176406209602e-17
		outer loop
			vertex -0.8551500789358012 0.09564274306297364 -0.06385087921917763
			vertex -0.8639373481466166 0.0689025432586671 -2.2469028983507457
			vertex -0.8639373481466166 0.06890254325866758 -0.06385087921917763
		endloop
	endfacet
	facet normal -0.9985125830355135 -0.05452175272079078 1.2130927618233832e-17
		outer loop
			vertex -0.8639373481466166 0.06890254325866758 -0.06385087921917763
			vertex -0.8639373481466166 0.0689025432586671 -2.2469028983507457
			vertex -0.8618146693899027 0.030027757644653368 -2.2469028983507457
		endloop
	endfacet
	facet normal -0.9985125830355135 -0.05452175272079076 1.178432968628429e-17
		outer loop
			vertex -0.8639373481466166 0.06890254325866758 -0.06385087921917763
			vertex -0.8618146693899027 0.030027757644653368 -2.2469028983507457
			vertex -0.8618146693899027 0.03002775764465384 -0.06385087921917763
		endloop
	endfacet
	facet normal -0.9048118319998492 -0.4258116352016192 9.203491162818435e-17
		outer loop
			vertex -0.8618146693899027 0.03002775764465384 -0.06385087921917763
			vertex -0.8618146693899027 0.030027757644653368 -2.2469028983507457
			vertex -0.8379480537130228 -0.020686676788330107 -2.2469028983507457
		endloop
	endfacet
	facet normal -0.9048118319998493 -0.4258116352016192 9.203491162818435e-17
		outer loop
			vertex -0.8618146693899027 0.03002775764465384 -0.06385087921917763
			vertex -0.8379480537130228 -0.020686676788330107 -2.2469028983507457
			vertex -0.8379480537130228 -0.020686676788329635 -0.06385087921917763
		endloop
	endfacet
	facet normal 0.40704218219840266 -0.9134093616288168 1.9742426680769284e-16
		outer loop
			vertex -0.8379480537130228 -0.020686676788329635 -0.06385087921917763
			vertex -0.8379480537130228 -0.020686676788330107 -2.2469028983507457
			vertex -0.7362874305440776 0.024616298675537156 -2.2469028983507457
		endloop
	endfacet
	facet normal 0.40704218219840266 -0.9134093616288168 1.9742426680769284e-16
		outer loop
			vertex -0.8379480537130228 -0.020686676788329635 -0.06385087921917763
			vertex -0.7362874305440776 0.024616298675537156 -2.2469028983507457
			vertex -0.7362874305440776 0.024616298675537628 -0.06385087921917763
		endloop
	endfacet
	facet normal 0 0 1
		outer loop
			vertex -0.7362874305440776 0.024616298675537628 -0.06385087921917763
			vertex -0.7115879693700664 0.03170287742614799 -0.06385087921917763
			vertex -0.7362874305440776 0.09974499549865785 -0.06385087921917763
		endloop
	endfacet
	facet normal 0 0 1
		outer loop
			vertex -0.7115879693700664 0.03170287742614799 -0.06385087921917763
			vertex -0.6879441478444926 0.03886310405731256 -0.06385087921917763
			vertex -0.7362874305440776 0.09974499549865785 -0.06385087921917763
		endloop
	endfacet
	facet normal 0 0 1
		outer loop
			vertex -0.6879441478444926 0.03886310405731256 -0.06385087921917763
			vertex -0.6652217319204204 0.06679596033096373 -0.06385087921917763
			vertex -0.7362874305440776 0.09974499549865785 -0.06385087921917763
		endloop
	endfacet
	facet normal 0 0 1
		outer loop
			vertex -0.6652217319204204 0.06679596033096373 -0.06385087921917763
			vertex -0.667261594362437 0.10030654963553015 -0.06385087921917763
			vertex -0.7362874305440776 0.09974499549865785 -0.06385087921917763
		endloop
	endfacet
	facet normal 0 0 1
		outer loop
			vertex -0.667261594362437 0.10030654963553015 -0.06385087921917763
			vertex -0.652111912508189 0.1346695919036872 -0.06385087921917763
			vertex -0.7362874305440776 0.09974499549865785 -0.06385087921917763
		endloop
	endfacet
	facet normal 0 0 1
		outer loop
			vertex -0.652111912508189 0.1346695919036872 -0.06385087921917763
			vertex -0.6514629844381206 0.16842860755920486 -0.06385087921917763
			vertex -0.7362874305440776 0.09974499549865785 -0.06385087921917763
		endloop
	endfacet
	facet normal 0 0 1
		outer loop
			vertex -0.6514629844381206 0.16842860755920486 -0.06385087921917763
			vertex -0.6464599994375103 0.2088308006286629 -0.06385087921917763
			vertex -0.7362874305440776 0.09974499549865785 -0.06385087921917763
		endloop
	endfacet
	facet normal 0 0 1
		outer loop
			vertex -0.6464599994375103 0.2088308006286629 -0.06385087921917763
			vertex -0.7353134428187006 0.2318538482666024 -0.06385087921917763
			vertex -0.7362874305440776 0.09974499549865785 -0.06385087921917763
		endloop
	endfacet
	facet normal 0 0 1
		outer loop
			vertex -0.7353134428187006 0.2318538482666024 -0.06385087921917763
			vertex -0.766645876379191 0.21968113975524983 -0.06385087921917763
			vertex -0.7362874305440776 0.09974499549865785 -0.06385087921917763
		endloop
	endfacet
	facet normal 0 0 1
		outer loop
			vertex -0.766645876379191 0.21968113975524983 -0.06385087921917763
			vertex -0.8018810640050761 0.1634330125808723 -0.06385087921917763
			vertex -0.7362874305440776 0.09974499549865785 -0.06385087921917763
		endloop
	endfacet
	facet normal 0 0 1
		outer loop
			vertex -0.8018810640050761 0.1634330125808723 -0.06385087921917763
			vertex -0.8143679145528666 0.13150278711319038 -0.06385087921917763
			vertex -0.7362874305440776 0.09974499549865785 -0.06385087921917763
		endloop
	endfacet
	facet normal 0 0 1
		outer loop
			vertex -0.8143679145528666 0.13150278711319038 -0.06385087921917763
			vertex -0.8551500789358012 0.09564274306297364 -0.06385087921917763
			vertex -0.7362874305440776 0.09974499549865785 -0.06385087921917763
		endloop
	endfacet
	facet normal 0 0 1
		outer loop
			vertex -0.8551500789358012 0.09564274306297364 -0.06385087921917763
			vertex -0.8639373481466166 0.06890254325866758 -0.06385087921917763
			vertex -0.7362874305440776 0.09974499549865785 -0.06385087921917763
		endloop
	endfacet
	facet normal 0 0 1
		outer loop
			vertex -0.8639373481466166 0.06890254325866758 -0.06385087921917763
			vertex -0.8618146693899027 0.03002775764465384 -0.06385087921917763
			vertex -0.7362874305440776 0.09974499549865785 -0.06385087921917763
		endloop
	endfacet
	facet normal 0 0 1
		outer loop
			vertex -0.8618146693899027 0.03002775764465384 -0.06385087921917763
			vertex -0.8379480537130228 -0.020686676788329635 -0.06385087921917763
			vertex -0.7362874305440776 0.09974499549865785 -0.06385087921917763
		endloop
	endfacet
	facet normal 0 0 1
		outer loop
			vertex -0.8379480537130228 -0.020686676788329635 -0.06385087921917763
			vertex -0.7362874305440776 0.024616298675537628 -0.06385087921917763
			vertex -0.7362874305440776 0.09974499549865785 -0.06385087921917763
		endloop
	endfacet
	facet normal 0 0 -1
		outer loop
			vertex -0.7115879693700664 0.03170287742614752 -2.2469028983507457
			vertex -0.7362874305440776 0.024616298675537156 -2.2469028983507457
			vertex -0.7362874305440776 0.09974499549865738 -2.2469028983507457
		endloop
	endfacet
	facet normal 0 0 -1
		outer loop
			vertex -0.6879441478444926 0.038863104057312074 -2.2469028983507457
			vertex -0.7115879693700664 0.03170287742614752 -2.2469028983507457
			vertex -0.7362874305440776 0.09974499549865738 -2.2469028983507457
		endloop
	endfacet
	facet normal 0 0 -1
		outer loop
			vertex -0.6652217319204204 0.06679596033096323 -2.2469028983507457
			vertex -0.6879441478444926 0.038863104057312074 -2.2469028983507457
			vertex -0.7362874305440776 0.09974499549865738 -2.2469028983507457
		endloop
	endfacet
	facet normal 0 0 -1
		outer loop
			vertex -0.667261594362437 0.10030654963552967 -2.2469028983507457
			vertex -0.6652217319204204 0.06679596033096323 -2.2469028983507457
			vertex -0.7362874305440776 0.09974499549865738 -2.2469028983507457
		endloop
	endfacet
	facet normal 0 0 -1
		outer loop
			vertex -0.652111912508189 0.13466959190368674 -2.2469028983507457
			vertex -0.667261594362437 0.10030654963552967 -2.2469028983507457
			vertex -0.7362874305440776 0.09974499549865738 -2.2469028983507457
		endloop
	endfacet
	facet normal 0 0 -1
		outer loop
			vertex -0.6514629844381206 0.16842860755920439 -2.2469028983507457
			vertex -0.652111912508189 0.13466959190368674 -2.2469028983507457
			vertex -0.7362874305440776 0.09974499549865738 -2.2469028983507457
		endloop
	endfacet
	facet normal 0 0 -1
		outer loop
			vertex -0.6464599994375103 0.20883080062866244 -2.2469028983507457
			vertex -0.6514629844381206 0.16842860755920439 -2.2469028983507457
			vertex -0.7362874305440776 0.09974499549865738 -2.2469028983507457
		endloop
	endfacet
	facet normal 0 0 -1
		outer loop
			vertex -0.7353134428187006 0.2318538482666019 -2.2469028983507457
			vertex -0.6464599994375103 0.20883080062866244 -2.2469028983507457
			vertex -0.7362874305440776 0.09974499549865738 -2.2469028983507457
		endloop
	endfacet
	facet normal 0 0 -1
		outer loop
			vertex -0.766645876379191 0.21968113975524936 -2.2469028983507457
			vertex -0.7353134428187006 0.2318538482666019 -2.2469028983507457
			vertex -0.7362874305440776 0.09974499549865738 -2.2469028983507457
		endloop
	endfacet
	facet normal 0 0 -1
		outer loop
			vertex -0.8018810640050761 0.16343301258087187 -2.2469028983507457
			vertex -0.766645876379191 0.21968113975524936 -2.2469028983507457
			vertex -0.7362874305440776 0.09974499549865738 -2.2469028983507457
		endloop
	endfacet
	facet normal 0 0 -1
		outer loop
			vertex -0.8143679145528666 0.1315027871131899 -2.2469028983507457
			vertex -0.8018810640050761 0.16343301258087187 -2.2469028983507457
			vertex -0.7362874305440776 0.09974499549865738 -2.2469028983507457
		endloop
	endfacet
	facet normal 0 0 -1
		outer loop
			vertex -0.8551500789358012 0.09564274306297317 -2.2469028983507457
			vertex -0.8143679145528666 0.1315027871131899 -2.2469028983507457
			vertex -0.7362874305440776 0.09974499549865738 -2.2469028983507457
		endloop
	endfacet
	facet normal 0 0 -1
		outer loop
			vertex -0.8639373481466166 0.0689025432586671 -2.2469028983507457
			vertex -0.8551500789358012 0.09564274306297317 -2.2469028983507457
			vertex -0.7362874305440776 0.09974499549865738 -2.2469028983507457
		endloop
	endfacet
	facet normal 0 0 -1
		outer loop
			vertex -0.8618146693899027 0.030027757644653368 -2.2469028983507457
			vertex -0.8639373481466166 0.0689025432586671 -2.2469028983507457
			vertex -0.7362874305440776 0.09974499549865738 -2.2469028983507457
		endloop
	endfacet
	facet normal 0 0 -1
		outer loop
			vertex -0.8379480537130228 -0.020686676788330107 -2.2469028983507457
			vertex -0.8618146693899027 0.030027757644653368 -2.2469028983507457
			vertex -0.7362874305440776 0.09974499549865738 -2.2469028983507457
		endloop
	endfacet
	facet normal 0 0 -1
		outer loop
			vertex -0.7362874305440776 0.024616298675537156 -2.2469028983507457
			vertex -0.8379480537130228 -0.020686676788330107 -2.2469028983507457
			vertex -0.7362874305440776 0.09974499549865738 -2.2469028983507457
		endloop
	endfacet
	facet normal 0.27578723298857977 -0.9612187067054526 2.0822775398547105e-16
		outer loop
			vertex -0.6854183496190899 -0.23806012770794277 -0.06385087921917754
			vertex -0.6854183496190899 -0.2380601277079431 -1.6013507361680301
			vertex -0.635431328649699 -0.22371814486645142 -1.6013507361680301
		endloop
	endfacet
	facet normal 0.2757872329885798 -0.9612187067054526 2.0822775398547105e-16
		outer loop
			vertex -0.6854183496190899 -0.23806012770794277 -0.06385087921917754
			vertex -0.635431328649699 -0.22371814486645142 -1.6013507361680301
			vertex -0.635431328649699 -0.22371814486645109 -0.06385087921917754
		endloop
	endfacet
	facet normal 0.3544605260023704 -0.9350709788599596 2.0256340038612023e-16
		outer loop
			vertex -0.635431328649699 -0.22371814486645109 -0.06385087921917754
			vertex -0.635431328649699 -0.22371814486645142 -1.6013507361680301
			vertex -0.5361596511556499 -0.18608689353130736 -1.6013507361680301
		endloop
	endfacet
	facet normal 0.3544605260023704 -0.9350709788599596 2.0256340038612023e-16
		outer loop
			vertex -0.635431328649699 -0.22371814486645109 -0.06385087921917754
			vertex -0.5361596511556499 -0.18608689353130736 -1.6013507361680301
			vertex -0.5361596511556499 -0.18608689353130703 -0.06385087921917754
		endloop
	endfacet
	facet normal 0.8499427124632921 -0.5268751137893513 1.141363779230055e-16
		outer loop
			vertex -0.5361596511556499 -0.18608689353130703 -0.06385087921917754
			vertex -0.5361596511556499 -0.18608689353130736 -1.6013507361680301
			vertex -0.49115857064264945 -0.11349219426773467 -1.601347302940491
		endloop
	endfacet
	facet normal 0.8661600784753797 -0.49976358334540866 0.0017547698655728105
		outer loop
			vertex -0.5361596511556499 -0.18608689353130703 -0.06385087921917754
			vertex -0.49115857064264945 -0.11349219426773467 -1.601347302940491
			vertex -0.4942734063817852 -0.11349219426773433 -0.06385431244671658
		endloop
	endfacet
	facet normal 0.9670826829497147 0.2544548010025468 0.001959230853197931
		outer loop
			vertex -0.4942734063817852 -0.11349219426773433 -0.06385431244671658
			vertex -0.49115857064264945 -0.11349219426773467 -1.601347302940491
			vertex -0.5184898818685405 -0.009616596671566141 -1.6013507361680301
		endloop
	endfacet
	facet normal 0.9738850996000536 0.22704143405333213 -4.9183736796596425e-17
		outer loop
			vertex -0.4942734063817852 -0.11349219426773433 -0.06385431244671658
			vertex -0.5184898818685405 -0.009616596671566141 -1.6013507361680301
			vertex -0.5184898818685405 -0.009616596671565808 -0.06385087921917754
		endloop
	endfacet
	facet normal 0.8950524847479935 0.44596081615590727 -9.660800238891708e-17
		outer loop
			vertex -0.5184898818685405 -0.009616596671565808 -0.06385087921917754
			vertex -0.5184898818685405 -0.009616596671566141 -1.6013507361680301
			vertex -0.5472108281804913 0.048026930359378675 -1.6013507361680301
		endloop
	endfacet
	facet normal 0.8950524847479935 0.44596081615590727 -9.660800238891708e-17
		outer loop
			vertex -0.5184898818685405 -0.009616596671565808 -0.06385087921917754
			vertex -0.5472108281804913 0.048026930359378675 -1.6013507361680301
			vertex -0.5472108281804913 0.04802693035937901 -0.06385087921917754
		endloop
	endfacet
	facet normal 0.9978509689108562 -0.06552437595021776 1.4194473682454458e-17
		outer loop
			vertex -0.5472108281804913 0.04802693035937901 -0.06385087921917754
			vertex -0.5472108281804913 0.048026930359378675 -1.6013507361680301
			vertex -0.540833979959666 0.14513802960254274 -1.6013507361680301
		endloop
	endfacet
	facet normal 0.9978509689108562 -0.06552437595021776 1.4194473682454458e-17
		outer loop
			vertex -0.5472108281804913 0.04802693035937901 -0.06385087921917754
			vertex -0.540833979959666 0.14513802960254274 -1.6013507361680301
			vertex -0.540833979959666 0.14513802960254307 -0.06385087921917754
		endloop
	endfacet
	facet normal 0.8262389341893178 0.5633198235724534 -1.2203135542380552e-16
		outer loop
			vertex -0.540833979959666 0.14513802960254307 -0.06385087921917754
			vertex -0.540833979959666 0.14513802960254274 -1.6013507361680301
			vertex -0.5763220976545208 0.19718956997729864 -1.6013507361680301
		endloop
	endfacet
	facet normal 0.8262389341893182 0.5633198235724534 -1.2203135542380557e-16
		outer loop
			vertex -0.540833979959666 0.14513802960254307 -0.06385087921917754
			vertex -0.5763220976545208 0.19718956997729864 -1.6013507361680301
			vertex -0.5763220976545208 0.19718956997729897 -0.06385087921917765
		endloop
	endfacet
	facet normal 0.17020175592358708 0.9854092359423712 -2.1346812179727537e-16
		outer loop
			vertex -0.5763220976545208 0.19718956997729897 -0.06385087921917765
			vertex -0.5763220976545208 0.19718956997729864 -1.6013507361680301
			vertex -0.6581794940187328 0.2113281350407752 -1.6013507361680301
		endloop
	endfacet
	facet normal 0.17020172728204777 0.985409240889392 1.5703840696866913e-9
		outer loop
			vertex -0.5763220976545208 0.19718956997729897 -0.06385087921917765
			vertex -0.6581794940187328 0.2113281350407752 -1.6013507361680301
			vertex -0.6581795082046382 0.21132813504077552 -0.06385087921917765
		endloop
	endfacet
	facet normal -0.5696462105809866 0.8218900137918226 -5.255901339216452e-9
		outer loop
			vertex -0.6581795082046382 0.21132813504077552 -0.06385087921917765
			vertex -0.6581794940187328 0.2113281350407752 -1.6013507361680301
			vertex -0.7370659605218761 0.15665247776843633 -1.6013507361680301
		endloop
	endfacet
	facet normal -0.569646279777979 0.8218899658318677 -1.7804512169238096e-16
		outer loop
			vertex -0.6581795082046382 0.21132813504077552 -0.06385087921917765
			vertex -0.7370659605218761 0.15665247776843633 -1.6013507361680301
			vertex -0.7370659605218761 0.15665247776843666 -0.06385087921917754
		endloop
	endfacet
	facet normal -0.9574456615668674 0.28861359141035564 -6.252204570075487e-17
		outer loop
			vertex -0.7370659605218761 0.15665247776843666 -0.06385087921917754
			vertex -0.7370659605218761 0.15665247776843633 -1.6013507361680301
			vertex -0.7651797541334027 0.06338788273669803 -1.6013507361680301
		endloop
	endfacet
	facet normal -0.9574456615668674 0.28861359141035564 -6.252204570075487e-17
		outer loop
			vertex -0.7370659605218761 0.15665247776843666 -0.06385087921917754
			vertex -0.7651797541334027 0.06338788273669803 -1.6013507361680301
			vertex -0.7651797541334027 0.06338788273669836 -0.06385087921917754
		endloop
	endfacet
	facet normal -0.7543596319061742 0.6564613817661946 -1.4220850899987812e-16
		outer loop
			vertex -0.7651797541334027 0.06338788273669836 -0.06385087921917754
			vertex -0.7651797541334027 0.06338788273669803 -1.6013507361680301
			vertex -0.8371637643529766 -0.019331120940670146 -1.6013507361680301
		endloop
	endfacet
	facet normal -0.7543596319061744 0.6564613817661946 -1.4220850899987815e-16
		outer loop
			vertex -0.7651797541334027 0.06338788273669836 -0.06385087921917754
			vertex -0.8371637643529766 -0.019331120940670146 -1.6013507361680301
			vertex -0.8371637643529766 -0.019331120940669813 -0.06385087921917754
		endloop
	endfacet
	facet normal -0.9615876712198402 0.2744979973661095 -5.946420004762741e-17
		outer loop
			vertex -0.8371637643529766 -0.019331120940669813 -0.06385087921917754
			vertex -0.8371637643529766 -0.019331120940670146 -1.6013507361680301
			vertex -0.8561992391301982 -0.08601385829113399 -1.6013507361680301
		endloop
	endfacet
	facet normal -0.9615876712198401 0.2744979973661095 -6.194187504961188e-17
		outer loop
			vertex -0.8371637643529766 -0.019331120940669813 -0.06385087921917754
			vertex -0.8561992391301982 -0.08601385829113399 -1.6013507361680301
			vertex -0.8561992391301982 -0.08601385829113364 -0.06385087921917754
		endloop
	endfacet
	facet normal -0.8308915545021739 -0.5564343848621875 1.2556226082214995e-16
		outer loop
			vertex -0.8561992391301982 -0.08601385829113364 -0.06385087921917754
			vertex -0.8561992391301982 -0.08601385829113399 -1.6013507361680301
			vertex -0.8115429085447186 -0.15269659564159788 -1.6013507361680301
		endloop
	endfacet
	facet normal -0.830891554502174 -0.5564343848621875 1.2053977038926396e-16
		outer loop
			vertex -0.8561992391301982 -0.08601385829113364 -0.06385087921917754
			vertex -0.8115429085447186 -0.15269659564159788 -1.6013507361680301
			vertex -0.8115429085447186 -0.15269659564159754 -0.06385087921917754
		endloop
	endfacet
	facet normal -0.7723152700067628 -0.6352394223553676 1.376112192130061e-16
		outer loop
			vertex -0.8115429085447186 -0.15269659564159754 -0.06385087921917754
			vertex -0.8115429085447186 -0.15269659564159788 -1.6013507361680301
			vertex -0.7827758053495281 -0.18767124030254762 -1.6013507361680301
		endloop
	endfacet
	facet normal -0.7723152700067628 -0.6352394223553676 1.376112192130061e-16
		outer loop
			vertex -0.8115429085447186 -0.15269659564159754 -0.06385087921917754
			vertex -0.7827758053495281 -0.18767124030254762 -1.6013507361680301
			vertex -0.7827758053495281 -0.18767124030254728 -0.06385087921917754
		endloop
	endfacet
	facet normal -0.9762805426606574 -0.21650935781672914 4.690218467505243e-17
		outer loop
			vertex -0.7827758053495281 -0.18767124030254728 -0.06385087921917754
			vertex -0.7827758053495281 -0.18767124030254762 -1.6013507361680301
			vertex -0.7751263841344708 -0.22216388842724244 -1.6013507361680301
		endloop
	endfacet
	facet normal -0.9762805426606574 -0.21650935781672914 4.690218467505243e-17
		outer loop
			vertex -0.7827758053495281 -0.18767124030254728 -0.06385087921917754
			vertex -0.7751263841344708 -0.22216388842724244 -1.6013507361680301
			vertex -0.7751263841344708 -0.2221638884272421 -0.06385087921917754
		endloop
	endfacet
	facet normal -0.17448156197653572 -0.9846604412335395 2.133059112209221e-16
		outer loop
			vertex -0.7751263841344708 -0.2221638884272421 -0.06385087921917754
			vertex -0.7751263841344708 -0.22216388842724244 -1.6013507361680301
			vertex -0.6854183496190899 -0.2380601277079431 -1.6013507361680301
		endloop
	endfacet
	facet normal -0.17448156197653572 -0.9846604412335395 2.133059112209221e-16
		outer loop
			vertex -0.7751263841344708 -0.2221638884272421 -0.06385087921917754
			vertex -0.6854183496190899 -0.2380601277079431 -1.6013507361680301
			vertex -0.6854183496190899 -0.23806012770794277 -0.06385087921917754
		endloop
	endfacet
	facet normal 0 0 1
		outer loop
			vertex -0.6854183496190899 -0.23806012770794277 -0.06385087921917754
			vertex -0.635431328649699 -0.22371814486645109 -0.06385087921917754
			vertex -0.6854183496190899 -0.08601385829113369 -0.06385087921917754
		endloop
	endfacet
	facet normal 0 0 1
		outer loop
			vertex -0.635431328649699 -0.22371814486645109 -0.06385087921917754
			vertex -0.5361596511556499 -0.18608689353130703 -0.06385087921917754
			vertex -0.6854183496190899 -0.08601385829113369 -0.06385087921917754
		endloop
	endfacet
	facet normal 0.000022863632716769336 0.000034101054827216454 0.9999999991571863
		outer loop
			vertex -0.5361596511556499 -0.18608689353130703 -0.06385087921917754
			vertex -0.4942734063817852 -0.11349219426773433 -0.06385431244671658
			vertex -0.6854183496190899 -0.08601385829113369 -0.06385087921917754
		endloop
	endfacet
	facet normal 0.000013668108574384857 -0.000029864897942700834 0.9999999994606353
		outer loop
			vertex -0.4942734063817852 -0.11349219426773433 -0.06385431244671658
			vertex -0.5184898818685405 -0.009616596671565808 -0.06385087921917754
			vertex -0.6854183496190899 -0.08601385829113369 -0.06385087921917754
		endloop
	endfacet
	facet normal 0 0 1
		outer loop
			vertex -0.5184898818685405 -0.009616596671565808 -0.06385087921917754
			vertex -0.5472108281804913 0.04802693035937901 -0.06385087921917754
			vertex -0.6854183496190899 -0.08601385829113369 -0.06385087921917754
		endloop
	endfacet
	facet normal 0 0 1
		outer loop
			vertex -0.5472108281804913 0.04802693035937901 -0.06385087921917754
			vertex -0.540833979959666 0.14513802960254307 -0.06385087921917754
			vertex -0.6854183496190899 -0.08601385829113369 -0.06385087921917754
		endloop
	endfacet
	facet normal -1.6315747986232126e-15 1.0205420165966632e-15 1
		outer loop
			vertex -0.540833979959666 0.14513802960254307 -0.06385087921917754
			vertex -0.5763220976545208 0.19718956997729897 -0.06385087921917765
			vertex -0.6854183496190899 -0.08601385829113369 -0.06385087921917754
		endloop
	endfacet
	facet normal 6.348679657809574e-17 3.6756663414378407e-16 1
		outer loop
			vertex -0.5763220976545208 0.19718956997729897 -0.06385087921917765
			vertex -0.6581795082046382 0.21132813504077552 -0.06385087921917765
			vertex -0.6854183496190899 -0.08601385829113369 -0.06385087921917754
		endloop
	endfacet
	facet normal 1.2264502429113951e-15 2.6103012871948484e-16 1
		outer loop
			vertex -0.6581795082046382 0.21132813504077552 -0.06385087921917765
			vertex -0.7370659605218761 0.15665247776843666 -0.06385087921917754
			vertex -0.6854183496190899 -0.08601385829113369 -0.06385087921917754
		endloop
	endfacet
	facet normal 0 0 1
		outer loop
			vertex -0.7370659605218761 0.15665247776843666 -0.06385087921917754
			vertex -0.7651797541334027 0.06338788273669836 -0.06385087921917754
			vertex -0.6854183496190899 -0.08601385829113369 -0.06385087921917754
		endloop
	endfacet
	facet normal 0 0 1
		outer loop
			vertex -0.7651797541334027 0.06338788273669836 -0.06385087921917754
			vertex -0.8371637643529766 -0.019331120940669813 -0.06385087921917754
			vertex -0.6854183496190899 -0.08601385829113369 -0.06385087921917754
		endloop
	endfacet
	facet normal 0 0 1
		outer loop
			vertex -0.8371637643529766 -0.019331120940669813 -0.06385087921917754
			vertex -0.8561992391301982 -0.08601385829113364 -0.06385087921917754
			vertex -0.6854183496190899 -0.08601385829113369 -0.06385087921917754
		endloop
	endfacet
	facet normal 0 0 1
		outer loop
			vertex -0.8561992391301982 -0.08601385829113364 -0.06385087921917754
			vertex -0.8115429085447186 -0.15269659564159754 -0.06385087921917754
			vertex -0.6854183496190899 -0.08601385829113369 -0.06385087921917754
		endloop
	endfacet
	facet normal 0 0 1
		outer loop
			vertex -0.8115429085447186 -0.15269659564159754 -0.06385087921917754
			vertex -0.7827758053495281 -0.18767124030254728 -0.06385087921917754
			vertex -0.6854183496190899 -0.08601385829113369 -0.06385087921917754
		endloop
	endfacet
	facet normal 0 0 1
		outer loop
			vertex -0.7827758053495281 -0.18767124030254728 -0.06385087921917754
			vertex -0.7751263841344708 -0.2221638884272421 -0.06385087921917754
			vertex -0.6854183496190899 -0.08601385829113369 -0.06385087921917754
		endloop
	endfacet
	facet normal 0 0 1
		outer loop
			vertex -0.7751263841344708 -0.2221638884272421 -0.06385087921917754
			vertex -0.6854183496190899 -0.23806012770794277 -0.06385087921917754
			vertex -0.6854183496190899 -0.08601385829113369 -0.06385087921917754
		endloop
	endfacet
	facet normal 0 0 -1
		outer loop
			vertex -0.635431328649699 -0.22371814486645142 -1.6013507361680301
			vertex -0.6854183496190899 -0.2380601277079431 -1.6013507361680301
			vertex -0.6854183496190899 -0.08601385829113402 -1.6013507361680301
		endloop
	endfacet
	facet normal 0 0 -1
		outer loop
			vertex -0.5361596511556499 -0.18608689353130736 -1.6013507361680301
			vertex -0.635431328649699 -0.22371814486645142 -1.6013507361680301
			vertex -0.6854183496190899 -0.08601385829113402 -1.6013507361680301
		endloop
	endfacet
	facet normal 0.0000223990035235443 0.00003340806147009034 -0.9999999991910931
		outer loop
			vertex -0.49115857064264945 -0.11349219426773467 -1.601347302940491
			vertex -0.5361596511556499 -0.18608689353130736 -1.6013507361680301
			vertex -0.6854183496190899 -0.08601385829113402 -1.6013507361680301
		endloop
	endfacet
	facet normal 0.000013500692548894505 -0.00002949909293844354 -0.9999999994737674
		outer loop
			vertex -0.5184898818685405 -0.009616596671566141 -1.6013507361680301
			vertex -0.49115857064264945 -0.11349219426773467 -1.601347302940491
			vertex -0.6854183496190899 -0.08601385829113402 -1.6013507361680301
		endloop
	endfacet
	facet normal 0 0 -1
		outer loop
			vertex -0.5472108281804913 0.048026930359378675 -1.6013507361680301
			vertex -0.5184898818685405 -0.009616596671566141 -1.6013507361680301
			vertex -0.6854183496190899 -0.08601385829113402 -1.6013507361680301
		endloop
	endfacet
	facet normal 0 0 -1
		outer loop
			vertex -0.540833979959666 0.14513802960254274 -1.6013507361680301
			vertex -0.5472108281804913 0.048026930359378675 -1.6013507361680301
			vertex -0.6854183496190899 -0.08601385829113402 -1.6013507361680301
		endloop
	endfacet
	facet normal 0 0 -1
		outer loop
			vertex -0.5763220976545208 0.19718956997729864 -1.6013507361680301
			vertex -0.540833979959666 0.14513802960254274 -1.6013507361680301
			vertex -0.6854183496190899 -0.08601385829113402 -1.6013507361680301
		endloop
	endfacet
	facet normal 0 0 -1
		outer loop
			vertex -0.6581794940187328 0.2113281350407752 -1.6013507361680301
			vertex -0.5763220976545208 0.19718956997729864 -1.6013507361680301
			vertex -0.6854183496190899 -0.08601385829113402 -1.6013507361680301
		endloop
	endfacet
	facet normal 0 0 -1
		outer loop
			vertex -0.7370659605218761 0.15665247776843633 -1.6013507361680301
			vertex -0.6581794940187328 0.2113281350407752 -1.6013507361680301
			vertex -0.6854183496190899 -0.08601385829113402 -1.6013507361680301
		endloop
	endfacet
	facet normal 0 0 -1
		outer loop
			vertex -0.7651797541334027 0.06338788273669803 -1.6013507361680301
			vertex -0.7370659605218761 0.15665247776843633 -1.6013507361680301
			vertex -0.6854183496190899 -0.08601385829113402 -1.6013507361680301
		endloop
	endfacet
	facet normal 0 0 -1
		outer loop
			vertex -0.8371637643529766 -0.019331120940670146 -1.6013507361680301
			vertex -0.7651797541334027 0.06338788273669803 -1.6013507361680301
			vertex -0.6854183496190899 -0.08601385829113402 -1.6013507361680301
		endloop
	endfacet
	facet normal 0 0 -1
		outer loop
			vertex -0.8561992391301982 -0.08601385829113399 -1.6013507361680301
			vertex -0.8371637643529766 -0.019331120940670146 -1.6013507361680301
			vertex -0.6854183496190899 -0.08601385829113402 -1.6013507361680301
		endloop
	endfacet
	facet normal 0 0 -1
		outer loop
			vertex -0.8115429085447186 -0.15269659564159788 -1.6013507361680301
			vertex -0.8561992391301982 -0.08601385829113399 -1.6013507361680301
			vertex -0.6854183496190899 -0.08601385829113402 -1.6013507361680301
		endloop
	endfacet
	facet normal 0 0 -1
		outer loop
			vertex -0.7827758053495281 -0.18767124030254762 -1.6013507361680301
			vertex -0.8115429085447186 -0.15269659564159788 -1.6013507361680301
			vertex -0.6854183496190899 -0.08601385829113402 -1.6013507361680301
		endloop
	endfacet
	facet normal 0 0 -1
		outer loop
			vertex -0.7751263841344708 -0.22216388842724244 -1.6013507361680301
			vertex -0.7827758053495281 -0.18767124030254762 -1.6013507361680301
			vertex -0.6854183496190899 -0.08601385829113402 -1.6013507361680301
		endloop
	endfacet
	facet normal 0 0 -1
		outer loop
			vertex -0.6854183496190899 -0.2380601277079431 -1.6013507361680301
			vertex -0.7751263841344708 -0.22216388842724244 -1.6013507361680301
			vertex -0.6854183496190899 -0.08601385829113402 -1.6013507361680301
		endloop
	endfacet
endsolid exported
