solid exported
	facet normal 0.17870763919394608 -0.9839022205959933 2.756141882133285e-16
		outer loop
			vertex 0.07949875800609588 -0.2050819037165491 -0.1906144077860174
			vertex 0.07949875800609588 -0.20508190371654944 -1.379614407786017
			vertex 0.10260821933746336 -0.20088449751995519 -1.379614407786017
		endloop
	endfacet
	facet normal 0.1787076391939461 -0.9839022205959933 2.756141882133285e-16
		outer loop
			vertex 0.07949875800609588 -0.2050819037165491 -0.1906144077860174
			vertex 0.10260821933746336 -0.20088449751995519 -1.379614407786017
			vertex 0.10260821933746336 -0.20088449751995485 -0.1906144077860174
		endloop
	endfacet
	facet normal 0.6290253517025767 -0.7773847869076486 2.177637904335221e-16
		outer loop
			vertex 0.10260821933746336 -0.20088449751995485 -0.1906144077860174
			vertex 0.10260821933746336 -0.20088449751995519 -1.379614407786017
			vertex 0.1333705817222595 -0.17599295584820226 -1.379614407786017
		endloop
	endfacet
	facet normal 0.6290253517025767 -0.7773847869076486 2.177637904335221e-16
		outer loop
			vertex 0.10260821933746336 -0.20088449751995485 -0.1906144077860174
			vertex 0.1333705817222595 -0.17599295584820226 -1.379614407786017
			vertex 0.1333705817222595 -0.17599295584820193 -0.1906144077860174
		endloop
	endfacet
	facet normal 0.8721649391163885 -0.4892119366655995 1.370397870498602e-16
		outer loop
			vertex 0.1333705817222595 -0.17599295584820193 -0.1906144077860174
			vertex 0.1333705817222595 -0.17599295584820226 -1.379614407786017
			vertex 0.15033829355239867 -0.14574299208782623 -1.379614407786017
		endloop
	endfacet
	facet normal 0.8721649391163885 -0.4892119366655995 1.370397870498602e-16
		outer loop
			vertex 0.1333705817222595 -0.17599295584820193 -0.1906144077860174
			vertex 0.15033829355239867 -0.14574299208782623 -1.379614407786017
			vertex 0.15033829355239867 -0.1457429920878259 -0.1906144077860174
		endloop
	endfacet
	facet normal 0.8645817541313491 -0.5024921794646754 1.4075989587950187e-16
		outer loop
			vertex 0.15033829355239867 -0.1457429920878259 -0.1906144077860174
			vertex 0.15033829355239867 -0.14574299208782623 -1.379614407786017
			vertex 0.16270044584274287 -0.12447282759808012 -1.379614407786017
		endloop
	endfacet
	facet normal 0.8645817541313491 -0.5024921794646754 1.4075989587950187e-16
		outer loop
			vertex 0.15033829355239867 -0.1457429920878259 -0.1906144077860174
			vertex 0.16270044584274287 -0.12447282759808012 -1.379614407786017
			vertex 0.16270044584274287 -0.12447282759807979 -0.1906144077860174
		endloop
	endfacet
	facet normal 0.9150207114973904 -0.40340686351475186 1.1300376488626467e-16
		outer loop
			vertex 0.16270044584274287 -0.12447282759807979 -0.1906144077860174
			vertex 0.16270044584274287 -0.12447282759808012 -1.379614407786017
			vertex 0.17388236570358273 -0.09910962931774563 -1.379614407786017
		endloop
	endfacet
	facet normal 0.9150207114973904 -0.40340686351475186 1.1300376488626467e-16
		outer loop
			vertex 0.16270044584274287 -0.12447282759807979 -0.1906144077860174
			vertex 0.17388236570358273 -0.09910962931774563 -1.379614407786017
			vertex 0.17388236570358273 -0.09910962931774529 -0.1906144077860174
		endloop
	endfacet
	facet normal 0.964066882379533 0.26565964371542716 -7.441752392764922e-17
		outer loop
			vertex 0.17388236570358273 -0.09910962931774529 -0.1906144077860174
			vertex 0.17388236570358273 -0.09910962931774563 -1.379614407786017
			vertex 0.16197371778488157 -0.05589368235729637 -1.379614407786017
		endloop
	endfacet
	facet normal 0.964066882379533 0.26565964371542716 -7.441752392764922e-17
		outer loop
			vertex 0.17388236570358273 -0.09910962931774529 -0.1906144077860174
			vertex 0.16197371778488157 -0.05589368235729637 -1.379614407786017
			vertex 0.16197371778488157 -0.05589368235729604 -0.1906144077860174
		endloop
	endfacet
	facet normal 0.6885852120734353 0.7251554355541867 -2.0313311883541016e-16
		outer loop
			vertex 0.16197371778488157 -0.05589368235729604 -0.1906144077860174
			vertex 0.16197371778488157 -0.05589368235729637 -1.379614407786017
			vertex 0.14126339902877805 -0.036227803107723604 -1.379614407786017
		endloop
	endfacet
	facet normal 0.6885852120734353 0.7251554355541867 -2.0313311883541016e-16
		outer loop
			vertex 0.16197371778488157 -0.05589368235729604 -0.1906144077860174
			vertex 0.14126339902877805 -0.036227803107723604 -1.379614407786017
			vertex 0.14126339902877805 -0.03622780310772327 -0.1906144077860174
		endloop
	endfacet
	facet normal -0.09717049202010739 0.9952677506483221 -2.787979409007544e-16
		outer loop
			vertex 0.14126339902877805 -0.03622780310772327 -0.1906144077860174
			vertex 0.14126339902877805 -0.036227803107723604 -1.379614407786017
			vertex 0.09149145758152008 -0.04108716284893455 -1.379614407786017
		endloop
	endfacet
	facet normal -0.09717049202010739 0.9952677506483221 -2.787979409007544e-16
		outer loop
			vertex 0.14126339902877805 -0.03622780310772327 -0.1906144077860174
			vertex 0.09149145758152008 -0.04108716284893455 -1.379614407786017
			vertex 0.09149145758152008 -0.04108716284893422 -0.1906144077860174
		endloop
	endfacet
	facet normal -0.5557536430374675 0.8313470323821354 -2.3287988649397207e-16
		outer loop
			vertex 0.09149145758152008 -0.04108716284893422 -0.1906144077860174
			vertex 0.09149145758152008 -0.04108716284893455 -1.379614407786017
			vertex 0.06836513743400573 -0.056547056457027824 -1.379614407786017
		endloop
	endfacet
	facet normal -0.5557536430374675 0.8313470323821354 -2.3287988649397207e-16
		outer loop
			vertex 0.09149145758152008 -0.04108716284893422 -0.1906144077860174
			vertex 0.06836513743400573 -0.056547056457027824 -1.379614407786017
			vertex 0.06836513743400573 -0.05654705645702749 -0.1906144077860174
		endloop
	endfacet
	facet normal -0.42134609477813056 0.906899921940243 -2.540440305388096e-16
		outer loop
			vertex 0.06836513743400573 -0.05654705645702749 -0.1906144077860174
			vertex 0.06836513743400573 -0.056547056457027824 -1.379614407786017
			vertex 0.04235821027755738 -0.0686298860277981 -1.379614407786017
		endloop
	endfacet
	facet normal -0.42134609477813056 0.906899921940243 -2.540440305388096e-16
		outer loop
			vertex 0.06836513743400573 -0.05654705645702749 -0.1906144077860174
			vertex 0.04235821027755738 -0.0686298860277981 -1.379614407786017
			vertex 0.04235821027755738 -0.06862988602779777 -0.1906144077860174
		endloop
	endfacet
	facet normal -0.7569071856184055 0.6535223885676947 -1.8306701502839776e-16
		outer loop
			vertex 0.04235821027755738 -0.06862988602779777 -0.1906144077860174
			vertex 0.04235821027755738 -0.0686298860277981 -1.379614407786017
			vertex 0.022009718227386493 -0.09219743339680142 -1.379614407786017
		endloop
	endfacet
	facet normal -0.7569071856184055 0.6535223885676947 -1.8306701502839776e-16
		outer loop
			vertex 0.04235821027755738 -0.06862988602779777 -0.1906144077860174
			vertex 0.022009718227386493 -0.09219743339680142 -1.379614407786017
			vertex 0.022009718227386493 -0.09219743339680109 -0.1906144077860174
		endloop
	endfacet
	facet normal -0.9972524393878195 0.07407814883650689 -2.0751034430588535e-17
		outer loop
			vertex 0.022009718227386493 -0.09219743339680109 -0.1906144077860174
			vertex 0.022009718227386493 -0.09219743339680142 -1.379614407786017
			vertex 0.02004360628128053 -0.11866556151770064 -1.379614407786017
		endloop
	endfacet
	facet normal -0.9972524393878195 0.07407814883650689 -2.0751034430588535e-17
		outer loop
			vertex 0.022009718227386493 -0.09219743339680109 -0.1906144077860174
			vertex 0.02004360628128053 -0.11866556151770064 -1.379614407786017
			vertex 0.02004360628128053 -0.1186655615177003 -0.1906144077860174
		endloop
	endfacet
	facet normal -0.9797002387671119 -0.20046805770412446 5.615582507106902e-17
		outer loop
			vertex 0.02004360628128053 -0.1186655615177003 -0.1906144077860174
			vertex 0.02004360628128053 -0.11866556151770064 -1.379614407786017
			vertex 0.024082189273834244 -0.13840237528942537 -1.379614407786017
		endloop
	endfacet
	facet normal -0.9797002387671119 -0.20046805770412446 5.615582507106902e-17
		outer loop
			vertex 0.02004360628128053 -0.1186655615177003 -0.1906144077860174
			vertex 0.024082189273834244 -0.13840237528942537 -1.379614407786017
			vertex 0.024082189273834244 -0.13840237528942503 -0.1906144077860174
		endloop
	endfacet
	facet normal -0.9497659048658799 -0.3129612211669308 8.76678099800671e-17
		outer loop
			vertex 0.024082189273834244 -0.13840237528942503 -0.1906144077860174
			vertex 0.024082189273834244 -0.13840237528942537 -1.379614407786017
			vertex 0.03353703317642213 -0.16709566943310214 -1.379614407786017
		endloop
	endfacet
	facet normal -0.9497659048658799 -0.3129612211669308 8.76678099800671e-17
		outer loop
			vertex 0.024082189273834244 -0.13840237528942503 -0.1906144077860174
			vertex 0.03353703317642213 -0.16709566943310214 -1.379614407786017
			vertex 0.03353703317642213 -0.1670956694331018 -0.1906144077860174
		endloop
	endfacet
	facet normal -0.7901083718680942 -0.6129671775094889 1.717065451161977e-16
		outer loop
			vertex 0.03353703317642213 -0.1670956694331018 -0.1906144077860174
			vertex 0.03353703317642213 -0.16709566943310214 -1.379614407786017
			vertex 0.04907883062362671 -0.18712888610027748 -1.379614407786017
		endloop
	endfacet
	facet normal -0.7901083718680942 -0.6129671775094889 1.717065451161977e-16
		outer loop
			vertex 0.03353703317642213 -0.1670956694331018 -0.1906144077860174
			vertex 0.04907883062362671 -0.18712888610027748 -1.379614407786017
			vertex 0.04907883062362671 -0.18712888610027714 -0.1906144077860174
		endloop
	endfacet
	facet normal -0.5082593291241344 -0.8612040724231886 2.412435467044176e-16
		outer loop
			vertex 0.04907883062362671 -0.18712888610027714 -0.1906144077860174
			vertex 0.04907883062362671 -0.18712888610027748 -1.379614407786017
			vertex 0.07949875800609588 -0.20508190371654944 -1.379614407786017
		endloop
	endfacet
	facet normal -0.5082593291241344 -0.8612040724231886 2.412435467044176e-16
		outer loop
			vertex 0.04907883062362671 -0.18712888610027714 -0.1906144077860174
			vertex 0.07949875800609588 -0.20508190371654944 -1.379614407786017
			vertex 0.07949875800609588 -0.2050819037165491 -0.1906144077860174
		endloop
	endfacet
	facet normal 0 0 1
		outer loop
			vertex 0.07949875800609588 -0.2050819037165491 -0.1906144077860174
			vertex 0.10260821933746336 -0.20088449751995485 -0.1906144077860174
			vertex 0.09077256174087524 -0.1156377081599084 -0.1906144077860174
		endloop
	endfacet
	facet normal 0 0 1
		outer loop
			vertex 0.10260821933746336 -0.20088449751995485 -0.1906144077860174
			vertex 0.1333705817222595 -0.17599295584820193 -0.1906144077860174
			vertex 0.09077256174087524 -0.1156377081599084 -0.1906144077860174
		endloop
	endfacet
	facet normal 0 0 1
		outer loop
			vertex 0.1333705817222595 -0.17599295584820193 -0.1906144077860174
			vertex 0.15033829355239867 -0.1457429920878259 -0.1906144077860174
			vertex 0.09077256174087524 -0.1156377081599084 -0.1906144077860174
		endloop
	endfacet
	facet normal 0 0 1
		outer loop
			vertex 0.15033829355239867 -0.1457429920878259 -0.1906144077860174
			vertex 0.16270044584274287 -0.12447282759807979 -0.1906144077860174
			vertex 0.09077256174087524 -0.1156377081599084 -0.1906144077860174
		endloop
	endfacet
	facet normal 0 0 1
		outer loop
			vertex 0.16270044584274287 -0.12447282759807979 -0.1906144077860174
			vertex 0.17388236570358273 -0.09910962931774529 -0.1906144077860174
			vertex 0.09077256174087524 -0.1156377081599084 -0.1906144077860174
		endloop
	endfacet
	facet normal 0 0 1
		outer loop
			vertex 0.17388236570358273 -0.09910962931774529 -0.1906144077860174
			vertex 0.16197371778488157 -0.05589368235729604 -0.1906144077860174
			vertex 0.09077256174087524 -0.1156377081599084 -0.1906144077860174
		endloop
	endfacet
	facet normal 0 0 1
		outer loop
			vertex 0.16197371778488157 -0.05589368235729604 -0.1906144077860174
			vertex 0.14126339902877805 -0.03622780310772327 -0.1906144077860174
			vertex 0.09077256174087524 -0.1156377081599084 -0.1906144077860174
		endloop
	endfacet
	facet normal 0 0 1
		outer loop
			vertex 0.14126339902877805 -0.03622780310772327 -0.1906144077860174
			vertex 0.09149145758152008 -0.04108716284893422 -0.1906144077860174
			vertex 0.09077256174087524 -0.1156377081599084 -0.1906144077860174
		endloop
	endfacet
	facet normal 0 0 1
		outer loop
			vertex 0.09149145758152008 -0.04108716284893422 -0.1906144077860174
			vertex 0.06836513743400573 -0.05654705645702749 -0.1906144077860174
			vertex 0.09077256174087524 -0.1156377081599084 -0.1906144077860174
		endloop
	endfacet
	facet normal 0 0 1
		outer loop
			vertex 0.06836513743400573 -0.05654705645702749 -0.1906144077860174
			vertex 0.04235821027755738 -0.06862988602779777 -0.1906144077860174
			vertex 0.09077256174087524 -0.1156377081599084 -0.1906144077860174
		endloop
	endfacet
	facet normal 0 0 1
		outer loop
			vertex 0.04235821027755738 -0.06862988602779777 -0.1906144077860174
			vertex 0.022009718227386493 -0.09219743339680109 -0.1906144077860174
			vertex 0.09077256174087524 -0.1156377081599084 -0.1906144077860174
		endloop
	endfacet
	facet normal 0 0 1
		outer loop
			vertex 0.022009718227386493 -0.09219743339680109 -0.1906144077860174
			vertex 0.02004360628128053 -0.1186655615177003 -0.1906144077860174
			vertex 0.09077256174087524 -0.1156377081599084 -0.1906144077860174
		endloop
	endfacet
	facet normal 0 0 1
		outer loop
			vertex 0.02004360628128053 -0.1186655615177003 -0.1906144077860174
			vertex 0.024082189273834244 -0.13840237528942503 -0.1906144077860174
			vertex 0.09077256174087524 -0.1156377081599084 -0.1906144077860174
		endloop
	endfacet
	facet normal 0 0 1
		outer loop
			vertex 0.024082189273834244 -0.13840237528942503 -0.1906144077860174
			vertex 0.03353703317642213 -0.1670956694331018 -0.1906144077860174
			vertex 0.09077256174087524 -0.1156377081599084 -0.1906144077860174
		endloop
	endfacet
	facet normal 0 0 1
		outer loop
			vertex 0.03353703317642213 -0.1670956694331018 -0.1906144077860174
			vertex 0.04907883062362671 -0.18712888610027714 -0.1906144077860174
			vertex 0.09077256174087524 -0.1156377081599084 -0.1906144077860174
		endloop
	endfacet
	facet normal 0 0 1
		outer loop
			vertex 0.04907883062362671 -0.18712888610027714 -0.1906144077860174
			vertex 0.07949875800609588 -0.2050819037165491 -0.1906144077860174
			vertex 0.09077256174087524 -0.1156377081599084 -0.1906144077860174
		endloop
	endfacet
	facet normal 0 0 -1
		outer loop
			vertex 0.10260821933746336 -0.20088449751995519 -1.379614407786017
			vertex 0.07949875800609588 -0.20508190371654944 -1.379614407786017
			vertex 0.09077256174087524 -0.11563770815990873 -1.379614407786017
		endloop
	endfacet
	facet normal 0 0 -1
		outer loop
			vertex 0.1333705817222595 -0.17599295584820226 -1.379614407786017
			vertex 0.10260821933746336 -0.20088449751995519 -1.379614407786017
			vertex 0.09077256174087524 -0.11563770815990873 -1.379614407786017
		endloop
	endfacet
	facet normal 0 0 -1
		outer loop
			vertex 0.15033829355239867 -0.14574299208782623 -1.379614407786017
			vertex 0.1333705817222595 -0.17599295584820226 -1.379614407786017
			vertex 0.09077256174087524 -0.11563770815990873 -1.379614407786017
		endloop
	endfacet
	facet normal 0 0 -1
		outer loop
			vertex 0.16270044584274287 -0.12447282759808012 -1.379614407786017
			vertex 0.15033829355239867 -0.14574299208782623 -1.379614407786017
			vertex 0.09077256174087524 -0.11563770815990873 -1.379614407786017
		endloop
	endfacet
	facet normal 0 0 -1
		outer loop
			vertex 0.17388236570358273 -0.09910962931774563 -1.379614407786017
			vertex 0.16270044584274287 -0.12447282759808012 -1.379614407786017
			vertex 0.09077256174087524 -0.11563770815990873 -1.379614407786017
		endloop
	endfacet
	facet normal 0 0 -1
		outer loop
			vertex 0.16197371778488157 -0.05589368235729637 -1.379614407786017
			vertex 0.17388236570358273 -0.09910962931774563 -1.379614407786017
			vertex 0.09077256174087524 -0.11563770815990873 -1.379614407786017
		endloop
	endfacet
	facet normal 0 0 -1
		outer loop
			vertex 0.14126339902877805 -0.036227803107723604 -1.379614407786017
			vertex 0.16197371778488157 -0.05589368235729637 -1.379614407786017
			vertex 0.09077256174087524 -0.11563770815990873 -1.379614407786017
		endloop
	endfacet
	facet normal 0 0 -1
		outer loop
			vertex 0.09149145758152008 -0.04108716284893455 -1.379614407786017
			vertex 0.14126339902877805 -0.036227803107723604 -1.379614407786017
			vertex 0.09077256174087524 -0.11563770815990873 -1.379614407786017
		endloop
	endfacet
	facet normal 0 0 -1
		outer loop
			vertex 0.06836513743400573 -0.056547056457027824 -1.379614407786017
			vertex 0.09149145758152008 -0.04108716284893455 -1.379614407786017
			vertex 0.09077256174087524 -0.11563770815990873 -1.379614407786017
		endloop
	endfacet
	facet normal 0 0 -1
		outer loop
			vertex 0.04235821027755738 -0.0686298860277981 -1.379614407786017
			vertex 0.06836513743400573 -0.056547056457027824 -1.379614407786017
			vertex 0.09077256174087524 -0.11563770815990873 -1.379614407786017
		endloop
	endfacet
	facet normal 0 0 -1
		outer loop
			vertex 0.022009718227386493 -0.09219743339680142 -1.379614407786017
			vertex 0.04235821027755738 -0.0686298860277981 -1.379614407786017
			vertex 0.09077256174087524 -0.11563770815990873 -1.379614407786017
		endloop
	endfacet
	facet normal 0 0 -1
		outer loop
			vertex 0.02004360628128053 -0.11866556151770064 -1.379614407786017
			vertex 0.022009718227386493 -0.09219743339680142 -1.379614407786017
			vertex 0.09077256174087524 -0.11563770815990873 -1.379614407786017
		endloop
	endfacet
	facet normal 0 0 -1
		outer loop
			vertex 0.024082189273834244 -0.13840237528942537 -1.379614407786017
			vertex 0.02004360628128053 -0.11866556151770064 -1.379614407786017
			vertex 0.09077256174087524 -0.11563770815990873 -1.379614407786017
		endloop
	endfacet
	facet normal 0 0 -1
		outer loop
			vertex 0.03353703317642213 -0.16709566943310214 -1.379614407786017
			vertex 0.024082189273834244 -0.13840237528942537 -1.379614407786017
			vertex 0.09077256174087524 -0.11563770815990873 -1.379614407786017
		endloop
	endfacet
	facet normal 0 0 -1
		outer loop
			vertex 0.04907883062362671 -0.18712888610027748 -1.379614407786017
			vertex 0.03353703317642213 -0.16709566943310214 -1.379614407786017
			vertex 0.09077256174087524 -0.11563770815990873 -1.379614407786017
		endloop
	endfacet
	facet normal 0 0 -1
		outer loop
			vertex 0.07949875800609588 -0.20508190371654944 -1.379614407786017
			vertex 0.04907883062362671 -0.18712888610027748 -1.379614407786017
			vertex 0.09077256174087524 -0.11563770815990873 -1.379614407786017
		endloop
	endfacet
	facet normal 0.2757855873683877 -0.9612191788556207 2.1524824106309128e-16
		outer loop
			vertex -0.14964925661087033 0.13514779109954853 -0.3497268887849618
			vertex -0.14964925661087033 0.13514779109954816 -1.9610268887849613
			vertex -0.13141870193481442 0.14037836112976057 -1.9610268887849613
		endloop
	endfacet
	facet normal 0.2757855873683877 -0.9612191788556207 2.1524824106309128e-16
		outer loop
			vertex -0.14964925661087033 0.13514779109954853 -0.3497268887849618
			vertex -0.13141870193481442 0.14037836112976057 -1.9610268887849613
			vertex -0.13141870193481442 0.14037836112976093 -0.3497268887849618
		endloop
	endfacet
	facet normal 0.2898378946753462 -0.9570757518661535 2.14320392981119e-16
		outer loop
			vertex -0.13141870193481442 0.14037836112976093 -0.3497268887849618
			vertex -0.13141870193481442 0.14037836112976057 -1.9610268887849613
			vertex -0.11396730985641476 0.14566328735351547 -1.9610268887849613
		endloop
	endfacet
	facet normal 0.2898378946753462 -0.9570757518661535 2.14320392981119e-16
		outer loop
			vertex -0.13141870193481442 0.14037836112976093 -0.3497268887849618
			vertex -0.11396730985641476 0.14566328735351547 -1.9610268887849613
			vertex -0.11396730985641476 0.14566328735351583 -0.3497268887849618
		endloop
	endfacet
	facet normal 0.7757471402004782 -0.631043876819021 1.4131125086438869e-16
		outer loop
			vertex -0.11396730985641476 0.14566328735351583 -0.3497268887849618
			vertex -0.11396730985641476 0.14566328735351547 -1.9610268887849613
			vertex -0.09719599695205686 0.16628039259910568 -1.9610268887849613
		endloop
	endfacet
	facet normal 0.7757471402004785 -0.6310438768190205 1.5218134708472616e-16
		outer loop
			vertex -0.11396730985641476 0.14566328735351583 -0.3497268887849618
			vertex -0.09719599695205686 0.16628039259910568 -1.9610268887849613
			vertex -0.09719599695205686 0.16628039259910607 -0.3497268887849618
		endloop
	endfacet
	facet normal 0.998152408549992 0.0607599317465891 -1.46527501519895e-17
		outer loop
			vertex -0.09719599695205686 0.16628039259910607 -0.3497268887849618
			vertex -0.09719599695205686 0.16628039259910568 -1.9610268887849613
			vertex -0.0987016156196594 0.19101440490335211 -1.9610268887849613
		endloop
	endfacet
	facet normal 0.998152408549992 0.060759931746589155 -1.360612514113312e-17
		outer loop
			vertex -0.09719599695205686 0.16628039259910607 -0.3497268887849618
			vertex -0.0987016156196594 0.19101440490335211 -1.9610268887849613
			vertex -0.0987016156196594 0.19101440490335247 -0.3497268887849618
		endloop
	endfacet
	facet normal 0.9150207090565593 -0.40340686905112527 9.033592015860739e-17
		outer loop
			vertex -0.0987016156196594 0.19101440490335247 -0.3497268887849618
			vertex -0.0987016156196594 0.19101440490335211 -1.9610268887849613
			vertex -0.08751969575881957 0.2163776027679442 -1.9610268887849613
		endloop
	endfacet
	facet normal 0.9150207090565593 -0.4034068690511249 9.728483709388478e-17
		outer loop
			vertex -0.0987016156196594 0.19101440490335247 -0.3497268887849618
			vertex -0.08751969575881957 0.2163776027679442 -1.9610268887849613
			vertex -0.08751969575881957 0.2163776027679446 -0.3497268887849618
		endloop
	endfacet
	facet normal 0.9998153061125921 -0.019218575987410596 4.634715414017248e-18
		outer loop
			vertex -0.08751969575881957 0.2163776027679446 -0.3497268887849618
			vertex -0.08751969575881957 0.2163776027679442 -1.9610268887849613
			vertex -0.08704073095321654 0.24129497146606438 -1.9610268887849613
		endloop
	endfacet
	facet normal 0.9998153061125921 -0.01921857598741064 3.972613212014793e-18
		outer loop
			vertex -0.08751969575881957 0.2163776027679446 -0.3497268887849618
			vertex -0.08704073095321654 0.24129497146606438 -1.9610268887849613
			vertex -0.08704073095321654 0.2412949714660647 -0.3497268887849618
		endloop
	endfacet
	facet normal 0.6885852120734354 0.7251554355541867 -1.498946678429235e-16
		outer loop
			vertex -0.08704073095321654 0.2412949714660647 -0.3497268887849618
			vertex -0.08704073095321654 0.24129497146606438 -1.9610268887849613
			vertex -0.10775104970932003 0.2609608507156371 -1.9610268887849613
		endloop
	endfacet
	facet normal 0.6885852120734364 0.7251554355541856 -1.748771124834105e-16
		outer loop
			vertex -0.08704073095321654 0.2412949714660647 -0.3497268887849618
			vertex -0.10775104970932003 0.2609608507156371 -1.9610268887849613
			vertex -0.10775104970932003 0.2609608507156375 -0.3497268887849618
		endloop
	endfacet
	facet normal 0.10121835588116897 0.9948642341710315 -2.3991957593462646e-16
		outer loop
			vertex -0.10775104970932003 0.2609608507156375 -0.3497268887849618
			vertex -0.10775104970932003 0.2609608507156371 -1.9610268887849613
			vertex -0.1489303607702255 0.2651504697799682 -1.9610268887849613
		endloop
	endfacet
	facet normal 0.10121835588116766 0.9948642341710318 -2.0564535080110841e-16
		outer loop
			vertex -0.10775104970932003 0.2609608507156375 -0.3497268887849618
			vertex -0.1489303607702255 0.2651504697799682 -1.9610268887849613
			vertex -0.1489303607702255 0.26515046977996853 -0.3497268887849618
		endloop
	endfacet
	facet normal -0.5557536430374678 0.8313470323821353 -1.7184520886323635e-16
		outer loop
			vertex -0.1489303607702255 0.26515046977996853 -0.3497268887849618
			vertex -0.1489303607702255 0.2651504697799682 -1.9610268887849613
			vertex -0.17205668091773985 0.24969057617187493 -1.9610268887849613
		endloop
	endfacet
	facet normal -0.555753643037467 0.8313470323821357 -1.861656429351728e-16
		outer loop
			vertex -0.1489303607702255 0.26515046977996853 -0.3497268887849618
			vertex -0.17205668091773985 0.24969057617187493 -1.9610268887849613
			vertex -0.17205668091773985 0.2496905761718753 -0.3497268887849618
		endloop
	endfacet
	facet normal -0.4213460947781308 0.9068999219402428 -2.0308439252148262e-16
		outer loop
			vertex -0.17205668091773985 0.2496905761718753 -0.3497268887849618
			vertex -0.17205668091773985 0.24969057617187493 -1.9610268887849613
			vertex -0.19806360807418819 0.23760774660110465 -1.9610268887849613
		endloop
	endfacet
	facet normal -0.4213460947781308 0.9068999219402428 -2.0308439252148262e-16
		outer loop
			vertex -0.17205668091773985 0.2496905761718753 -0.3497268887849618
			vertex -0.19806360807418819 0.23760774660110465 -1.9610268887849613
			vertex -0.19806360807418819 0.237607746601105 -0.3497268887849618
		endloop
	endfacet
	facet normal -0.7569071856184052 0.6535223885676947 -1.4634492083483025e-16
		outer loop
			vertex -0.19806360807418819 0.237607746601105 -0.3497268887849618
			vertex -0.19806360807418819 0.23760774660110465 -1.9610268887849613
			vertex -0.21841210012435908 0.21404019923210132 -1.9610268887849613
		endloop
	endfacet
	facet normal -0.7569071856184052 0.6535223885676947 -1.4634492083483025e-16
		outer loop
			vertex -0.19806360807418819 0.237607746601105 -0.3497268887849618
			vertex -0.21841210012435908 0.21404019923210132 -1.9610268887849613
			vertex -0.21841210012435908 0.21404019923210169 -0.3497268887849618
		endloop
	endfacet
	facet normal -0.9972524393878194 0.07407814883650687 -1.658850716779448e-17
		outer loop
			vertex -0.21841210012435908 0.21404019923210169 -0.3497268887849618
			vertex -0.21841210012435908 0.21404019923210132 -1.9610268887849613
			vertex -0.22037821207046504 0.1875720711112021 -1.9610268887849613
		endloop
	endfacet
	facet normal -0.9972524393878194 0.0740781488365068 -1.53124681548872e-17
		outer loop
			vertex -0.21841210012435908 0.21404019923210169 -0.3497268887849618
			vertex -0.22037821207046504 0.1875720711112021 -1.9610268887849613
			vertex -0.22037821207046504 0.18757207111120244 -0.3497268887849618
		endloop
	endfacet
	facet normal -0.9797002387671117 -0.20046805770412487 4.143814063768461e-17
		outer loop
			vertex -0.22037821207046504 0.18757207111120244 -0.3497268887849618
			vertex -0.22037821207046504 0.1875720711112021 -1.9610268887849613
			vertex -0.21633962907791132 0.1678352573394774 -1.9610268887849613
		endloop
	endfacet
	facet normal -0.9797002387671117 -0.20046805770412515 4.489131902415838e-17
		outer loop
			vertex -0.22037821207046504 0.18757207111120244 -0.3497268887849618
			vertex -0.21633962907791132 0.1678352573394774 -1.9610268887849613
			vertex -0.21633962907791132 0.16783525733947777 -0.3497268887849618
		endloop
	endfacet
	facet normal -0.9497659048658801 -0.3129612211669306 7.008219754555825e-17
		outer loop
			vertex -0.21633962907791132 0.16783525733947777 -0.3497268887849618
			vertex -0.21633962907791132 0.1678352573394774 -1.9610268887849613
			vertex -0.20688478517532344 0.1391419631958006 -1.9610268887849613
		endloop
	endfacet
	facet normal -0.9497659048658801 -0.3129612211669306 7.008219754555825e-17
		outer loop
			vertex -0.21633962907791132 0.16783525733947777 -0.3497268887849618
			vertex -0.20688478517532344 0.1391419631958006 -1.9610268887849613
			vertex -0.20688478517532344 0.13914196319580097 -0.3497268887849618
		endloop
	endfacet
	facet normal -0.48498071625117944 -0.87452484519566 1.958345597290797e-16
		outer loop
			vertex -0.20688478517532344 0.13914196319580097 -0.3497268887849618
			vertex -0.20688478517532344 0.1391419631958006 -1.9610268887849613
			vertex -0.18626768140792843 0.12770844268798812 -1.9610268887849613
		endloop
	endfacet
	facet normal -0.48498071625118033 -0.8745248451956595 1.807703628268427e-16
		outer loop
			vertex -0.20688478517532344 0.13914196319580097 -0.3497268887849618
			vertex -0.18626768140792843 0.12770844268798812 -1.9610268887849613
			vertex -0.18626768140792843 0.12770844268798845 -0.3497268887849618
		endloop
	endfacet
	facet normal 0.1990915595399343 -0.9799808931402474 2.0256886078142398e-16
		outer loop
			vertex -0.18626768140792843 0.12770844268798845 -0.3497268887849618
			vertex -0.18626768140792843 0.12770844268798812 -1.9610268887849613
			vertex -0.14964925661087033 0.13514779109954816 -1.9610268887849613
		endloop
	endfacet
	facet normal 0.199091559539935 -0.9799808931402472 2.1944959917987594e-16
		outer loop
			vertex -0.18626768140792843 0.12770844268798845 -0.3497268887849618
			vertex -0.14964925661087033 0.13514779109954816 -1.9610268887849613
			vertex -0.14964925661087033 0.13514779109954853 -0.3497268887849618
		endloop
	endfacet
	facet normal 0 0 1
		outer loop
			vertex -0.14964925661087033 0.13514779109954853 -0.3497268887849618
			vertex -0.13141870193481442 0.14037836112976093 -0.3497268887849618
			vertex -0.14964925661087033 0.19059992446899435 -0.3497268887849618
		endloop
	endfacet
	facet normal 0 0 1
		outer loop
			vertex -0.13141870193481442 0.14037836112976093 -0.3497268887849618
			vertex -0.11396730985641476 0.14566328735351583 -0.3497268887849618
			vertex -0.14964925661087033 0.19059992446899435 -0.3497268887849618
		endloop
	endfacet
	facet normal 0 0 1
		outer loop
			vertex -0.11396730985641476 0.14566328735351583 -0.3497268887849618
			vertex -0.09719599695205686 0.16628039259910607 -0.3497268887849618
			vertex -0.14964925661087033 0.19059992446899435 -0.3497268887849618
		endloop
	endfacet
	facet normal 0 0 1
		outer loop
			vertex -0.09719599695205686 0.16628039259910607 -0.3497268887849618
			vertex -0.0987016156196594 0.19101440490335247 -0.3497268887849618
			vertex -0.14964925661087033 0.19059992446899435 -0.3497268887849618
		endloop
	endfacet
	facet normal 0 0 1
		outer loop
			vertex -0.0987016156196594 0.19101440490335247 -0.3497268887849618
			vertex -0.08751969575881957 0.2163776027679446 -0.3497268887849618
			vertex -0.14964925661087033 0.19059992446899435 -0.3497268887849618
		endloop
	endfacet
	facet normal 0 0 1
		outer loop
			vertex -0.08751969575881957 0.2163776027679446 -0.3497268887849618
			vertex -0.08704073095321654 0.2412949714660647 -0.3497268887849618
			vertex -0.14964925661087033 0.19059992446899435 -0.3497268887849618
		endloop
	endfacet
	facet normal 0 0 1
		outer loop
			vertex -0.08704073095321654 0.2412949714660647 -0.3497268887849618
			vertex -0.10775104970932003 0.2609608507156375 -0.3497268887849618
			vertex -0.14964925661087033 0.19059992446899435 -0.3497268887849618
		endloop
	endfacet
	facet normal 0 0 1
		outer loop
			vertex -0.10775104970932003 0.2609608507156375 -0.3497268887849618
			vertex -0.1489303607702255 0.26515046977996853 -0.3497268887849618
			vertex -0.14964925661087033 0.19059992446899435 -0.3497268887849618
		endloop
	endfacet
	facet normal 0 0 1
		outer loop
			vertex -0.1489303607702255 0.26515046977996853 -0.3497268887849618
			vertex -0.17205668091773985 0.2496905761718753 -0.3497268887849618
			vertex -0.14964925661087033 0.19059992446899435 -0.3497268887849618
		endloop
	endfacet
	facet normal 0 0 1
		outer loop
			vertex -0.17205668091773985 0.2496905761718753 -0.3497268887849618
			vertex -0.19806360807418819 0.237607746601105 -0.3497268887849618
			vertex -0.14964925661087033 0.19059992446899435 -0.3497268887849618
		endloop
	endfacet
	facet normal 0 0 1
		outer loop
			vertex -0.19806360807418819 0.237607746601105 -0.3497268887849618
			vertex -0.21841210012435908 0.21404019923210169 -0.3497268887849618
			vertex -0.14964925661087033 0.19059992446899435 -0.3497268887849618
		endloop
	endfacet
	facet normal 0 0 1
		outer loop
			vertex -0.21841210012435908 0.21404019923210169 -0.3497268887849618
			vertex -0.22037821207046504 0.18757207111120244 -0.3497268887849618
			vertex -0.14964925661087033 0.19059992446899435 -0.3497268887849618
		endloop
	endfacet
	facet normal 0 0 1
		outer loop
			vertex -0.22037821207046504 0.18757207111120244 -0.3497268887849618
			vertex -0.21633962907791132 0.16783525733947777 -0.3497268887849618
			vertex -0.14964925661087033 0.19059992446899435 -0.3497268887849618
		endloop
	endfacet
	facet normal 0 0 1
		outer loop
			vertex -0.21633962907791132 0.16783525733947777 -0.3497268887849618
			vertex -0.20688478517532344 0.13914196319580097 -0.3497268887849618
			vertex -0.14964925661087033 0.19059992446899435 -0.3497268887849618
		endloop
	endfacet
	facet normal 0 0 1
		outer loop
			vertex -0.20688478517532344 0.13914196319580097 -0.3497268887849618
			vertex -0.18626768140792843 0.12770844268798845 -0.3497268887849618
			vertex -0.14964925661087033 0.19059992446899435 -0.3497268887849618
		endloop
	endfacet
	facet normal 0 0 1
		outer loop
			vertex -0.18626768140792843 0.12770844268798845 -0.3497268887849618
			vertex -0.14964925661087033 0.13514779109954853 -0.3497268887849618
			vertex -0.14964925661087033 0.19059992446899435 -0.3497268887849618
		endloop
	endfacet
	facet normal 0 0 -1
		outer loop
			vertex -0.13141870193481442 0.14037836112976057 -1.9610268887849613
			vertex -0.14964925661087033 0.13514779109954816 -1.9610268887849613
			vertex -0.14964925661087033 0.19059992446899401 -1.9610268887849613
		endloop
	endfacet
	facet normal 0 0 -1
		outer loop
			vertex -0.11396730985641476 0.14566328735351547 -1.9610268887849613
			vertex -0.13141870193481442 0.14037836112976057 -1.9610268887849613
			vertex -0.14964925661087033 0.19059992446899401 -1.9610268887849613
		endloop
	endfacet
	facet normal 0 0 -1
		outer loop
			vertex -0.09719599695205686 0.16628039259910568 -1.9610268887849613
			vertex -0.11396730985641476 0.14566328735351547 -1.9610268887849613
			vertex -0.14964925661087033 0.19059992446899401 -1.9610268887849613
		endloop
	endfacet
	facet normal 0 0 -1
		outer loop
			vertex -0.0987016156196594 0.19101440490335211 -1.9610268887849613
			vertex -0.09719599695205686 0.16628039259910568 -1.9610268887849613
			vertex -0.14964925661087033 0.19059992446899401 -1.9610268887849613
		endloop
	endfacet
	facet normal 0 0 -1
		outer loop
			vertex -0.08751969575881957 0.2163776027679442 -1.9610268887849613
			vertex -0.0987016156196594 0.19101440490335211 -1.9610268887849613
			vertex -0.14964925661087033 0.19059992446899401 -1.9610268887849613
		endloop
	endfacet
	facet normal 0 0 -1
		outer loop
			vertex -0.08704073095321654 0.24129497146606438 -1.9610268887849613
			vertex -0.08751969575881957 0.2163776027679442 -1.9610268887849613
			vertex -0.14964925661087033 0.19059992446899401 -1.9610268887849613
		endloop
	endfacet
	facet normal 0 0 -1
		outer loop
			vertex -0.10775104970932003 0.2609608507156371 -1.9610268887849613
			vertex -0.08704073095321654 0.24129497146606438 -1.9610268887849613
			vertex -0.14964925661087033 0.19059992446899401 -1.9610268887849613
		endloop
	endfacet
	facet normal 0 0 -1
		outer loop
			vertex -0.1489303607702255 0.2651504697799682 -1.9610268887849613
			vertex -0.10775104970932003 0.2609608507156371 -1.9610268887849613
			vertex -0.14964925661087033 0.19059992446899401 -1.9610268887849613
		endloop
	endfacet
	facet normal 0 0 -1
		outer loop
			vertex -0.17205668091773985 0.24969057617187493 -1.9610268887849613
			vertex -0.1489303607702255 0.2651504697799682 -1.9610268887849613
			vertex -0.14964925661087033 0.19059992446899401 -1.9610268887849613
		endloop
	endfacet
	facet normal 0 0 -1
		outer loop
			vertex -0.19806360807418819 0.23760774660110465 -1.9610268887849613
			vertex -0.17205668091773985 0.24969057617187493 -1.9610268887849613
			vertex -0.14964925661087033 0.19059992446899401 -1.9610268887849613
		endloop
	endfacet
	facet normal 0 0 -1
		outer loop
			vertex -0.21841210012435908 0.21404019923210132 -1.9610268887849613
			vertex -0.19806360807418819 0.23760774660110465 -1.9610268887849613
			vertex -0.14964925661087033 0.19059992446899401 -1.9610268887849613
		endloop
	endfacet
	facet normal 0 0 -1
		outer loop
			vertex -0.22037821207046504 0.1875720711112021 -1.9610268887849613
			vertex -0.21841210012435908 0.21404019923210132 -1.9610268887849613
			vertex -0.14964925661087033 0.19059992446899401 -1.9610268887849613
		endloop
	endfacet
	facet normal 0 0 -1
		outer loop
			vertex -0.21633962907791132 0.1678352573394774 -1.9610268887849613
			vertex -0.22037821207046504 0.1875720711112021 -1.9610268887849613
			vertex -0.14964925661087033 0.19059992446899401 -1.9610268887849613
		endloop
	endfacet
	facet normal 0 0 -1
		outer loop
			vertex -0.20688478517532344 0.1391419631958006 -1.9610268887849613
			vertex -0.21633962907791132 0.1678352573394774 -1.9610268887849613
			vertex -0.14964925661087033 0.19059992446899401 -1.9610268887849613
		endloop
	endfacet
	facet normal 0 0 -1
		outer loop
			vertex -0.18626768140792843 0.12770844268798812 -1.9610268887849613
			vertex -0.20688478517532344 0.1391419631958006 -1.9610268887849613
			vertex -0.14964925661087033 0.19059992446899401 -1.9610268887849613
		endloop
	endfacet
	facet normal 0 0 -1
		outer loop
			vertex -0.14964925661087033 0.13514779109954816 -1.9610268887849613
			vertex -0.18626768140792843 0.12770844268798812 -1.9610268887849613
			vertex -0.14964925661087033 0.19059992446899401 -1.9610268887849613
		endloop
	endfacet
	facet normal 0.2757855873683881 -0.9612191788556205 2.0099212055312104e-16
		outer loop
			vertex -0.25870926904678343 -0.23806003043316254 -0.0799144077860171
			vertex -0.25870926904678343 -0.23806003043316276 -1.141814407786017
			vertex -0.20872226428985594 -0.2237181448664513 -1.141814407786017
		endloop
	endfacet
	facet normal 0.2757855873683881 -0.9612191788556205 2.0099212055312104e-16
		outer loop
			vertex -0.25870926904678343 -0.23806003043316254 -0.0799144077860171
			vertex -0.20872226428985594 -0.2237181448664513 -1.141814407786017
			vertex -0.20872226428985594 -0.22371814486645109 -0.0799144077860171
		endloop
	endfacet
	facet normal 0.2898378946753451 -0.9570757518661539 2.0012572483891837e-16
		outer loop
			vertex -0.20872226428985594 -0.22371814486645109 -0.0799144077860171
			vertex -0.20872226428985594 -0.2237181448664513 -1.141814407786017
			vertex -0.16087167310714717 -0.2092272181238976 -1.141814407786017
		endloop
	endfacet
	facet normal 0.2898378946753451 -0.9570757518661539 2.0012572483891837e-16
		outer loop
			vertex -0.20872226428985594 -0.22371814486645109 -0.0799144077860171
			vertex -0.16087167310714717 -0.2092272181238976 -1.141814407786017
			vertex -0.16087167310714717 -0.20922721812389738 -0.0799144077860171
		endloop
	endfacet
	facet normal 0.7757471402004783 -0.6310438768190211 1.3195205604919452e-16
		outer loop
			vertex -0.16087167310714717 -0.20922721812389738 -0.0799144077860171
			vertex -0.16087167310714717 -0.2092272181238976 -1.141814407786017
			vertex -0.11488581514358517 -0.15269644567631155 -1.141814407786017
		endloop
	endfacet
	facet normal 0.7757471402004783 -0.6310438768190211 1.3195205604919452e-16
		outer loop
			vertex -0.16087167310714717 -0.20922721812389738 -0.0799144077860171
			vertex -0.11488581514358517 -0.15269644567631155 -1.141814407786017
			vertex -0.11488581514358517 -0.15269644567631133 -0.0799144077860171
		endloop
	endfacet
	facet normal 0.9981524085499919 0.06075993174658881 -1.2704976965762482e-17
		outer loop
			vertex -0.11488581514358517 -0.15269644567631133 -0.0799144077860171
			vertex -0.11488581514358517 -0.15269644567631155 -1.141814407786017
			vertex -0.1190141243934631 -0.08487737968079716 -1.141814407786017
		endloop
	endfacet
	facet normal 0.998152408549992 0.06075993174658881 -1.3499038026122638e-17
		outer loop
			vertex -0.11488581514358517 -0.15269644567631133 -0.0799144077860171
			vertex -0.1190141243934631 -0.08487737968079716 -1.141814407786017
			vertex -0.1190141243934631 -0.08487737968079692 -0.0799144077860171
		endloop
	endfacet
	facet normal 0.9150207090565591 -0.40340686905112566 8.962493058800955e-17
		outer loop
			vertex -0.1190141243934631 -0.08487737968079692 -0.0799144077860171
			vertex -0.1190141243934631 -0.08487737968079716 -1.141814407786017
			vertex -0.08835402154922484 -0.015333127471431784 -1.141814407786017
		endloop
	endfacet
	facet normal 0.915020709056559 -0.4034068690511257 8.43528758475384e-17
		outer loop
			vertex -0.1190141243934631 -0.08487737968079692 -0.0799144077860171
			vertex -0.08835402154922484 -0.015333127471431784 -1.141814407786017
			vertex -0.08835402154922484 -0.015333127471431562 -0.0799144077860171
		endloop
	endfacet
	facet normal 0.9998153061125921 -0.019218575987410936 4.018628036864445e-18
		outer loop
			vertex -0.08835402154922484 -0.015333127471431562 -0.0799144077860171
			vertex -0.08835402154922484 -0.015333127471431784 -1.141814407786017
			vertex -0.08704073095321652 0.05298868992663951 -1.141814407786017
		endloop
	endfacet
	facet normal 0.9998153061125921 -0.019218575987410936 4.018628036864445e-18
		outer loop
			vertex -0.08835402154922484 -0.015333127471431562 -0.0799144077860171
			vertex -0.08704073095321652 0.05298868992663951 -1.141814407786017
			vertex -0.08704073095321652 0.05298868992663973 -0.0799144077860171
		endloop
	endfacet
	facet normal 0.8748924798475128 0.48431719844154764 -1.0127132591237538e-16
		outer loop
			vertex -0.08704073095321652 0.05298868992663973 -0.0799144077860171
			vertex -0.08704073095321652 0.05298868992663951 -1.141814407786017
			vertex -0.1438270888328552 0.15557013371326062 -1.141814407786017
		endloop
	endfacet
	facet normal 0.8748924798475128 0.48431719844154764 -1.0127132591237538e-16
		outer loop
			vertex -0.08704073095321652 0.05298868992663973 -0.0799144077860171
			vertex -0.1438270888328552 0.15557013371326062 -1.141814407786017
			vertex -0.1438270888328552 0.15557013371326084 -0.0799144077860171
		endloop
	endfacet
	facet normal -0.12429055315285387 0.9922458659006637 -2.074798392338341e-16
		outer loop
			vertex -0.1438270888328552 0.15557013371326084 -0.0799144077860171
			vertex -0.1438270888328552 0.15557013371326062 -1.141814407786017
			vertex -0.2821597076654434 0.1382423339162025 -1.141814407786017
		endloop
	endfacet
	facet normal -0.12429055315285387 0.9922458659006637 -2.074798392338341e-16
		outer loop
			vertex -0.1438270888328552 0.15557013371326084 -0.0799144077860171
			vertex -0.2821597076654434 0.1382423339162025 -1.141814407786017
			vertex -0.2821597076654434 0.13824233391620272 -0.0799144077860171
		endloop
	endfacet
	facet normal -0.6598108778549759 0.7514317037923314 -1.5712529974264183e-16
		outer loop
			vertex -0.2821597076654434 0.13824233391620272 -0.0799144077860171
			vertex -0.2821597076654434 0.1382423339162025 -1.141814407786017
			vertex -0.3296776251792908 0.09651819756366344 -1.141814407786017
		endloop
	endfacet
	facet normal -0.6598108778549759 0.7514317037923314 -1.5712529974264183e-16
		outer loop
			vertex -0.2821597076654434 0.13824233391620272 -0.0799144077860171
			vertex -0.3296776251792908 0.09651819756366344 -1.141814407786017
			vertex -0.3296776251792908 0.09651819756366366 -0.0799144077860171
		endloop
	endfacet
	facet normal -0.42134606907796407 0.9068999338805509 -1.8963389916662957e-16
		outer loop
			vertex -0.3296776251792908 0.09651819756366366 -0.0799144077860171
			vertex -0.3296776251792908 0.09651819756366344 -1.141814407786017
			vertex -0.4009869294166565 0.06338786652423474 -1.141814407786017
		endloop
	endfacet
	facet normal -0.42134606907796407 0.9068999338805509 -1.8963389916662957e-16
		outer loop
			vertex -0.3296776251792908 0.09651819756366366 -0.0799144077860171
			vertex -0.4009869294166565 0.06338786652423474 -1.141814407786017
			vertex -0.4009869294166565 0.06338786652423496 -0.0799144077860171
		endloop
	endfacet
	facet normal -0.724396015726635 0.6893840819161527 -1.4415106517626662e-16
		outer loop
			vertex -0.4009869294166565 0.06338786652423496 -0.0799144077860171
			vertex -0.4009869294166565 0.06338786652423474 -1.141814407786017
			vertex -0.47970803689956665 -0.01933127090595632 -1.141814407786017
		endloop
	endfacet
	facet normal -0.724396015726635 0.6893840819161527 -1.4415106517626662e-16
		outer loop
			vertex -0.4009869294166565 0.06338786652423496 -0.0799144077860171
			vertex -0.47970803689956665 -0.01933127090595632 -1.141814407786017
			vertex -0.47970803689956665 -0.0193312709059561 -0.0799144077860171
		endloop
	endfacet
	facet normal -0.9967479775486269 0.0805820653292164 -1.6849809643157468e-17
		outer loop
			vertex -0.47970803689956665 -0.0193312709059561 -0.0799144077860171
			vertex -0.47970803689956665 -0.01933127090595632 -1.141814407786017
			vertex -0.48509898900985715 -0.08601385829113391 -1.141814407786017
		endloop
	endfacet
	facet normal -0.996747977548627 0.08058206532921643 -1.7902922745854815e-17
		outer loop
			vertex -0.47970803689956665 -0.0193312709059561 -0.0799144077860171
			vertex -0.48509898900985715 -0.08601385829113391 -1.141814407786017
			vertex -0.48509898900985715 -0.08601385829113367 -0.0799144077860171
		endloop
	endfacet
	facet normal -0.8373785177778436 -0.5466234700085442 1.214433722274665e-16
		outer loop
			vertex -0.48509898900985715 -0.08601385829113367 -0.0799144077860171
			vertex -0.48509898900985715 -0.08601385829113391 -1.141814407786017
			vertex -0.4415699677467346 -0.15269644567631155 -1.141814407786017
		endloop
	endfacet
	facet normal -0.8373785177778437 -0.5466234700085442 1.1429964444938023e-16
		outer loop
			vertex -0.48509898900985715 -0.08601385829113367 -0.0799144077860171
			vertex -0.4415699677467346 -0.15269644567631155 -1.141814407786017
			vertex -0.4415699677467346 -0.15269644567631133 -0.0799144077860171
		endloop
	endfacet
	facet normal -0.22233926668614143 -0.9749693587438886 2.038673001942724e-16
		outer loop
			vertex -0.4415699677467346 -0.15269644567631133 -0.0799144077860171
			vertex -0.4415699677467346 -0.15269644567631155 -1.141814407786017
			vertex -0.3819226288795471 -0.16629886862896354 -1.141814407786017
		endloop
	endfacet
	facet normal -0.22233926668614143 -0.9749693587438886 2.038673001942724e-16
		outer loop
			vertex -0.4415699677467346 -0.15269644567631133 -0.0799144077860171
			vertex -0.3819226288795471 -0.16629886862896354 -1.141814407786017
			vertex -0.3819226288795471 -0.16629886862896331 -0.0799144077860171
		endloop
	endfacet
	facet normal -0.48498088147192187 -0.8745247535700278 1.828642088742981e-16
		outer loop
			vertex -0.3819226288795471 -0.16629886862896331 -0.0799144077860171
			vertex -0.3819226288795471 -0.16629886862896354 -1.141814407786017
			vertex -0.32539185643196106 -0.1976488604273644 -1.141814407786017
		endloop
	endfacet
	facet normal -0.48498088147192187 -0.8745247535700278 1.828642088742981e-16
		outer loop
			vertex -0.3819226288795471 -0.16629886862896331 -0.0799144077860171
			vertex -0.32539185643196106 -0.1976488604273644 -1.141814407786017
			vertex -0.32539185643196106 -0.19764886042736418 -0.0799144077860171
		endloop
	endfacet
	facet normal -0.5182780851355689 -0.8552121529002075 1.788259201599134e-16
		outer loop
			vertex -0.32539185643196106 -0.19764886042736418 -0.0799144077860171
			vertex -0.32539185643196106 -0.1976488604273644 -1.141814407786017
			vertex -0.25870926904678343 -0.23806003043316276 -1.141814407786017
		endloop
	endfacet
	facet normal -0.5182780851355689 -0.8552121529002075 1.788259201599134e-16
		outer loop
			vertex -0.32539185643196106 -0.19764886042736418 -0.0799144077860171
			vertex -0.25870926904678343 -0.23806003043316276 -1.141814407786017
			vertex -0.25870926904678343 -0.23806003043316254 -0.0799144077860171
		endloop
	endfacet
	facet normal 0 0 1
		outer loop
			vertex -0.25870926904678343 -0.23806003043316254 -0.0799144077860171
			vertex -0.20872226428985594 -0.22371814486645109 -0.0799144077860171
			vertex -0.25870926904678343 -0.08601385829113371 -0.0799144077860171
		endloop
	endfacet
	facet normal 0 0 1
		outer loop
			vertex -0.20872226428985594 -0.22371814486645109 -0.0799144077860171
			vertex -0.16087167310714717 -0.20922721812389738 -0.0799144077860171
			vertex -0.25870926904678343 -0.08601385829113371 -0.0799144077860171
		endloop
	endfacet
	facet normal 0 0 1
		outer loop
			vertex -0.16087167310714717 -0.20922721812389738 -0.0799144077860171
			vertex -0.11488581514358517 -0.15269644567631133 -0.0799144077860171
			vertex -0.25870926904678343 -0.08601385829113371 -0.0799144077860171
		endloop
	endfacet
	facet normal 0 0 1
		outer loop
			vertex -0.11488581514358517 -0.15269644567631133 -0.0799144077860171
			vertex -0.1190141243934631 -0.08487737968079692 -0.0799144077860171
			vertex -0.25870926904678343 -0.08601385829113371 -0.0799144077860171
		endloop
	endfacet
	facet normal 0 0 1
		outer loop
			vertex -0.1190141243934631 -0.08487737968079692 -0.0799144077860171
			vertex -0.08835402154922484 -0.015333127471431562 -0.0799144077860171
			vertex -0.25870926904678343 -0.08601385829113371 -0.0799144077860171
		endloop
	endfacet
	facet normal 0 0 1
		outer loop
			vertex -0.08835402154922484 -0.015333127471431562 -0.0799144077860171
			vertex -0.08704073095321652 0.05298868992663973 -0.0799144077860171
			vertex -0.25870926904678343 -0.08601385829113371 -0.0799144077860171
		endloop
	endfacet
	facet normal 0 0 1
		outer loop
			vertex -0.08704073095321652 0.05298868992663973 -0.0799144077860171
			vertex -0.1438270888328552 0.15557013371326084 -0.0799144077860171
			vertex -0.25870926904678343 -0.08601385829113371 -0.0799144077860171
		endloop
	endfacet
	facet normal 0 0 1
		outer loop
			vertex -0.1438270888328552 0.15557013371326084 -0.0799144077860171
			vertex -0.2821597076654434 0.13824233391620272 -0.0799144077860171
			vertex -0.25870926904678343 -0.08601385829113371 -0.0799144077860171
		endloop
	endfacet
	facet normal 0 0 1
		outer loop
			vertex -0.2821597076654434 0.13824233391620272 -0.0799144077860171
			vertex -0.3296776251792908 0.09651819756366366 -0.0799144077860171
			vertex -0.25870926904678343 -0.08601385829113371 -0.0799144077860171
		endloop
	endfacet
	facet normal 0 0 1
		outer loop
			vertex -0.3296776251792908 0.09651819756366366 -0.0799144077860171
			vertex -0.4009869294166565 0.06338786652423496 -0.0799144077860171
			vertex -0.25870926904678343 -0.08601385829113371 -0.0799144077860171
		endloop
	endfacet
	facet normal 0 0 1
		outer loop
			vertex -0.4009869294166565 0.06338786652423496 -0.0799144077860171
			vertex -0.47970803689956665 -0.0193312709059561 -0.0799144077860171
			vertex -0.25870926904678343 -0.08601385829113371 -0.0799144077860171
		endloop
	endfacet
	facet normal 0 0 1
		outer loop
			vertex -0.47970803689956665 -0.0193312709059561 -0.0799144077860171
			vertex -0.48509898900985715 -0.08601385829113367 -0.0799144077860171
			vertex -0.25870926904678343 -0.08601385829113371 -0.0799144077860171
		endloop
	endfacet
	facet normal 0 0 1
		outer loop
			vertex -0.48509898900985715 -0.08601385829113367 -0.0799144077860171
			vertex -0.4415699677467346 -0.15269644567631133 -0.0799144077860171
			vertex -0.25870926904678343 -0.08601385829113371 -0.0799144077860171
		endloop
	endfacet
	facet normal 0 0 1
		outer loop
			vertex -0.4415699677467346 -0.15269644567631133 -0.0799144077860171
			vertex -0.3819226288795471 -0.16629886862896331 -0.0799144077860171
			vertex -0.25870926904678343 -0.08601385829113371 -0.0799144077860171
		endloop
	endfacet
	facet normal 0 0 1
		outer loop
			vertex -0.3819226288795471 -0.16629886862896331 -0.0799144077860171
			vertex -0.32539185643196106 -0.19764886042736418 -0.0799144077860171
			vertex -0.25870926904678343 -0.08601385829113371 -0.0799144077860171
		endloop
	endfacet
	facet normal 0 0 1
		outer loop
			vertex -0.32539185643196106 -0.19764886042736418 -0.0799144077860171
			vertex -0.25870926904678343 -0.23806003043316254 -0.0799144077860171
			vertex -0.25870926904678343 -0.08601385829113371 -0.0799144077860171
		endloop
	endfacet
	facet normal 0 0 -1
		outer loop
			vertex -0.20872226428985594 -0.2237181448664513 -1.141814407786017
			vertex -0.25870926904678343 -0.23806003043316276 -1.141814407786017
			vertex -0.25870926904678343 -0.08601385829113393 -1.141814407786017
		endloop
	endfacet
	facet normal 0 0 -1
		outer loop
			vertex -0.16087167310714717 -0.2092272181238976 -1.141814407786017
			vertex -0.20872226428985594 -0.2237181448664513 -1.141814407786017
			vertex -0.25870926904678343 -0.08601385829113393 -1.141814407786017
		endloop
	endfacet
	facet normal 0 0 -1
		outer loop
			vertex -0.11488581514358517 -0.15269644567631155 -1.141814407786017
			vertex -0.16087167310714717 -0.2092272181238976 -1.141814407786017
			vertex -0.25870926904678343 -0.08601385829113393 -1.141814407786017
		endloop
	endfacet
	facet normal 0 0 -1
		outer loop
			vertex -0.1190141243934631 -0.08487737968079716 -1.141814407786017
			vertex -0.11488581514358517 -0.15269644567631155 -1.141814407786017
			vertex -0.25870926904678343 -0.08601385829113393 -1.141814407786017
		endloop
	endfacet
	facet normal 0 0 -1
		outer loop
			vertex -0.08835402154922484 -0.015333127471431784 -1.141814407786017
			vertex -0.1190141243934631 -0.08487737968079716 -1.141814407786017
			vertex -0.25870926904678343 -0.08601385829113393 -1.141814407786017
		endloop
	endfacet
	facet normal 0 0 -1
		outer loop
			vertex -0.08704073095321652 0.05298868992663951 -1.141814407786017
			vertex -0.08835402154922484 -0.015333127471431784 -1.141814407786017
			vertex -0.25870926904678343 -0.08601385829113393 -1.141814407786017
		endloop
	endfacet
	facet normal 0 0 -1
		outer loop
			vertex -0.1438270888328552 0.15557013371326062 -1.141814407786017
			vertex -0.08704073095321652 0.05298868992663951 -1.141814407786017
			vertex -0.25870926904678343 -0.08601385829113393 -1.141814407786017
		endloop
	endfacet
	facet normal 0 0 -1
		outer loop
			vertex -0.2821597076654434 0.1382423339162025 -1.141814407786017
			vertex -0.1438270888328552 0.15557013371326062 -1.141814407786017
			vertex -0.25870926904678343 -0.08601385829113393 -1.141814407786017
		endloop
	endfacet
	facet normal 0 0 -1
		outer loop
			vertex -0.3296776251792908 0.09651819756366344 -1.141814407786017
			vertex -0.2821597076654434 0.1382423339162025 -1.141814407786017
			vertex -0.25870926904678343 -0.08601385829113393 -1.141814407786017
		endloop
	endfacet
	facet normal 0 0 -1
		outer loop
			vertex -0.4009869294166565 0.06338786652423474 -1.141814407786017
			vertex -0.3296776251792908 0.09651819756366344 -1.141814407786017
			vertex -0.25870926904678343 -0.08601385829113393 -1.141814407786017
		endloop
	endfacet
	facet normal 0 0 -1
		outer loop
			vertex -0.47970803689956665 -0.01933127090595632 -1.141814407786017
			vertex -0.4009869294166565 0.06338786652423474 -1.141814407786017
			vertex -0.25870926904678343 -0.08601385829113393 -1.141814407786017
		endloop
	endfacet
	facet normal 0 0 -1
		outer loop
			vertex -0.48509898900985715 -0.08601385829113391 -1.141814407786017
			vertex -0.47970803689956665 -0.01933127090595632 -1.141814407786017
			vertex -0.25870926904678343 -0.08601385829113393 -1.141814407786017
		endloop
	endfacet
	facet normal 0 0 -1
		outer loop
			vertex -0.4415699677467346 -0.15269644567631155 -1.141814407786017
			vertex -0.48509898900985715 -0.08601385829113391 -1.141814407786017
			vertex -0.25870926904678343 -0.08601385829113393 -1.141814407786017
		endloop
	endfacet
	facet normal 0 0 -1
		outer loop
			vertex -0.3819226288795471 -0.16629886862896354 -1.141814407786017
			vertex -0.4415699677467346 -0.15269644567631155 -1.141814407786017
			vertex -0.25870926904678343 -0.08601385829113393 -1.141814407786017
		endloop
	endfacet
	facet normal 0 0 -1
		outer loop
			vertex -0.32539185643196106 -0.1976488604273644 -1.141814407786017
			vertex -0.3819226288795471 -0.16629886862896354 -1.141814407786017
			vertex -0.25870926904678343 -0.08601385829113393 -1.141814407786017
		endloop
	endfacet
	facet normal 0 0 -1
		outer loop
			vertex -0.25870926904678343 -0.23806003043316276 -1.141814407786017
			vertex -0.32539185643196106 -0.1976488604273644 -1.141814407786017
			vertex -0.25870926904678343 -0.08601385829113393 -1.141814407786017
		endloop
	endfacet
	facet normal 0.4806085785465726 -0.8769352280684378 1.880354201839048e-16
		outer loop
			vertex -0.055 -0.20499999999999968 -0.0799144077860171
			vertex -0.055 -0.20500000000000007 -1.8921144077860172
			vertex 0.023450102806091312 -0.16200504302978522 -1.8921144077860172
		endloop
	endfacet
	facet normal 0.4806085785465726 -0.8769352280684378 1.880354201839048e-16
		outer loop
			vertex -0.055 -0.20499999999999968 -0.0799144077860171
			vertex 0.023450102806091312 -0.16200504302978522 -1.8921144077860172
			vertex 0.023450102806091312 -0.16200504302978483 -0.0799144077860171
		endloop
	endfacet
	facet normal 0.24830873512891075 -0.968680944407745 2.077078472569208e-16
		outer loop
			vertex 0.023450102806091312 -0.16200504302978483 -0.0799144077860171
			vertex 0.023450102806091312 -0.16200504302978522 -1.8921144077860172
			vertex 0.08995689392089845 -0.1449568939208985 -1.8921144077860172
		endloop
	endfacet
	facet normal 0.24830873512891075 -0.968680944407745 2.077078472569208e-16
		outer loop
			vertex 0.023450102806091312 -0.16200504302978483 -0.0799144077860171
			vertex 0.08995689392089845 -0.1449568939208985 -1.8921144077860172
			vertex 0.08995689392089845 -0.1449568939208981 -0.0799144077860171
		endloop
	endfacet
	facet normal 0.9395078026987693 -0.3425275006012368 7.344590619533168e-17
		outer loop
			vertex 0.08995689392089845 -0.1449568939208981 -0.0799144077860171
			vertex 0.08995689392089845 -0.1449568939208985 -1.8921144077860172
			vertex 0.11420406341552736 -0.07845010280609137 -1.8921144077860172
		endloop
	endfacet
	facet normal 0.9395078026987693 -0.3425275006012368 7.344590619533168e-17
		outer loop
			vertex 0.08995689392089845 -0.1449568939208981 -0.0799144077860171
			vertex 0.11420406341552736 -0.07845010280609137 -1.8921144077860172
			vertex 0.11420406341552736 -0.07845010280609098 -0.0799144077860171
		endloop
	endfacet
	facet normal 0.998152408549992 0.060759931746589065 -1.3028350248262146e-17
		outer loop
			vertex 0.11420406341552736 -0.07845010280609098 -0.0799144077860171
			vertex 0.11420406341552736 -0.07845010280609137 -1.8921144077860172
			vertex 0.10934722900390625 0.0013370336592196826 -1.8921144077860172
		endloop
	endfacet
	facet normal 0.998152408549992 0.06075993174658906 -1.3493648471414362e-17
		outer loop
			vertex 0.11420406341552736 -0.07845010280609098 -0.0799144077860171
			vertex 0.10934722900390625 0.0013370336592196826 -1.8921144077860172
			vertex 0.10934722900390625 0.001337033659220085 -0.0799144077860171
		endloop
	endfacet
	facet normal 0.9150207090565589 -0.40340686905112594 8.958914741103807e-17
		outer loop
			vertex 0.10934722900390625 0.001337033659220085 -0.0799144077860171
			vertex 0.10934722900390625 0.0013370336592196826 -1.8921144077860172
			vertex 0.14541793823242188 0.08315380096435541 -1.8921144077860172
		endloop
	endfacet
	facet normal 0.915020709056559 -0.40340686905112616 8.649986646582992e-17
		outer loop
			vertex 0.10934722900390625 0.001337033659220085 -0.0799144077860171
			vertex 0.14541793823242188 0.08315380096435541 -1.8921144077860172
			vertex 0.14541793823242188 0.0831538009643558 -0.0799144077860171
		endloop
	endfacet
	facet normal 0.9998153061125922 -0.019218575987410717 4.1209121215130975e-18
		outer loop
			vertex 0.14541793823242188 0.0831538009643558 -0.0799144077860171
			vertex 0.14541793823242188 0.08315380096435541 -1.8921144077860172
			vertex 0.14696298599243166 0.1635324096679687 -1.8921144077860172
		endloop
	endfacet
	facet normal 0.9998153061125922 -0.019218575987410717 4.1209121215130975e-18
		outer loop
			vertex 0.14541793823242188 0.0831538009643558 -0.0799144077860171
			vertex 0.14696298599243166 0.1635324096679687 -1.8921144077860172
			vertex 0.14696298599243166 0.1635324096679691 -0.0799144077860171
		endloop
	endfacet
	facet normal 0.8011397523443081 0.5984773155381085 -1.2832753194967e-16
		outer loop
			vertex 0.14696298599243166 0.1635324096679691 -0.0799144077860171
			vertex 0.14696298599243166 0.1635324096679687 -1.8921144077860172
			vertex 0.08015550613403322 0.25296291351318356 -1.8921144077860172
		endloop
	endfacet
	facet normal 0.8011397523443083 0.5984773155381082 -1.4666003651390855e-16
		outer loop
			vertex 0.14696298599243166 0.1635324096679691 -0.0799144077860171
			vertex 0.08015550613403322 0.25296291351318356 -1.8921144077860172
			vertex 0.08015550613403322 0.252962913513184 -0.07991440778601722
		endloop
	endfacet
	facet normal 0.2158135476341099 0.9764345921041409 -2.3928046930680724e-16
		outer loop
			vertex 0.08015550613403322 0.252962913513184 -0.07991440778601722
			vertex 0.08015550613403322 0.25296291351318356 -1.8921144077860172
			vertex -0.03632209062576294 0.2787070274353027 -1.8921144077860172
		endloop
	endfacet
	facet normal 0.2158135476341099 0.9764345921041409 -2.3928046930680724e-16
		outer loop
			vertex 0.08015550613403322 0.252962913513184 -0.07991440778601722
			vertex -0.03632209062576294 0.2787070274353027 -1.8921144077860172
			vertex -0.03632209062576294 0.2787070274353031 -0.07991440778601722
		endloop
	endfacet
	facet normal -0.5306378527193201 0.847598648690186 -2.0770853888467361e-16
		outer loop
			vertex -0.03632209062576294 0.2787070274353031 -0.07991440778601722
			vertex -0.03632209062576294 0.2787070274353027 -1.8921144077860172
			vertex -0.13849218368530275 0.21474359512329097 -1.8921144077860172
		endloop
	endfacet
	facet normal -0.5306378527193204 0.8475986486901859 -1.8174497152408934e-16
		outer loop
			vertex -0.03632209062576294 0.2787070274353031 -0.07991440778601722
			vertex -0.13849218368530275 0.21474359512329097 -1.8921144077860172
			vertex -0.13849218368530275 0.21474359512329136 -0.0799144077860171
		endloop
	endfacet
	facet normal -0.8800462265355993 0.47488802802392555 -1.0182709854919408e-16
		outer loop
			vertex -0.13849218368530275 0.21474359512329136 -0.0799144077860171
			vertex -0.13849218368530275 0.21474359512329097 -1.8921144077860172
			vertex -0.17615028381347655 0.1449568939208984 -1.8921144077860172
		endloop
	endfacet
	facet normal -0.8800462265355993 0.47488802802392543 -1.0182709854919405e-16
		outer loop
			vertex -0.13849218368530275 0.21474359512329136 -0.0799144077860171
			vertex -0.17615028381347655 0.1449568939208984 -1.8921144077860172
			vertex -0.17615028381347655 0.14495689392089878 -0.0799144077860171
		endloop
	endfacet
	facet normal -0.697927354736749 0.7161685608222161 -1.5356328716925293e-16
		outer loop
			vertex -0.17615028381347655 0.14495689392089878 -0.0799144077860171
			vertex -0.17615028381347655 0.1449568939208984 -1.8921144077860172
			vertex -0.24439531326293945 0.07845010280609126 -1.8921144077860172
		endloop
	endfacet
	facet normal -0.697927354736749 0.7161685608222161 -1.5356328716925293e-16
		outer loop
			vertex -0.17615028381347655 0.14495689392089878 -0.0799144077860171
			vertex -0.24439531326293945 0.07845010280609126 -1.8921144077860172
			vertex -0.24439531326293945 0.07845010280609165 -0.0799144077860171
		endloop
	endfacet
	facet normal -0.9807853017730452 0.1950902145827835 -4.183190422586031e-17
		outer loop
			vertex -0.24439531326293945 0.07845010280609165 -0.0799144077860171
			vertex -0.24439531326293945 0.07845010280609126 -1.8921144077860172
			vertex -0.26 -2.142817885208027e-17 -1.8921144077860172
		endloop
	endfacet
	facet normal -0.9807853017730452 0.19509021458278353 -4.331872962177374e-17
		outer loop
			vertex -0.24439531326293945 0.07845010280609165 -0.0799144077860171
			vertex -0.26 -2.142817885208027e-17 -1.8921144077860172
			vertex -0.26 3.8096105419306145e-16 -0.0799144077860171
		endloop
	endfacet
	facet normal -0.9807853017730455 -0.19509021458278342 4.331872962177372e-17
		outer loop
			vertex -0.26 3.8096105419306145e-16 -0.0799144077860171
			vertex -0.26 -2.142817885208027e-17 -1.8921144077860172
			vertex -0.24439531326293945 -0.07845010280609137 -1.8921144077860172
		endloop
	endfacet
	facet normal -0.9807853017730455 -0.19509021458278336 4.1831904225860277e-17
		outer loop
			vertex -0.26 3.8096105419306145e-16 -0.0799144077860171
			vertex -0.24439531326293945 -0.07845010280609137 -1.8921144077860172
			vertex -0.24439531326293945 -0.07845010280609098 -0.0799144077860171
		endloop
	endfacet
	facet normal -0.8314695993513175 -0.555570252402484 1.191272542241014e-16
		outer loop
			vertex -0.24439531326293945 -0.07845010280609098 -0.0799144077860171
			vertex -0.24439531326293945 -0.07845010280609137 -1.8921144077860172
			vertex -0.19995689392089844 -0.1449568939208985 -1.8921144077860172
		endloop
	endfacet
	facet normal -0.8314695993513175 -0.555570252402484 1.191272542241014e-16
		outer loop
			vertex -0.24439531326293945 -0.07845010280609098 -0.0799144077860171
			vertex -0.19995689392089844 -0.1449568939208985 -1.8921144077860172
			vertex -0.19995689392089844 -0.1449568939208981 -0.0799144077860171
		endloop
	endfacet
	facet normal -0.555570252402484 -0.8314695993513174 1.78286526165153e-16
		outer loop
			vertex -0.19995689392089844 -0.1449568939208981 -0.0799144077860171
			vertex -0.19995689392089844 -0.1449568939208985 -1.8921144077860172
			vertex -0.13345010280609132 -0.1893953132629395 -1.8921144077860172
		endloop
	endfacet
	facet normal -0.555570252402484 -0.8314695993513174 1.78286526165153e-16
		outer loop
			vertex -0.19995689392089844 -0.1449568939208981 -0.0799144077860171
			vertex -0.13345010280609132 -0.1893953132629395 -1.8921144077860172
			vertex -0.13345010280609132 -0.18939531326293912 -0.0799144077860171
		endloop
	endfacet
	facet normal -0.19509021458278347 -0.9807853017730455 2.1030330453858767e-16
		outer loop
			vertex -0.13345010280609132 -0.18939531326293912 -0.0799144077860171
			vertex -0.13345010280609132 -0.1893953132629395 -1.8921144077860172
			vertex -0.055 -0.20500000000000007 -1.8921144077860172
		endloop
	endfacet
	facet normal -0.19509021458278347 -0.9807853017730455 2.1030330453858767e-16
		outer loop
			vertex -0.13345010280609132 -0.18939531326293912 -0.0799144077860171
			vertex -0.055 -0.20500000000000007 -1.8921144077860172
			vertex -0.055 -0.20499999999999968 -0.0799144077860171
		endloop
	endfacet
	facet normal 0 0 1
		outer loop
			vertex -0.055 -0.20499999999999968 -0.0799144077860171
			vertex 0.023450102806091312 -0.16200504302978483 -0.0799144077860171
			vertex -0.055 3.433031636745909e-16 -0.0799144077860171
		endloop
	endfacet
	facet normal 0 0 1
		outer loop
			vertex 0.023450102806091312 -0.16200504302978483 -0.0799144077860171
			vertex 0.08995689392089845 -0.1449568939208981 -0.0799144077860171
			vertex -0.055 3.433031636745909e-16 -0.0799144077860171
		endloop
	endfacet
	facet normal 0 0 1
		outer loop
			vertex 0.08995689392089845 -0.1449568939208981 -0.0799144077860171
			vertex 0.11420406341552736 -0.07845010280609098 -0.0799144077860171
			vertex -0.055 3.433031636745909e-16 -0.0799144077860171
		endloop
	endfacet
	facet normal 0 0 1
		outer loop
			vertex 0.11420406341552736 -0.07845010280609098 -0.0799144077860171
			vertex 0.10934722900390625 0.001337033659220085 -0.0799144077860171
			vertex -0.055 3.433031636745909e-16 -0.0799144077860171
		endloop
	endfacet
	facet normal 0 0 1
		outer loop
			vertex 0.10934722900390625 0.001337033659220085 -0.0799144077860171
			vertex 0.14541793823242188 0.0831538009643558 -0.0799144077860171
			vertex -0.055 3.433031636745909e-16 -0.0799144077860171
		endloop
	endfacet
	facet normal 0 0 1
		outer loop
			vertex 0.14541793823242188 0.0831538009643558 -0.0799144077860171
			vertex 0.14696298599243166 0.1635324096679691 -0.0799144077860171
			vertex -0.055 3.433031636745909e-16 -0.0799144077860171
		endloop
	endfacet
	facet normal -6.263443962365721e-16 7.735370913961543e-16 1
		outer loop
			vertex 0.14696298599243166 0.1635324096679691 -0.0799144077860171
			vertex 0.08015550613403322 0.252962913513184 -0.07991440778601722
			vertex -0.055 3.433031636745909e-16 -0.0799144077860171
		endloop
	endfacet
	facet normal 8.67585393397257e-17 3.9253346187219087e-16 1
		outer loop
			vertex 0.08015550613403322 0.252962913513184 -0.07991440778601722
			vertex -0.03632209062576294 0.2787070274353031 -0.07991440778601722
			vertex -0.055 3.433031636745909e-16 -0.0799144077860171
		endloop
	endfacet
	facet normal 8.739227266312896e-16 3.397806429419623e-16 1
		outer loop
			vertex -0.03632209062576294 0.2787070274353031 -0.07991440778601722
			vertex -0.13849218368530275 0.21474359512329136 -0.0799144077860171
			vertex -0.055 3.433031636745909e-16 -0.0799144077860171
		endloop
	endfacet
	facet normal 0 0 1
		outer loop
			vertex -0.13849218368530275 0.21474359512329136 -0.0799144077860171
			vertex -0.17615028381347655 0.14495689392089878 -0.0799144077860171
			vertex -0.055 3.433031636745909e-16 -0.0799144077860171
		endloop
	endfacet
	facet normal 0 0 1
		outer loop
			vertex -0.17615028381347655 0.14495689392089878 -0.0799144077860171
			vertex -0.24439531326293945 0.07845010280609165 -0.0799144077860171
			vertex -0.055 3.433031636745909e-16 -0.0799144077860171
		endloop
	endfacet
	facet normal 0 0 1
		outer loop
			vertex -0.24439531326293945 0.07845010280609165 -0.0799144077860171
			vertex -0.26 3.8096105419306145e-16 -0.0799144077860171
			vertex -0.055 3.433031636745909e-16 -0.0799144077860171
		endloop
	endfacet
	facet normal 0 0 1
		outer loop
			vertex -0.26 3.8096105419306145e-16 -0.0799144077860171
			vertex -0.24439531326293945 -0.07845010280609098 -0.0799144077860171
			vertex -0.055 3.433031636745909e-16 -0.0799144077860171
		endloop
	endfacet
	facet normal 0 0 1
		outer loop
			vertex -0.24439531326293945 -0.07845010280609098 -0.0799144077860171
			vertex -0.19995689392089844 -0.1449568939208981 -0.0799144077860171
			vertex -0.055 3.433031636745909e-16 -0.0799144077860171
		endloop
	endfacet
	facet normal 0 0 1
		outer loop
			vertex -0.19995689392089844 -0.1449568939208981 -0.0799144077860171
			vertex -0.13345010280609132 -0.18939531326293912 -0.0799144077860171
			vertex -0.055 3.433031636745909e-16 -0.0799144077860171
		endloop
	endfacet
	facet normal 0 0 1
		outer loop
			vertex -0.13345010280609132 -0.18939531326293912 -0.0799144077860171
			vertex -0.055 -0.20499999999999968 -0.0799144077860171
			vertex -0.055 3.433031636745909e-16 -0.0799144077860171
		endloop
	endfacet
	facet normal 0 0 -1
		outer loop
			vertex 0.023450102806091312 -0.16200504302978522 -1.8921144077860172
			vertex -0.055 -0.20500000000000007 -1.8921144077860172
			vertex -0.055 -5.908606937055083e-17 -1.8921144077860172
		endloop
	endfacet
	facet normal 0 0 -1
		outer loop
			vertex 0.08995689392089845 -0.1449568939208985 -1.8921144077860172
			vertex 0.023450102806091312 -0.16200504302978522 -1.8921144077860172
			vertex -0.055 -5.908606937055083e-17 -1.8921144077860172
		endloop
	endfacet
	facet normal 0 0 -1
		outer loop
			vertex 0.11420406341552736 -0.07845010280609137 -1.8921144077860172
			vertex 0.08995689392089845 -0.1449568939208985 -1.8921144077860172
			vertex -0.055 -5.908606937055083e-17 -1.8921144077860172
		endloop
	endfacet
	facet normal 0 0 -1
		outer loop
			vertex 0.10934722900390625 0.0013370336592196826 -1.8921144077860172
			vertex 0.11420406341552736 -0.07845010280609137 -1.8921144077860172
			vertex -0.055 -5.908606937055083e-17 -1.8921144077860172
		endloop
	endfacet
	facet normal 0 0 -1
		outer loop
			vertex 0.14541793823242188 0.08315380096435541 -1.8921144077860172
			vertex 0.10934722900390625 0.0013370336592196826 -1.8921144077860172
			vertex -0.055 -5.908606937055083e-17 -1.8921144077860172
		endloop
	endfacet
	facet normal 0 0 -1
		outer loop
			vertex 0.14696298599243166 0.1635324096679687 -1.8921144077860172
			vertex 0.14541793823242188 0.08315380096435541 -1.8921144077860172
			vertex -0.055 -5.908606937055083e-17 -1.8921144077860172
		endloop
	endfacet
	facet normal 0 0 -1
		outer loop
			vertex 0.08015550613403322 0.25296291351318356 -1.8921144077860172
			vertex 0.14696298599243166 0.1635324096679687 -1.8921144077860172
			vertex -0.055 -5.908606937055083e-17 -1.8921144077860172
		endloop
	endfacet
	facet normal 0 0 -1
		outer loop
			vertex -0.03632209062576294 0.2787070274353027 -1.8921144077860172
			vertex 0.08015550613403322 0.25296291351318356 -1.8921144077860172
			vertex -0.055 -5.908606937055083e-17 -1.8921144077860172
		endloop
	endfacet
	facet normal 0 0 -1
		outer loop
			vertex -0.13849218368530275 0.21474359512329097 -1.8921144077860172
			vertex -0.03632209062576294 0.2787070274353027 -1.8921144077860172
			vertex -0.055 -5.908606937055083e-17 -1.8921144077860172
		endloop
	endfacet
	facet normal 0 0 -1
		outer loop
			vertex -0.17615028381347655 0.1449568939208984 -1.8921144077860172
			vertex -0.13849218368530275 0.21474359512329097 -1.8921144077860172
			vertex -0.055 -5.908606937055083e-17 -1.8921144077860172
		endloop
	endfacet
	facet normal 0 0 -1
		outer loop
			vertex -0.24439531326293945 0.07845010280609126 -1.8921144077860172
			vertex -0.17615028381347655 0.1449568939208984 -1.8921144077860172
			vertex -0.055 -5.908606937055083e-17 -1.8921144077860172
		endloop
	endfacet
	facet normal 0 0 -1
		outer loop
			vertex -0.26 -2.142817885208027e-17 -1.8921144077860172
			vertex -0.24439531326293945 0.07845010280609126 -1.8921144077860172
			vertex -0.055 -5.908606937055083e-17 -1.8921144077860172
		endloop
	endfacet
	facet normal 0 0 -1
		outer loop
			vertex -0.24439531326293945 -0.07845010280609137 -1.8921144077860172
			vertex -0.26 -2.142817885208027e-17 -1.8921144077860172
			vertex -0.055 -5.908606937055083e-17 -1.8921144077860172
		endloop
	endfacet
	facet normal 0 0 -1
		outer loop
			vertex -0.19995689392089844 -0.1449568939208985 -1.8921144077860172
			vertex -0.24439531326293945 -0.07845010280609137 -1.8921144077860172
			vertex -0.055 -5.908606937055083e-17 -1.8921144077860172
		endloop
	endfacet
	facet normal 0 0 -1
		outer loop
			vertex -0.13345010280609132 -0.1893953132629395 -1.8921144077860172
			vertex -0.19995689392089844 -0.1449568939208985 -1.8921144077860172
			vertex -0.055 -5.908606937055083e-17 -1.8921144077860172
		endloop
	endfacet
	facet normal 0 0 -1
		outer loop
			vertex -0.055 -0.20500000000000007 -1.8921144077860172
			vertex -0.13345010280609132 -0.1893953132629395 -1.8921144077860172
			vertex -0.055 -5.908606937055083e-17 -1.8921144077860172
		endloop
	endfacet
endsolid exported
