solid exported
	facet normal -0.26854364793979235 -0.9632675169189446 2.0783785085704413e-16
		outer loop
			vertex -0.17147661266030612 -0.23061430038799707 0.02891931336928332
			vertex -0.17147661266030612 -0.23061430038799752 -2.0293040020604027
			vertex -0.08169125547112766 -0.2556450285374116 -2.0293040020604027
		endloop
	endfacet
	facet normal -0.26854364793979235 -0.9632675169189446 2.0783785085704413e-16
		outer loop
			vertex -0.17147661266030612 -0.23061430038799707 0.02891931336928332
			vertex -0.08169125547112766 -0.2556450285374116 -2.0293040020604027
			vertex -0.08169125547112766 -0.25564502853741117 0.02891931336928332
		endloop
	endfacet
	facet normal -0.05794078108072663 -0.9983200217804686 2.154008976219526e-16
		outer loop
			vertex -0.08169125547112766 -0.25564502853741117 0.02891931336928332
			vertex -0.08169125547112766 -0.2556450285374116 -2.0293040020604027
			vertex 0.008009257224184827 -0.260851092380185 -2.0293040020604027
		endloop
	endfacet
	facet normal -0.05794078108072663 -0.9983200217804686 2.154008976219526e-16
		outer loop
			vertex -0.08169125547112766 -0.25564502853741117 0.02891931336928332
			vertex 0.008009257224184827 -0.260851092380185 -2.0293040020604027
			vertex 0.008009257224184827 -0.26085109238018456 0.02891931336928332
		endloop
	endfacet
	facet normal 0.9118079007796688 -0.4106170382190369 8.859611816009215e-17
		outer loop
			vertex 0.008009257224184827 -0.26085109238018456 0.02891931336928332
			vertex 0.008009257224184827 -0.260851092380185 -2.0293040020604027
			vertex 0.06281437654791529 -0.13915195145000928 -2.0293040020604027
		endloop
	endfacet
	facet normal 0.9118079007796688 -0.410617038219037 8.859611816009218e-17
		outer loop
			vertex 0.008009257224184827 -0.26085109238018456 0.02891931336928332
			vertex 0.06281437654791529 -0.13915195145000928 -2.0293040020604027
			vertex 0.06281437654791529 -0.13915195145000883 0.02891931336928332
		endloop
	endfacet
	facet normal 0.9808067431573964 -0.19498239042790858 4.207005870095754e-17
		outer loop
			vertex 0.06281437654791529 -0.13915195145000883 0.02891931336928332
			vertex 0.06281437654791529 -0.13915195145000928 -2.0293040020604027
			vertex 0.08117493410406763 -0.04679407944073201 -2.0293040020604027
		endloop
	endfacet
	facet normal 0.9808067431573962 -0.19498239042790852 4.338474803536245e-17
		outer loop
			vertex 0.06281437654791529 -0.13915195145000883 0.02891931336928332
			vertex 0.08117493410406763 -0.04679407944073201 -2.0293040020604027
			vertex 0.08117493410406763 -0.04679407944073155 0.02891931336928332
		endloop
	endfacet
	facet normal 0.9808067431573964 0.1949823904279084 -4.338474803536242e-17
		outer loop
			vertex 0.08117493410406763 -0.04679407944073155 0.02891931336928332
			vertex 0.08117493410406763 -0.04679407944073201 -2.0293040020604027
			vertex 0.06281437654791529 0.04556379256854532 -2.0293040020604027
		endloop
	endfacet
	facet normal 0.9808067431573965 0.1949823904279085 -4.207005870095753e-17
		outer loop
			vertex 0.08117493410406763 -0.04679407944073155 0.02891931336928332
			vertex 0.06281437654791529 0.04556379256854532 -2.0293040020604027
			vertex 0.06281437654791529 0.045563792568545765 0.02891931336928332
		endloop
	endfacet
	facet normal 0.8316187417897379 0.5553469800980766 -1.1982353894037336e-16
		outer loop
			vertex 0.06281437654791529 0.045563792568545765 0.02891931336928332
			vertex 0.06281437654791529 0.04556379256854532 -2.0293040020604027
			vertex 0.010528243735415303 0.1238610185206937 -2.0293040020604027
		endloop
	endfacet
	facet normal 0.8316187417897379 0.5553469800980766 -1.1982353894037336e-16
		outer loop
			vertex 0.06281437654791529 0.045563792568545765 0.02891931336928332
			vertex 0.010528243735415303 0.1238610185206937 -2.0293040020604027
			vertex 0.010528243735415303 0.12386101852069414 0.02891931336928332
		endloop
	endfacet
	facet normal 0.555792775196949 0.8313208712879004 -1.7936859722388148e-16
		outer loop
			vertex 0.010528243735415303 0.12386101852069414 0.02891931336928332
			vertex 0.010528243735415303 0.1238610185206937 -2.0293040020604027
			vertex -0.06772365674676242 0.1761775697291898 -2.0293040020604027
		endloop
	endfacet
	facet normal 0.555792775196949 0.8313208712879004 -1.7936859722388148e-16
		outer loop
			vertex 0.010528243735415303 0.12386101852069414 0.02891931336928332
			vertex -0.06772365674676242 0.1761775697291898 -2.0293040020604027
			vertex -0.06772365674676242 0.17617756972919024 0.02891931336928332
		endloop
	endfacet
	facet normal 0.718932274442406 0.6950801283054128 -1.4997283465190448e-16
		outer loop
			vertex -0.06772365674676242 0.17617756972919024 0.02891931336928332
			vertex -0.06772365674676242 0.1761775697291898 -2.0293040020604027
			vertex -0.13980665330590547 0.25073414321551785 -2.0293040020604027
		endloop
	endfacet
	facet normal 0.718932274442406 0.6950801283054128 -1.4997283465190448e-16
		outer loop
			vertex -0.06772365674676242 0.17617756972919024 0.02891931336928332
			vertex -0.13980665330590547 0.25073414321551785 -2.0293040020604027
			vertex -0.13980665330590547 0.2507341432155183 0.02891931336928332
		endloop
	endfacet
	facet normal 0.33863907901223594 0.9409163481233306 -2.0301528723371959e-16
		outer loop
			vertex -0.13980665330590547 0.2507341432155183 0.02891931336928332
			vertex -0.13980665330590547 0.25073414321551785 -2.0293040020604027
			vertex -0.27753293637933074 0.30030231338153346 -2.0293040020604027
		endloop
	endfacet
	facet normal 0.33863907901223594 0.9409163481233306 -2.0301528723371959e-16
		outer loop
			vertex -0.13980665330590547 0.2507341432155183 0.02891931336928332
			vertex -0.27753293637933074 0.30030231338153346 -2.0293040020604027
			vertex -0.27753293637933074 0.3003023133815339 0.02891931336928332
		endloop
	endfacet
	facet normal -0.7404997474888072 0.6720566374711383 -1.4500520855616732e-16
		outer loop
			vertex -0.27753293637933074 0.3003023133815339 0.02891931336928332
			vertex -0.27753293637933074 0.30030231338153346 -2.0293040020604027
			vertex -0.37600612821282675 0.19180048537860384 -2.0293040020604027
		endloop
	endfacet
	facet normal -0.7404997474888072 0.6720566374711383 -1.4500520855616732e-16
		outer loop
			vertex -0.27753293637933074 0.3003023133815339 0.02891931336928332
			vertex -0.37600612821282675 0.19180048537860384 -2.0293040020604027
			vertex -0.37600612821282675 0.19180048537860428 0.02891931336928332
		endloop
	endfacet
	facet normal -0.9989001826002686 0.046887367180832154 -1.0116576606236023e-17
		outer loop
			vertex -0.37600612821282675 0.19180048537860428 0.02891931336928332
			vertex -0.37600612821282675 0.19180048537860384 -2.0293040020604027
			vertex -0.3828703310936862 0.04556379256854532 -2.0293040020604027
		endloop
	endfacet
	facet normal -0.9989001826002686 0.046887367180832154 -1.0116576606236023e-17
		outer loop
			vertex -0.37600612821282675 0.19180048537860428 0.02891931336928332
			vertex -0.3828703310936862 0.04556379256854532 -2.0293040020604027
			vertex -0.3828703310936862 0.045563792568545765 0.02891931336928332
		endloop
	endfacet
	facet normal -0.9808067431573965 0.19498239042790796 -4.2070058700957406e-17
		outer loop
			vertex -0.3828703310936862 0.045563792568545765 0.02891931336928332
			vertex -0.3828703310936862 0.04556379256854532 -2.0293040020604027
			vertex -0.40123088864983847 -0.04679407944073195 -2.0293040020604027
		endloop
	endfacet
	facet normal -0.9808067431573964 0.19498239042790796 -4.3384748035362324e-17
		outer loop
			vertex -0.3828703310936862 0.045563792568545765 0.02891931336928332
			vertex -0.40123088864983847 -0.04679407944073195 -2.0293040020604027
			vertex -0.40123088864983847 -0.046794079440731495 0.02891931336928332
		endloop
	endfacet
	facet normal -0.9788222969132314 0.2047117755907213 -4.554959442431722e-17
		outer loop
			vertex -0.40123088864983847 -0.046794079440731495 0.02891931336928332
			vertex -0.40123088864983847 -0.04679407944073195 -2.0293040020604027
			vertex -0.4266628649681979 -0.1683961973606538 -2.0293040020604027
		endloop
	endfacet
	facet normal -0.9788222969132314 0.20471177559072123 -4.416930368418638e-17
		outer loop
			vertex -0.40123088864983847 -0.046794079440731495 0.02891931336928332
			vertex -0.4266628649681979 -0.1683961973606538 -2.0293040020604027
			vertex -0.4266628649681979 -0.16839619736065337 0.02891931336928332
		endloop
	endfacet
	facet normal -0.8316183825897473 -0.5553475179910439 1.1982365499797556e-16
		outer loop
			vertex -0.4266628649681979 -0.16839619736065337 0.02891931336928332
			vertex -0.4266628649681979 -0.1683961973606538 -2.0293040020604027
			vertex -0.374376649758237 -0.24669343704571237 -2.0293040020604027
		endloop
	endfacet
	facet normal -0.8316183825897473 -0.5553475179910439 1.1982365499797556e-16
		outer loop
			vertex -0.4266628649681979 -0.16839619736065337 0.02891931336928332
			vertex -0.374376649758237 -0.24669343704571237 -2.0293040020604027
			vertex -0.374376649758237 -0.24669343704571192 0.02891931336928332
		endloop
	endfacet
	facet normal -0.1857581242683201 -0.9825955013474851 2.12008122016893e-16
		outer loop
			vertex -0.374376649758237 -0.24669343704571192 0.02891931336928332
			vertex -0.374376649758237 -0.24669343704571237 -2.0293040020604027
			vertex -0.25233229779900845 -0.2697657286106538 -2.0293040020604027
		endloop
	endfacet
	facet normal -0.1857581242683201 -0.9825955013474851 2.12008122016893e-16
		outer loop
			vertex -0.374376649758237 -0.24669343704571192 0.02891931336928332
			vertex -0.25233229779900845 -0.2697657286106538 -2.0293040020604027
			vertex -0.25233229779900845 -0.26976572861065334 0.02891931336928332
		endloop
	endfacet
	facet normal 0.435810841947931 -0.9000382825417126 1.9419529782428567e-16
		outer loop
			vertex -0.25233229779900845 -0.26976572861065334 0.02891931336928332
			vertex -0.25233229779900845 -0.2697657286106538 -2.0293040020604027
			vertex -0.17147661266030612 -0.23061430038799752 -2.0293040020604027
		endloop
	endfacet
	facet normal 0.435810841947931 -0.9000382825417126 1.9419529782428567e-16
		outer loop
			vertex -0.25233229779900845 -0.26976572861065334 0.02891931336928332
			vertex -0.17147661266030612 -0.23061430038799752 -2.0293040020604027
			vertex -0.17147661266030612 -0.23061430038799707 0.02891931336928332
		endloop
	endfacet
	facet normal 0 0 1
		outer loop
			vertex -0.17147661266030612 -0.23061430038799707 0.02891931336928332
			vertex -0.08169125547112766 -0.25564502853741117 0.02891931336928332
			vertex -0.16002797727288545 -0.04679407944073154 0.02891931336928332
		endloop
	endfacet
	facet normal 0 0 1
		outer loop
			vertex -0.08169125547112766 -0.25564502853741117 0.02891931336928332
			vertex 0.008009257224184827 -0.26085109238018456 0.02891931336928332
			vertex -0.16002797727288545 -0.04679407944073154 0.02891931336928332
		endloop
	endfacet
	facet normal 0 0 1
		outer loop
			vertex 0.008009257224184827 -0.26085109238018456 0.02891931336928332
			vertex 0.06281437654791529 -0.13915195145000883 0.02891931336928332
			vertex -0.16002797727288545 -0.04679407944073154 0.02891931336928332
		endloop
	endfacet
	facet normal 0 0 1
		outer loop
			vertex 0.06281437654791529 -0.13915195145000883 0.02891931336928332
			vertex 0.08117493410406763 -0.04679407944073155 0.02891931336928332
			vertex -0.16002797727288545 -0.04679407944073154 0.02891931336928332
		endloop
	endfacet
	facet normal 0 0 1
		outer loop
			vertex 0.08117493410406763 -0.04679407944073155 0.02891931336928332
			vertex 0.06281437654791529 0.045563792568545765 0.02891931336928332
			vertex -0.16002797727288545 -0.04679407944073154 0.02891931336928332
		endloop
	endfacet
	facet normal 0 0 1
		outer loop
			vertex 0.06281437654791529 0.045563792568545765 0.02891931336928332
			vertex 0.010528243735415303 0.12386101852069414 0.02891931336928332
			vertex -0.16002797727288545 -0.04679407944073154 0.02891931336928332
		endloop
	endfacet
	facet normal 0 0 1
		outer loop
			vertex 0.010528243735415303 0.12386101852069414 0.02891931336928332
			vertex -0.06772365674676242 0.17617756972919024 0.02891931336928332
			vertex -0.16002797727288545 -0.04679407944073154 0.02891931336928332
		endloop
	endfacet
	facet normal 0 0 1
		outer loop
			vertex -0.06772365674676242 0.17617756972919024 0.02891931336928332
			vertex -0.13980665330590547 0.2507341432155183 0.02891931336928332
			vertex -0.16002797727288545 -0.04679407944073154 0.02891931336928332
		endloop
	endfacet
	facet normal 0 0 1
		outer loop
			vertex -0.13980665330590547 0.2507341432155183 0.02891931336928332
			vertex -0.27753293637933074 0.3003023133815339 0.02891931336928332
			vertex -0.16002797727288545 -0.04679407944073154 0.02891931336928332
		endloop
	endfacet
	facet normal 0 0 1
		outer loop
			vertex -0.27753293637933074 0.3003023133815339 0.02891931336928332
			vertex -0.37600612821282675 0.19180048537860428 0.02891931336928332
			vertex -0.16002797727288545 -0.04679407944073154 0.02891931336928332
		endloop
	endfacet
	facet normal 0 0 1
		outer loop
			vertex -0.37600612821282675 0.19180048537860428 0.02891931336928332
			vertex -0.3828703310936862 0.045563792568545765 0.02891931336928332
			vertex -0.16002797727288545 -0.04679407944073154 0.02891931336928332
		endloop
	endfacet
	facet normal 0 0 1
		outer loop
			vertex -0.3828703310936862 0.045563792568545765 0.02891931336928332
			vertex -0.40123088864983847 -0.046794079440731495 0.02891931336928332
			vertex -0.16002797727288545 -0.04679407944073154 0.02891931336928332
		endloop
	endfacet
	facet normal 0 0 1
		outer loop
			vertex -0.40123088864983847 -0.046794079440731495 0.02891931336928332
			vertex -0.4266628649681979 -0.16839619736065337 0.02891931336928332
			vertex -0.16002797727288545 -0.04679407944073154 0.02891931336928332
		endloop
	endfacet
	facet normal 0 0 1
		outer loop
			vertex -0.4266628649681979 -0.16839619736065337 0.02891931336928332
			vertex -0.374376649758237 -0.24669343704571192 0.02891931336928332
			vertex -0.16002797727288545 -0.04679407944073154 0.02891931336928332
		endloop
	endfacet
	facet normal 0 0 1
		outer loop
			vertex -0.374376649758237 -0.24669343704571192 0.02891931336928332
			vertex -0.25233229779900845 -0.26976572861065334 0.02891931336928332
			vertex -0.16002797727288545 -0.04679407944073154 0.02891931336928332
		endloop
	endfacet
	facet normal 0 0 1
		outer loop
			vertex -0.25233229779900845 -0.26976572861065334 0.02891931336928332
			vertex -0.17147661266030612 -0.23061430038799707 0.02891931336928332
			vertex -0.16002797727288545 -0.04679407944073154 0.02891931336928332
		endloop
	endfacet
	facet normal 0 0 -1
		outer loop
			vertex -0.08169125547112766 -0.2556450285374116 -2.0293040020604027
			vertex -0.17147661266030612 -0.23061430038799752 -2.0293040020604027
			vertex -0.16002797727288545 -0.046794079440731995 -2.0293040020604027
		endloop
	endfacet
	facet normal 0 0 -1
		outer loop
			vertex 0.008009257224184827 -0.260851092380185 -2.0293040020604027
			vertex -0.08169125547112766 -0.2556450285374116 -2.0293040020604027
			vertex -0.16002797727288545 -0.046794079440731995 -2.0293040020604027
		endloop
	endfacet
	facet normal 0 0 -1
		outer loop
			vertex 0.06281437654791529 -0.13915195145000928 -2.0293040020604027
			vertex 0.008009257224184827 -0.260851092380185 -2.0293040020604027
			vertex -0.16002797727288545 -0.046794079440731995 -2.0293040020604027
		endloop
	endfacet
	facet normal 0 0 -1
		outer loop
			vertex 0.08117493410406763 -0.04679407944073201 -2.0293040020604027
			vertex 0.06281437654791529 -0.13915195145000928 -2.0293040020604027
			vertex -0.16002797727288545 -0.046794079440731995 -2.0293040020604027
		endloop
	endfacet
	facet normal 0 0 -1
		outer loop
			vertex 0.06281437654791529 0.04556379256854532 -2.0293040020604027
			vertex 0.08117493410406763 -0.04679407944073201 -2.0293040020604027
			vertex -0.16002797727288545 -0.046794079440731995 -2.0293040020604027
		endloop
	endfacet
	facet normal 0 0 -1
		outer loop
			vertex 0.010528243735415303 0.1238610185206937 -2.0293040020604027
			vertex 0.06281437654791529 0.04556379256854532 -2.0293040020604027
			vertex -0.16002797727288545 -0.046794079440731995 -2.0293040020604027
		endloop
	endfacet
	facet normal 0 0 -1
		outer loop
			vertex -0.06772365674676242 0.1761775697291898 -2.0293040020604027
			vertex 0.010528243735415303 0.1238610185206937 -2.0293040020604027
			vertex -0.16002797727288545 -0.046794079440731995 -2.0293040020604027
		endloop
	endfacet
	facet normal 0 0 -1
		outer loop
			vertex -0.13980665330590547 0.25073414321551785 -2.0293040020604027
			vertex -0.06772365674676242 0.1761775697291898 -2.0293040020604027
			vertex -0.16002797727288545 -0.046794079440731995 -2.0293040020604027
		endloop
	endfacet
	facet normal 0 0 -1
		outer loop
			vertex -0.27753293637933074 0.30030231338153346 -2.0293040020604027
			vertex -0.13980665330590547 0.25073414321551785 -2.0293040020604027
			vertex -0.16002797727288545 -0.046794079440731995 -2.0293040020604027
		endloop
	endfacet
	facet normal 0 0 -1
		outer loop
			vertex -0.37600612821282675 0.19180048537860384 -2.0293040020604027
			vertex -0.27753293637933074 0.30030231338153346 -2.0293040020604027
			vertex -0.16002797727288545 -0.046794079440731995 -2.0293040020604027
		endloop
	endfacet
	facet normal 0 0 -1
		outer loop
			vertex -0.3828703310936862 0.04556379256854532 -2.0293040020604027
			vertex -0.37600612821282675 0.19180048537860384 -2.0293040020604027
			vertex -0.16002797727288545 -0.046794079440731995 -2.0293040020604027
		endloop
	endfacet
	facet normal 0 0 -1
		outer loop
			vertex -0.40123088864983847 -0.04679407944073195 -2.0293040020604027
			vertex -0.3828703310936862 0.04556379256854532 -2.0293040020604027
			vertex -0.16002797727288545 -0.046794079440731995 -2.0293040020604027
		endloop
	endfacet
	facet normal 0 0 -1
		outer loop
			vertex -0.4266628649681979 -0.1683961973606538 -2.0293040020604027
			vertex -0.40123088864983847 -0.04679407944073195 -2.0293040020604027
			vertex -0.16002797727288545 -0.046794079440731995 -2.0293040020604027
		endloop
	endfacet
	facet normal 0 0 -1
		outer loop
			vertex -0.374376649758237 -0.24669343704571237 -2.0293040020604027
			vertex -0.4266628649681979 -0.1683961973606538 -2.0293040020604027
			vertex -0.16002797727288545 -0.046794079440731995 -2.0293040020604027
		endloop
	endfacet
	facet normal 0 0 -1
		outer loop
			vertex -0.25233229779900845 -0.2697657286106538 -2.0293040020604027
			vertex -0.374376649758237 -0.24669343704571237 -2.0293040020604027
			vertex -0.16002797727288545 -0.046794079440731995 -2.0293040020604027
		endloop
	endfacet
	facet normal 0 0 -1
		outer loop
			vertex -0.17147661266030612 -0.23061430038799752 -2.0293040020604027
			vertex -0.25233229779900845 -0.2697657286106538 -2.0293040020604027
			vertex -0.16002797727288545 -0.046794079440731995 -2.0293040020604027
		endloop
	endfacet
	facet normal 0.19508831066143228 -0.9807651296733318 0.006349130658706774
		outer loop
			vertex -0.10448912393753278 0.20293336707062634 0.022902882561693493
			vertex -0.10448912393753278 0.18482546538470593 -2.7742672340666905
			vertex -0.05787829248611674 0.19409664257775705 -2.7743272524274354
		endloop
	endfacet
	facet normal 0.19508831066143292 -0.9807651296733317 0.006349130658706784
		outer loop
			vertex -0.10448912393753278 0.20293336707062634 0.022902882561693493
			vertex -0.05787829248611674 0.19409664257775705 -2.7743272524274354
			vertex -0.05787829248611674 0.2122045442636775 0.02284286420094862
		endloop
	endfacet
	facet normal 0.39294929531729816 -0.9195408721997749 0.005952786214536556
		outer loop
			vertex -0.05787829248611674 0.2122045442636775 0.02284286420094862
			vertex -0.05787829248611674 0.19409664257775705 -2.7743272524274354
			vertex -0.03562727472488625 0.2036429338006394 -2.768500870168087
		endloop
	endfacet
	facet normal 0.39294929531730033 -0.9195408721997741 0.005952786214536571
		outer loop
			vertex -0.05787829248611674 0.2122045442636775 0.02284286420094862
			vertex -0.03562727472488625 0.2036429338006394 -2.768500870168087
			vertex -0.03562727472488625 0.22175083344489982 0.028668931080269924
		endloop
	endfacet
	facet normal 0.5965063625823559 -0.8025915300642928 0.00519569704894267
		outer loop
			vertex -0.03562727472488625 0.22175083344489982 0.028668931080269924
			vertex -0.03562727472488625 0.2036429338006394 -2.768500870168087
			vertex -0.006224216863558121 0.2254951156836796 -2.768642333555962
		endloop
	endfacet
	facet normal 0.5965063625823549 -0.8025915300642934 0.005195697048942659
		outer loop
			vertex -0.03562727472488625 0.22175083344489982 0.028668931080269924
			vertex -0.006224216863558121 0.2254951156836796 -2.768642333555962
			vertex -0.006224216863558121 0.24360301532794 0.028527467692395017
		endloop
	endfacet
	facet normal 0.9964468232354543 -0.08422251000408848 0.0005452270928497483
		outer loop
			vertex -0.006224216863558121 0.24360301532794 0.028527467692395017
			vertex -0.006224216863558121 0.2254951156836796 -2.768642333555962
			vertex -0.002701267644808118 0.2671738123616046 -2.7689121468709814
		endloop
	endfacet
	facet normal 0.9964468232354543 -0.08422251000408854 0.0005452270928497479
		outer loop
			vertex -0.006224216863558121 0.24360301532794 0.028527467692395017
			vertex -0.002701267644808118 0.2671738123616046 -2.7689121468709814
			vertex -0.002701267644808118 0.28528171200586494 0.028257654377375388
		endloop
	endfacet
	facet normal 0.7666080719594582 -0.6421018497829081 0.004156742952134595
		outer loop
			vertex -0.002701267644808118 0.28528171200586494 0.028257654377375388
			vertex -0.002701267644808118 0.2671738123616046 -2.7689121468709814
			vertex 0.106153679254606 0.39709080013159553 -2.775923116952607
		endloop
	endfacet
	facet normal 0.7666080719594583 -0.642101849782908 0.004156742952134603
		outer loop
			vertex -0.002701267644808118 0.28528171200586494 0.028257654377375388
			vertex 0.106153679254606 0.39709080013159553 -2.775923116952607
			vertex 0.106153679254606 0.4151987004564093 0.021246789422425538
		endloop
	endfacet
	facet normal 0.6386141411914499 0.7695109894457753 -0.004981545191078807
		outer loop
			vertex 0.106153679254606 0.4151987004564093 0.021246789422425538
			vertex 0.106153679254606 0.39709080013159553 -2.775923116952607
			vertex 0.0009013599186684517 0.4844213553513951 -2.778692852960589
		endloop
	endfacet
	facet normal 0.63861414119145 0.7695109894457753 -0.004981545191078813
		outer loop
			vertex 0.106153679254606 0.4151987004564093 0.021246789422425538
			vertex 0.0009013599186684517 0.4844213553513951 -2.778692852960589
			vertex 0.0009013599186684517 0.5025292549956555 0.018476948287767143
		endloop
	endfacet
	facet normal -0.1436847760572958 0.9896027707649532 -0.006406342458257775
		outer loop
			vertex 0.0009013599186684517 0.5025292549956555 0.018476948287767143
			vertex 0.0009013599186684517 0.4844213553513951 -2.778692852960589
			vertex -0.08430664865677105 0.47209008814623504 -2.7724431968671674
		endloop
	endfacet
	facet normal -0.14368477605729643 0.9896027707649532 -0.006406342458257755
		outer loop
			vertex 0.0009013599186684517 0.5025292549956555 0.018476948287767143
			vertex -0.08430664865677105 0.47209008814623504 -2.7724431968671674
			vertex -0.08430664865677105 0.4901979877904954 0.02472660438118891
		endloop
	endfacet
	facet normal -0.7261436904406754 0.6875285674338812 -0.004450819644949191
		outer loop
			vertex -0.08430664865677105 0.4901979877904954 0.02472660438118891
			vertex -0.08430664865677105 0.47209008814623504 -2.7724431968671674
			vertex -0.1257167329043602 0.42837030497383927 -2.7699556766237787
		endloop
	endfacet
	facet normal -0.726143690440675 0.6875285674338817 -0.004450819644949206
		outer loop
			vertex -0.08430664865677105 0.4901979877904954 0.02472660438118891
			vertex -0.1257167329043602 0.42837030497383927 -2.7699556766237787
			vertex -0.1257167329043602 0.44647820461809967 0.027214124624578073
		endloop
	endfacet
	facet normal -0.617908301603993 0.7862336959981799 -0.005089802148484907
		outer loop
			vertex -0.1257167329043602 0.44647820461809967 0.027214124624578073
			vertex -0.1257167329043602 0.42837030497383927 -2.7699556766237787
			vertex -0.1612876461238121 0.4003907646266384 -2.773667971330752
		endloop
	endfacet
	facet normal -0.6179083016039931 0.7862336959981796 -0.0050898021484849
		outer loop
			vertex -0.1257167329043602 0.44647820461809967 0.027214124624578073
			vertex -0.1612876461238121 0.4003907646266384 -2.773667971330752
			vertex -0.1612876461238121 0.41849866495145216 0.02350193504428023
		endloop
	endfacet
	facet normal -0.6234839693738441 0.7818197515456118 -0.005061227814832803
		outer loop
			vertex -0.1612876461238121 0.41849866495145216 0.02350193504428023
			vertex -0.1612876461238121 0.4003907646266384 -2.773667971330752
			vertex -0.28918230707351916 0.29829389113465726 -2.7896880754251634
		endloop
	endfacet
	facet normal -0.6125454140303174 0.7904131841662458 -0.005925710641219389
		outer loop
			vertex -0.1612876461238121 0.41849866495145216 0.02350193504428023
			vertex -0.28918230707351916 0.29829389113465726 -2.7896880754251634
			vertex -0.28857653925125354 0.31987472605368383 0.026297576615412332
		endloop
	endfacet
	facet normal -0.9840505859495831 0.17788512635918846 -0.0011515695627596944
		outer loop
			vertex -0.28857653925125354 0.31987472605368383 0.026297576615412332
			vertex -0.28918230707351916 0.29829389113465726 -2.7896880754251634
			vertex -0.3036194042414879 0.21834273853699845 -2.802962961581357
		endloop
	endfacet
	facet normal -0.984050589089056 0.17788510899594054 -0.0011515689229629287
		outer loop
			vertex -0.28857653925125354 0.31987472605368383 0.026297576615412332
			vertex -0.3036194042414879 0.21834273853699845 -2.802962961581357
			vertex -0.3030136364192223 0.23992356544532856 0.013022690511077078
		endloop
	endfacet
	facet normal 0.48189546741997275 -0.876203771610161 0.00661128551910502
		outer loop
			vertex -0.3030136364192223 0.23992356544532856 0.013022690511077078
			vertex -0.3036194042414879 0.21834273853699845 -2.802962961581357
			vertex -0.19773946344558946 0.2763527174938206 -2.832382536138047
		endloop
	endfacet
	facet normal 0.4620527880001936 -0.8868338409304432 0.005741052325652717
		outer loop
			vertex -0.3030136364192223 0.23992356544532856 0.013022690511077078
			vertex -0.19773946344558946 0.2763527174938206 -2.832382536138047
			vertex -0.19773946344558946 0.2944606184991877 -0.03521252463633863
		endloop
	endfacet
	facet normal -0.6873330100009328 -0.7263272159756061 0.004701988534951129
		outer loop
			vertex -0.19773946344558946 0.2944606184991877 -0.03521252463633863
			vertex -0.19773946344558946 0.2763527174938206 -2.832382536138047
			vertex -0.15229127618973007 0.23351974545990428 -2.8053118584121717
		endloop
	endfacet
	facet normal -0.6873330100009329 -0.726327215975606 0.004701988534951124
		outer loop
			vertex -0.19773946344558946 0.2944606184991877 -0.03521252463633863
			vertex -0.15229127618973007 0.23351974545990428 -2.8053118584121717
			vertex -0.15229127618973007 0.25162764510416463 -0.008142057163815112
		endloop
	endfacet
	facet normal -0.8179573086274439 -0.5752668706922032 0.0037240766572387333
		outer loop
			vertex -0.15229127618973007 0.25162764510416463 -0.008142057163815112
			vertex -0.15229127618973007 0.23351974545990428 -2.8053118584121717
			vertex -0.14340254709427108 0.22101310803273622 -2.7849184134266873
		endloop
	endfacet
	facet normal -0.8179573086274436 -0.5752668706922034 0.003724076657238737
		outer loop
			vertex -0.15229127618973007 0.25162764510416463 -0.008142057163815112
			vertex -0.14340254709427108 0.22101310803273622 -2.7849184134266873
			vertex -0.14340254709427108 0.23912100631588987 0.012251177568317622
		endloop
	endfacet
	facet normal -0.8621170655441412 -0.506698535281329 0.003280189219357787
		outer loop
			vertex -0.14340254709427108 0.23912100631588987 0.012251177568317622
			vertex -0.14340254709427108 0.22101310803273622 -2.7849184134266873
			vertex -0.1306432029933189 0.19941031069842127 -2.7684734696454827
		endloop
	endfacet
	facet normal -0.862117065544141 -0.5066985352813292 0.0032801892193577912
		outer loop
			vertex -0.14340254709427108 0.23912100631588987 0.012251177568317622
			vertex -0.1306432029933189 0.19941031069842127 -2.7684734696454827
			vertex -0.1306432029933189 0.21751821034268165 0.028696331602874117
		endloop
	endfacet
	facet normal -0.4860766788547768 -0.8738978527982829 0.005657309259789518
		outer loop
			vertex -0.1306432029933189 0.21751821034268165 0.028696331602874117
			vertex -0.1306432029933189 0.19941031069842127 -2.7684734696454827
			vertex -0.10448912393753278 0.18482546538470593 -2.7742672340666905
		endloop
	endfacet
	facet normal -0.48607667885477757 -0.8738978527982825 0.005657309259789505
		outer loop
			vertex -0.1306432029933189 0.21751821034268165 0.028696331602874117
			vertex -0.10448912393753278 0.18482546538470593 -2.7742672340666905
			vertex -0.10448912393753278 0.20293336707062634 0.022902882561693493
		endloop
	endfacet
	facet normal 0.010793307709616026 -0.04779746677591571 0.9987987318166213
		outer loop
			vertex -0.10448912393753278 0.20293336707062634 0.022902882561693493
			vertex -0.05787829248611674 0.2122045442636775 0.02284286420094862
			vertex -0.12175282709305037 0.3078745811884745 0.02811139603880332
		endloop
	endfacet
	facet normal -0.17932525945872554 -0.17305961883344353 0.9684486665018875
		outer loop
			vertex -0.05787829248611674 0.2122045442636775 0.02284286420094862
			vertex -0.03562727472488625 0.22175083344489982 0.028668931080269924
			vertex -0.12175282709305037 0.3078745811884745 0.02811139603880332
		endloop
	endfacet
	facet normal -1.5050943284908519e-15 0.006473514841253632 0.9999790465832772
		outer loop
			vertex -0.03562727472488625 0.22175083344489982 0.028668931080269924
			vertex -0.006224216863558121 0.24360301532794 0.028527467692395017
			vertex -0.12175282709305037 0.3078745811884745 0.02811139603880332
		endloop
	endfacet
	facet normal 4.297652907652927e-16 0.006473514841257112 0.9999790465832772
		outer loop
			vertex -0.006224216863558121 0.24360301532794 0.028527467692395017
			vertex -0.002701267644808118 0.28528171200586494 0.028257654377375388
			vertex -0.12175282709305037 0.3078745811884745 0.02811139603880332
		endloop
	endfacet
	facet normal 0.007767040864848252 0.0473940642774597 0.9988460720989334
		outer loop
			vertex -0.002701267644808118 0.28528171200586494 0.028257654377375388
			vertex 0.106153679254606 0.4151987004564093 0.021246789422425538
			vertex -0.12175282709305037 0.3078745811884745 0.02811139603880332
		endloop
	endfacet
	facet normal 0.009677164508874776 0.043348536174204644 0.9990131415044659
		outer loop
			vertex 0.106153679254606 0.4151987004564093 0.021246789422425538
			vertex 0.0009013599186684517 0.5025292549956555 0.018476948287767143
			vertex -0.12175282709305037 0.3078745811884745 0.02811139603880332
		endloop
	endfacet
	facet normal 0.07263092128801824 0.0035984388464867754 0.9973523953501702
		outer loop
			vertex 0.0009013599186684517 0.5025292549956555 0.018476948287767143
			vertex -0.08430664865677105 0.4901979877904954 0.02472660438118891
			vertex -0.12175282709305037 0.3078745811884745 0.02811139603880332
		endloop
	endfacet
	facet normal 0.05160490043084701 0.007940661883995887 0.998636009835599
		outer loop
			vertex -0.08430664865677105 0.4901979877904954 0.02472660438118891
			vertex -0.1257167329043602 0.44647820461809967 0.027214124624578073
			vertex -0.12175282709305037 0.3078745811884745 0.02811139603880332
		endloop
	endfacet
	facet normal -0.10643564725021493 0.0033929017219861963 0.994313804194799
		outer loop
			vertex -0.1257167329043602 0.44647820461809967 0.027214124624578073
			vertex -0.1612876461238121 0.41849866495145216 0.02350193504428023
			vertex -0.12175282709305037 0.3078745811884745 0.02811139603880332
		endloop
	endfacet
	facet normal -0.008076842091969365 0.03874863537659155 0.9992163468830328
		outer loop
			vertex -0.1612876461238121 0.41849866495145216 0.02350193504428023
			vertex -0.28857653925125354 0.31987472605368383 0.026297576615412332
			vertex -0.12175282709305037 0.3078745811884745 0.02811139603880332
		endloop
	endfacet
	facet normal -0.022228439743230476 -0.15984706026124645 0.9868914903840336
		outer loop
			vertex -0.28857653925125354 0.31987472605368383 0.026297576615412332
			vertex -0.3030136364192223 0.23992356544532856 0.013022690511077078
			vertex -0.12175282709305037 0.3078745811884745 0.02811139603880332
		endloop
	endfacet
	facet normal 0.35823737550902307 -0.9026080192265545 -0.23867288580046833
		outer loop
			vertex -0.3030136364192223 0.23992356544532856 0.013022690511077078
			vertex -0.19773946344558946 0.2944606184991877 -0.03521252463633863
			vertex -0.12175282709305037 0.3078745811884745 0.02811139603880332
		endloop
	endfacet
	facet normal -0.6142856252629654 -0.16397672448975598 0.7718580208956168
		outer loop
			vertex -0.19773946344558946 0.2944606184991877 -0.03521252463633863
			vertex -0.15229127618973007 0.25162764510416463 -0.008142057163815112
			vertex -0.12175282709305037 0.3078745811884745 0.02811139603880332
		endloop
	endfacet
	facet normal -0.8642267485625542 0.16228188846934125 0.4762107891930004
		outer loop
			vertex -0.15229127618973007 0.25162764510416463 -0.008142057163815112
			vertex -0.14340254709427108 0.23912100631588987 0.012251177568317622
			vertex -0.12175282709305037 0.3078745811884745 0.02811139603880332
		endloop
	endfacet
	facet normal -0.7363616906714475 0.07680404211639522 0.6722146975677269
		outer loop
			vertex -0.14340254709427108 0.23912100631588987 0.012251177568317622
			vertex -0.1306432029933189 0.21751821034268165 0.028696331602874117
			vertex -0.12175282709305037 0.3078745811884745 0.02811139603880332
		endloop
	endfacet
	facet normal 0.20869160604744336 -0.01420321538250648 0.9778783575875565
		outer loop
			vertex -0.1306432029933189 0.21751821034268165 0.028696331602874117
			vertex -0.10448912393753278 0.20293336707062634 0.022902882561693493
			vertex -0.12175282709305037 0.3078745811884745 0.02811139603880332
		endloop
	endfacet
	facet normal -0.010793884101081171 0.04780036552163888 -0.9987985868642436
		outer loop
			vertex -0.05787829248611674 0.19409664257775705 -2.7743272524274354
			vertex -0.10448912393753278 0.18482546538470593 -2.7742672340666905
			vertex -0.12175282709305037 0.2897666815442141 -2.7690584052095537
		endloop
	endfacet
	facet normal 0.17933424746358395 0.17306862822352567 -0.9684453921680342
		outer loop
			vertex -0.03562727472488625 0.2036429338006394 -2.768500870168087
			vertex -0.05787829248611674 0.19409664257775705 -2.7743272524274354
			vertex -0.12175282709305037 0.2897666815442141 -2.7690584052095537
		endloop
	endfacet
	facet normal 2.6103140291674556e-15 -0.0064735148412551026 -0.9999790465832772
		outer loop
			vertex -0.006224216863558121 0.2254951156836796 -2.768642333555962
			vertex -0.03562727472488625 0.2036429338006394 -2.768500870168087
			vertex -0.12175282709305037 0.2897666815442141 -2.7690584052095537
		endloop
	endfacet
	facet normal 1.409925848359005e-15 -0.006473514841257264 -0.9999790465832773
		outer loop
			vertex -0.002701267644808118 0.2671738123616046 -2.7689121468709814
			vertex -0.006224216863558121 0.2254951156836796 -2.768642333555962
			vertex -0.12175282709305037 0.2897666815442141 -2.7690584052095537
		endloop
	endfacet
	facet normal -0.0077671729820443175 -0.047394760239455415 -0.9988460380487635
		outer loop
			vertex 0.106153679254606 0.39709080013159553 -2.775923116952607
			vertex -0.002701267644808118 0.2671738123616046 -2.7689121468709814
			vertex -0.12175282709305037 0.2897666815442141 -2.7690584052095537
		endloop
	endfacet
	facet normal -0.00967782005011688 -0.04334812368157847 -0.9990131530527334
		outer loop
			vertex 0.0009013599186684517 0.4844213553513951 -2.778692852960589
			vertex 0.106153679254606 0.39709080013159553 -2.775923116952607
			vertex -0.12175282709305037 0.2897666815442141 -2.7690584052095537
		endloop
	endfacet
	facet normal -0.07263092128801872 -0.0035984388464830068 -0.99735239535017
		outer loop
			vertex -0.08430664865677105 0.47209008814623504 -2.7724431968671674
			vertex 0.0009013599186684517 0.4844213553513951 -2.778692852960589
			vertex -0.12175282709305037 0.2897666815442141 -2.7690584052095537
		endloop
	endfacet
	facet normal -0.051604900430838305 -0.007940661883994017 -0.9986360098355995
		outer loop
			vertex -0.1257167329043602 0.42837030497383927 -2.7699556766237787
			vertex -0.08430664865677105 0.47209008814623504 -2.7724431968671674
			vertex -0.12175282709305037 0.2897666815442141 -2.7690584052095537
		endloop
	endfacet
	facet normal 0.10643848873891527 -0.0033928184913957246 -0.994313500309465
		outer loop
			vertex -0.1612876461238121 0.4003907646266384 -2.773667971330752
			vertex -0.1257167329043602 0.42837030497383927 -2.7699556766237787
			vertex -0.12175282709305037 0.2897666815442141 -2.7690584052095537
		endloop
	endfacet
	facet normal 0.1224089149939373 0.002391220191293814 -0.9924768710635044
		outer loop
			vertex -0.28918230707351916 0.29829389113465726 -2.7896880754251634
			vertex -0.1612876461238121 0.4003907646266384 -2.773667971330752
			vertex -0.12175282709305037 0.2897666815442141 -2.7690584052095537
		endloop
	endfacet
	facet normal 0.1281018635601543 0.13989124900310695 -0.9818453803958985
		outer loop
			vertex -0.3036194042414879 0.21834273853699845 -2.802962961581357
			vertex -0.28918230707351916 0.29829389113465726 -2.7896880754251634
			vertex -0.12175282709305037 0.2897666815442141 -2.7690584052095537
		endloop
	endfacet
	facet normal -0.39624155914987114 0.8708068409815518 0.2910121518119295
		outer loop
			vertex -0.19773946344558946 0.2763527174938206 -2.832382536138047
			vertex -0.3036194042414879 0.21834273853699845 -2.802962961581357
			vertex -0.12175282709305037 0.2897666815442141 -2.7690584052095537
		endloop
	endfacet
	facet normal 0.6142872230156466 0.1639752406135161 -0.7718570645562978
		outer loop
			vertex -0.15229127618973007 0.23351974545990428 -2.8053118584121717
			vertex -0.19773946344558946 0.2763527174938206 -2.832382536138047
			vertex -0.12175282709305037 0.2897666815442141 -2.7690584052095537
		endloop
	endfacet
	facet normal 0.86422788113384 -0.1622843741407059 -0.4762078867266615
		outer loop
			vertex -0.14340254709427108 0.22101310803273622 -2.7849184134266873
			vertex -0.15229127618973007 0.23351974545990428 -2.8053118584121717
			vertex -0.12175282709305037 0.2897666815442141 -2.7690584052095537
		endloop
	endfacet
	facet normal 0.7363573936452159 -0.07680365008360801 -0.6722194494046265
		outer loop
			vertex -0.1306432029933189 0.19941031069842127 -2.7684734696454827
			vertex -0.14340254709427108 0.22101310803273622 -2.7849184134266873
			vertex -0.12175282709305037 0.2897666815442141 -2.7690584052095537
		endloop
	endfacet
	facet normal -0.20870229333990045 0.014204281796146185 -0.9778760612333867
		outer loop
			vertex -0.10448912393753278 0.18482546538470593 -2.7742672340666905
			vertex -0.1306432029933189 0.19941031069842127 -2.7684734696454827
			vertex -0.12175282709305037 0.2897666815442141 -2.7690584052095537
		endloop
	endfacet
	facet normal 0.19509010850280087 -0.9807647720700621 0.006349128343708194
		outer loop
			vertex 0.02646321254231508 -0.3039618417675704 0.020301466353869656
			vertex 0.02646321254231508 -0.34094914874953736 -5.693214742150967
			vertex 0.16578522327843098 -0.3132368899745166 -5.693394141628463
		endloop
	endfacet
	facet normal 0.19509010850280087 -0.9807647720700621 0.006349128343708194
		outer loop
			vertex 0.02646321254231508 -0.3039618417675704 0.020301466353869656
			vertex 0.16578522327843098 -0.3132368899745166 -5.693394141628463
			vertex 0.16578522327843098 -0.27624958299254965 0.02012206687637309
		endloop
	endfacet
	facet normal 0.39294696555900543 -0.9195418677349746 0.005952792659283477
		outer loop
			vertex 0.16578522327843098 -0.27624958299254965 0.02012206687637309
			vertex 0.16578522327843098 -0.3132368899745166 -5.693394141628463
			vertex 0.23229464506114145 -0.28473881660225925 -5.681551608382519
		endloop
	endfacet
	facet normal 0.39294696555900477 -0.9195418677349749 0.005952792659283471
		outer loop
			vertex 0.16578522327843098 -0.27624958299254965 0.02012206687637309
			vertex 0.23229464506114145 -0.28473881660225925 -5.681551608382519
			vertex 0.23229464506114145 -0.24775151101039466 0.031964385389947406
		endloop
	endfacet
	facet normal 0.596505562021806 -0.8025921250356254 0.005195700900579095
		outer loop
			vertex 0.23229464506114145 -0.24775151101039466 0.031964385389947406
			vertex 0.23229464506114145 -0.28473881660225925 -5.681551608382519
			vertex 0.32018187879301424 -0.21942167086357833 -5.681974448754798
		endloop
	endfacet
	facet normal 0.5965055620218066 -0.8025921250356252 0.0051957009005791045
		outer loop
			vertex 0.23229464506114145 -0.24775151101039466 0.031964385389947406
			vertex 0.32018187879301424 -0.21942167086357833 -5.681974448754798
			vertex 0.32018187879301424 -0.18243436527171367 0.03154154501766905
		endloop
	endfacet
	facet normal 0.9964468137939205 -0.08422262170327413 0.0005452278159512353
		outer loop
			vertex 0.32018187879301424 -0.18243436527171367 0.03154154501766905
			vertex 0.32018187879301424 -0.21942167086357833 -5.681974448754798
			vertex 0.33071216723699276 -0.09484192687446918 -5.682780934475063
		endloop
	endfacet
	facet normal 0.9964468137939205 -0.08422262170327417 0.000545227815951235
		outer loop
			vertex 0.32018187879301424 -0.18243436527171367 0.03154154501766905
			vertex 0.33071216723699276 -0.09484192687446918 -5.682780934475063
			vertex 0.33071216723699276 -0.05785462128260456 0.03073505929740429
		endloop
	endfacet
	facet normal 0.8845619175121652 -0.466413011548915 0.003019394819054499
		outer loop
			vertex 0.33071216723699276 -0.05785462128260456 0.03073505929740429
			vertex 0.33071216723699276 -0.09484192687446918 -5.682780934475063
			vertex 0.47263737317332444 0.17431088018873556 -5.684523335675411
		endloop
	endfacet
	facet normal 0.8845619175121652 -0.4664130115489152 0.003019394819054497
		outer loop
			vertex 0.33071216723699276 -0.05785462128260456 0.03073505929740429
			vertex 0.47263737317332444 0.17431088018873556 -5.684523335675411
			vertex 0.47263737317332444 0.21129818578060014 0.028992658097056548
		endloop
	endfacet
	facet normal 0.8534001665368762 0.5212454023257138 -0.003374360552274557
		outer loop
			vertex 0.47263737317332444 0.21129818578060014 0.028992658097056548
			vertex 0.47263737317332444 0.17431088018873556 -5.684523335675411
			vertex 0.3538619938970242 0.3687656998337082 -5.685782168213179
		endloop
	endfacet
	facet normal 0.8534001665368763 0.5212454023257138 -0.0033743605522745567
		outer loop
			vertex 0.47263737317332444 0.21129818578060014 0.028992658097056548
			vertex 0.3538619938970242 0.3687656998337082 -5.685782168213179
			vertex 0.3538619938970242 0.4057530054255728 0.027733825559288508
		endloop
	endfacet
	facet normal 0.358065650576343 0.9336768479212159 -0.006044297580640702
		outer loop
			vertex 0.3538619938970242 0.4057530054255728 0.027733825559288508
			vertex 0.3538619938970242 0.3687656998337082 -5.685782168213179
			vertex 0.13719805471492363 0.4518596523697291 -5.685288257144907
		endloop
	endfacet
	facet normal 0.358065650576343 0.9336768479212159 -0.006044297580640702
		outer loop
			vertex 0.3538619938970242 0.4057530054255728 0.027733825559288508
			vertex 0.13719805471492363 0.4518596523697291 -5.685288257144907
			vertex 0.13719805471492363 0.48884695796159366 0.02822773662756052
		endloop
	endfacet
	facet normal -0.19978148457104075 0.9798199450016777 -0.0063430118634974185
		outer loop
			vertex 0.13719805471492363 0.48884695796159366 0.02822773662756052
			vertex 0.13719805471492363 0.4518596523697291 -5.685288257144907
			vertex -0.03930467827104086 0.4158729381736192 -5.685055291735049
		endloop
	endfacet
	facet normal -0.19978148457104042 0.9798199450016777 -0.006343011863497428
		outer loop
			vertex 0.13719805471492363 0.48884695796159366 0.02822773662756052
			vertex -0.03930467827104086 0.4158729381736192 -5.685055291735049
			vertex -0.03930467827104086 0.45286024376548384 0.028460702037418364
		endloop
	endfacet
	facet normal -0.7341137225168245 0.6790123123597265 -0.004395688386146489
		outer loop
			vertex -0.03930467827104086 0.45286024376548384 0.028460702037418364
			vertex -0.03930467827104086 0.4158729381736192 -5.685055291735049
			vertex -0.14331028544587365 0.3034253759654868 -5.685359177793791
		endloop
	endfacet
	facet normal -0.7341137225168245 0.6790123123597265 -0.004395688386146488
		outer loop
			vertex -0.03930467827104086 0.45286024376548384 0.028460702037418364
			vertex -0.14331028544587365 0.3034253759654868 -5.685359177793791
			vertex -0.14331028544587365 0.34041268155735144 0.028156815978676267
		endloop
	endfacet
	facet normal -0.42179221778911113 0.9066735212463438 -0.005869487481778806
		outer loop
			vertex -0.14331028544587365 0.34041268155735144 0.028156815978676267
			vertex -0.14331028544587365 0.3034253759654868 -5.685359177793791
			vertex -0.23970408464318574 0.25858404162055826 -5.6850688906679006
		endloop
	endfacet
	facet normal -0.4217922177891117 0.9066735212463437 -0.005869487481778797
		outer loop
			vertex -0.14331028544587365 0.34041268155735144 0.028156815978676267
			vertex -0.23970408464318574 0.25858404162055826 -5.6850688906679006
			vertex -0.23970408464318574 0.29557134721242284 0.02844710310456701
		endloop
	endfacet
	facet normal -0.9840504011499869 0.17788614863655217 -0.001151572752636285
		outer loop
			vertex -0.23970408464318574 0.29557134721242284 0.02844710310456701
			vertex -0.23970408464318574 0.25858404162055826 -5.6850688906679006
			vertex -0.2828392138965928 0.019404457229744893 -5.771553964297217
		endloop
	endfacet
	facet normal -0.9840504011499868 0.17788614863655217 -0.0011515727526362869
		outer loop
			vertex -0.23970408464318574 0.29557134721242284 0.02844710310456701
			vertex -0.2828392138965928 0.019404457229744893 -5.771553964297217
			vertex -0.2828392138965928 0.05639176282160953 -0.05803797052475004
		endloop
	endfacet
	facet normal -0.942422818762139 -0.3344167219167045 0.002164896974480291
		outer loop
			vertex -0.2828392138965928 0.05639176282160953 -0.05803797052475004
			vertex -0.2828392138965928 0.019404457229744893 -5.771553964297217
			vertex -0.25226670252908495 -0.06701718608054888 -5.812484465805332
		endloop
	endfacet
	facet normal -0.942422818762139 -0.3344167219167045 0.0021648969744802902
		outer loop
			vertex -0.2828392138965928 0.05639176282160953 -0.05803797052475004
			vertex -0.25226670252908495 -0.06701718608054888 -5.812484465805332
			vertex -0.25226670252908495 -0.030029879098581947 -0.0989682573004949
		endloop
	endfacet
	facet normal -0.687332888781021 -0.7263273306827789 0.004701989277525266
		outer loop
			vertex -0.25226670252908495 -0.030029879098581947 -0.0989682573004949
			vertex -0.25226670252908495 -0.06701718608054888 -5.812484465805332
			vertex -0.11641971215578184 -0.19521127463500157 -5.756926241189372
		endloop
	endfacet
	facet normal -0.6873328887810211 -0.7263273306827787 0.00470198927752526
		outer loop
			vertex -0.25226670252908495 -0.030029879098581947 -0.0989682573004949
			vertex -0.11641971215578184 -0.19521127463500157 -5.756926241189372
			vertex -0.11641971215578184 -0.1582239704332393 -0.04341046214927415
		endloop
	endfacet
	facet normal -0.8179581604033174 -0.5752656596226353 0.003724068817197629
		outer loop
			vertex -0.11641971215578184 -0.1582239704332393 -0.04341046214927415
			vertex -0.11641971215578184 -0.19521127463500157 -5.756926241189372
			vertex -0.08985093713124767 -0.23271869308906706 -5.715193251508925
		endloop
	endfacet
	facet normal -0.8179581604033169 -0.5752656596226361 0.0037240688171976412
		outer loop
			vertex -0.11641971215578184 -0.1582239704332393 -0.04341046214927415
			vertex -0.08985093713124767 -0.23271869308906706 -5.715193251508925
			vertex -0.08985093713124767 -0.19573139027740702 -0.0016776872011963213
		endloop
	endfacet
	facet normal -0.8621168600406808 -0.5066988849182855 0.0032801914827852397
		outer loop
			vertex -0.08985093713124767 -0.19573139027740702 -0.0016776872011963213
			vertex -0.08985093713124767 -0.23271869308906706 -5.715193251508925
			vertex -0.05171262952665762 -0.29739035369543004 -5.681469706753263
		endloop
	endfacet
	facet normal -0.8621168600406808 -0.5066988849182851 0.0032801914827852298
		outer loop
			vertex -0.08985093713124767 -0.19573139027740702 -0.0016776872011963213
			vertex -0.05171262952665762 -0.29739035369543004 -5.681469706753263
			vertex -0.05171262952665762 -0.26040304810356546 0.03204628701920377
		endloop
	endfacet
	facet normal -0.4860770548896915 -0.8738976436500002 0.005657307905836617
		outer loop
			vertex -0.05171262952665762 -0.26040304810356546 0.03204628701920377
			vertex -0.05171262952665762 -0.29739035369543004 -5.681469706753263
			vertex 0.02646321254231508 -0.34094914874953736 -5.693214742150967
		endloop
	endfacet
	facet normal -0.48607705488969094 -0.8738976436500004 0.0056573079058366265
		outer loop
			vertex -0.05171262952665762 -0.26040304810356546 0.03204628701920377
			vertex 0.02646321254231508 -0.34094914874953736 -5.693214742150967
			vertex 0.02646321254231508 -0.3039618417675704 0.020301466353869656
		endloop
	endfacet
	facet normal 0.007381971177685017 -0.030642060958223912 0.9995031618768219
		outer loop
			vertex 0.02646321254231508 -0.3039618417675704 0.020301466353869656
			vertex 0.16578522327843098 -0.27624958299254965 0.02012206687637309
			vertex -0.025138850028384577 0.009676589967830194 0.030297885838848973
		endloop
	endfacet
	facet normal -0.12470267054803603 -0.11832800595588792 0.9851130528851455
		outer loop
			vertex 0.16578522327843098 -0.27624958299254965 0.02012206687637309
			vertex 0.23229464506114145 -0.24775151101039466 0.031964385389947406
			vertex -0.025138850028384577 0.009676589967830194 0.030297885838848973
		endloop
	endfacet
	facet normal -7.559670284387075e-18 0.006473514841255927 0.9999790465832772
		outer loop
			vertex 0.23229464506114145 -0.24775151101039466 0.031964385389947406
			vertex 0.32018187879301424 -0.18243436527171367 0.03154154501766905
			vertex -0.025138850028384577 0.009676589967830194 0.030297885838848973
		endloop
	endfacet
	facet normal 8.12359207507057e-17 0.006473514841256087 0.9999790465832772
		outer loop
			vertex 0.32018187879301424 -0.18243436527171367 0.03154154501766905
			vertex 0.33071216723699276 -0.05785462128260456 0.03073505929740429
			vertex -0.025138850028384577 0.009676589967830194 0.030297885838848973
		endloop
	endfacet
	facet normal 1.1318973530198826e-17 0.006473514841255716 0.9999790465832772
		outer loop
			vertex 0.33071216723699276 -0.05785462128260456 0.03073505929740429
			vertex 0.47263737317332444 0.21129818578060014 0.028992658097056548
			vertex -0.025138850028384577 0.009676589967830194 0.030297885838848973
		endloop
	endfacet
	facet normal 2.4692957089788836e-16 0.0064735148412551355 0.9999790465832772
		outer loop
			vertex 0.47263737317332444 0.21129818578060014 0.028992658097056548
			vertex 0.3538619938970242 0.4057530054255728 0.027733825559288508
			vertex -0.025138850028384577 0.009676589967830194 0.030297885838848973
		endloop
	endfacet
	facet normal 0.0034838152172562246 0.003139957653436638 0.9999890017882531
		outer loop
			vertex 0.3538619938970242 0.4057530054255728 0.027733825559288508
			vertex 0.13719805471492363 0.48884695796159366 0.02822773662756052
			vertex -0.025138850028384577 0.009676589967830194 0.030297885838848973
		endloop
	endfacet
	facet normal 0.0004716189041585057 0.0041604615904108876 0.9999912340290609
		outer loop
			vertex 0.13719805471492363 0.48884695796159366 0.02822773662756052
			vertex -0.03930467827104086 0.45286024376548384 0.028460702037418364
			vertex -0.025138850028384577 0.009676589967830194 0.030297885838848973
		endloop
	endfacet
	facet normal -0.007156172778790176 0.003916546873183398 0.9999667243722414
		outer loop
			vertex -0.03930467827104086 0.45286024376548384 0.028460702037418364
			vertex -0.14331028544587365 0.34041268155735144 0.028156815978676267
			vertex -0.025138850028384577 0.009676589967830194 0.030297885838848973
		endloop
	endfacet
	facet normal 1.5163400712642962e-16 0.006473514841255826 0.9999790465832773
		outer loop
			vertex -0.14331028544587365 0.34041268155735144 0.028156815978676267
			vertex -0.23970408464318574 0.29557134721242284 0.02844710310456701
			vertex -0.025138850028384577 0.009676589967830194 0.030297885838848973
		endloop
	endfacet
	facet normal -0.3549982269631438 -0.26061560055195193 0.8978060857456748
		outer loop
			vertex -0.23970408464318574 0.29557134721242284 0.02844710310456701
			vertex -0.2828392138965928 0.05639176282160953 -0.05803797052475004
			vertex -0.025138850028384577 0.009676589967830194 0.030297885838848973
		endloop
	endfacet
	facet normal -0.3605374389008812 -0.5003610000453634 0.7871795378339033
		outer loop
			vertex -0.2828392138965928 0.05639176282160953 -0.05803797052475004
			vertex -0.25226670252908495 -0.030029879098581947 -0.0989682573004949
			vertex -0.025138850028384577 0.009676589967830194 0.030297885838848973
		endloop
	endfacet
	facet normal -0.47419890775581097 -0.12479767164724971 0.8715279324465863
		outer loop
			vertex -0.25226670252908495 -0.030029879098581947 -0.0989682573004949
			vertex -0.11641971215578184 -0.1582239704332393 -0.04341046214927415
			vertex -0.025138850028384577 0.009676589967830194 0.030297885838848973
		endloop
	endfacet
	facet normal -0.7699227289308161 0.14584924906046326 0.6212463183184463
		outer loop
			vertex -0.11641971215578184 -0.1582239704332393 -0.04341046214927415
			vertex -0.08985093713124767 -0.19573139027740702 -0.0016776872011963213
			vertex -0.025138850028384577 0.009676589967830194 0.030297885838848973
		endloop
	endfacet
	facet normal -0.5979556589166025 0.0640065319089078 0.7989694573903346
		outer loop
			vertex -0.08985093713124767 -0.19573139027740702 -0.0016776872011963213
			vertex -0.05171262952665762 -0.26040304810356546 0.03204628701920377
			vertex -0.025138850028384577 0.009676589967830194 0.030297885838848973
		endloop
	endfacet
	facet normal 0.14431591784628292 -0.007793903786750989 0.989500970651342
		outer loop
			vertex -0.05171262952665762 -0.26040304810356546 0.03204628701920377
			vertex 0.02646321254231508 -0.3039618417675704 0.020301466353869656
			vertex -0.025138850028384577 0.009676589967830194 0.030297885838848973
		endloop
	endfacet
	facet normal -0.007382102795754004 0.03064272279920419 -0.9995031406142575
		outer loop
			vertex 0.16578522327843098 -0.3132368899745166 -5.693394141628463
			vertex 0.02646321254231508 -0.34094914874953736 -5.693214742150967
			vertex -0.025138850028384577 -0.02731071562403443 -5.683218107933619
		endloop
	endfacet
	facet normal 0.1247048278906169 0.1183301667918477 -0.9851125202370465
		outer loop
			vertex 0.23229464506114145 -0.28473881660225925 -5.681551608382519
			vertex 0.16578522327843098 -0.3132368899745166 -5.693394141628463
			vertex -0.025138850028384577 -0.02731071562403443 -5.683218107933619
		endloop
	endfacet
	facet normal -1.4232797417241494e-15 -0.006473514841260809 -0.9999790465832772
		outer loop
			vertex 0.32018187879301424 -0.21942167086357833 -5.681974448754798
			vertex 0.23229464506114145 -0.28473881660225925 -5.681551608382519
			vertex -0.025138850028384577 -0.02731071562403443 -5.683218107933619
		endloop
	endfacet
	facet normal 1.1469308514877405e-15 -0.006473514841256189 -0.9999790465832772
		outer loop
			vertex 0.33071216723699276 -0.09484192687446918 -5.682780934475063
			vertex 0.32018187879301424 -0.21942167086357833 -5.681974448754798
			vertex -0.025138850028384577 -0.02731071562403443 -5.683218107933619
		endloop
	endfacet
	facet normal 1.123665372270647e-15 -0.006473514841256314 -0.9999790465832773
		outer loop
			vertex 0.47263737317332444 0.17431088018873556 -5.684523335675411
			vertex 0.33071216723699276 -0.09484192687446918 -5.682780934475063
			vertex -0.025138850028384577 -0.02731071562403443 -5.683218107933619
		endloop
	endfacet
	facet normal 1.2104038602558306e-15 -0.006473514841256528 -0.9999790465832772
		outer loop
			vertex 0.3538619938970242 0.3687656998337082 -5.685782168213179
			vertex 0.47263737317332444 0.17431088018873556 -5.684523335675411
			vertex -0.025138850028384577 -0.02731071562403443 -5.683218107933619
		endloop
	endfacet
	facet normal -0.003483815217256224 -0.0031399576534366378 -0.999989001788253
		outer loop
			vertex 0.13719805471492363 0.4518596523697291 -5.685288257144907
			vertex 0.3538619938970242 0.3687656998337082 -5.685782168213179
			vertex -0.025138850028384577 -0.02731071562403443 -5.683218107933619
		endloop
	endfacet
	facet normal -0.00047161890416120726 -0.004160461590409973 -0.999991234029061
		outer loop
			vertex -0.03930467827104086 0.4158729381736192 -5.685055291735049
			vertex 0.13719805471492363 0.4518596523697291 -5.685288257144907
			vertex -0.025138850028384577 -0.02731071562403443 -5.683218107933619
		endloop
	endfacet
	facet normal 0.007156172778793255 -0.003916546873182298 -0.9999667243722414
		outer loop
			vertex -0.14331028544587365 0.3034253759654868 -5.685359177793791
			vertex -0.03930467827104086 0.4158729381736192 -5.685055291735049
			vertex -0.025138850028384577 -0.02731071562403443 -5.683218107933619
		endloop
	endfacet
	facet normal -1.545500457250148e-16 -0.006473514841255827 -0.9999790465832773
		outer loop
			vertex -0.23970408464318574 0.25858404162055826 -5.6850688906679006
			vertex -0.14331028544587365 0.3034253759654868 -5.685359177793791
			vertex -0.025138850028384577 -0.02731071562403443 -5.683218107933619
		endloop
	endfacet
	facet normal 0.35499822696314226 0.2606156005519507 -0.8978060857456757
		outer loop
			vertex -0.2828392138965928 0.019404457229744893 -5.771553964297217
			vertex -0.23970408464318574 0.25858404162055826 -5.6850688906679006
			vertex -0.025138850028384577 -0.02731071562403443 -5.683218107933619
		endloop
	endfacet
	facet normal 0.3605373916842902 0.5003624922277365 -0.7871786109703038
		outer loop
			vertex -0.25226670252908495 -0.06701718608054888 -5.812484465805332
			vertex -0.2828392138965928 0.019404457229744893 -5.771553964297217
			vertex -0.025138850028384577 -0.02731071562403443 -5.683218107933619
		endloop
	endfacet
	facet normal 0.4741998816996773 0.12479590686716945 -0.871527655226851
		outer loop
			vertex -0.11641971215578184 -0.19521127463500157 -5.756926241189372
			vertex -0.25226670252908495 -0.06701718608054888 -5.812484465805332
			vertex -0.025138850028384577 -0.02731071562403443 -5.683218107933619
		endloop
	endfacet
	facet normal 0.7699234044361619 -0.14585095542141976 -0.6212450805471941
		outer loop
			vertex -0.08985093713124767 -0.23271869308906706 -5.715193251508925
			vertex -0.11641971215578184 -0.19521127463500157 -5.756926241189372
			vertex -0.025138850028384577 -0.02731071562403443 -5.683218107933619
		endloop
	endfacet
	facet normal 0.5979507317560826 -0.06400607122437912 -0.7989731818019835
		outer loop
			vertex -0.05171262952665762 -0.29739035369543004 -5.681469706753263
			vertex -0.08985093713124767 -0.23271869308906706 -5.715193251508925
			vertex -0.025138850028384577 -0.02731071562403443 -5.683218107933619
		endloop
	endfacet
	facet normal -0.14431844045210973 0.0077941543865015575 -0.9895006007592266
		outer loop
			vertex 0.02646321254231508 -0.34094914874953736 -5.693214742150967
			vertex -0.05171262952665762 -0.29739035369543004 -5.681469706753263
			vertex -0.025138850028384577 -0.02731071562403443 -5.683218107933619
		endloop
	endfacet
endsolid exported
